PowerhouseFilar-RegularItalic.ufo
<glyph name="quotedbl" format="2">
  <advance width="423"/>
  <unicode hex="0022"/>
  <outline>
    <contour>
      <point x="150" y="700" type="line"/>
      <point x="121" y="412" type="line"/>
      <point x="188" y="412" type="line"/>
      <point x="259" y="700" type="line"/>
    </contour>
    <contour>
      <point x="324" y="700" type="line"/>
      <point x="295" y="412" type="line"/>
      <point x="362" y="412" type="line"/>
      <point x="433" y="700" type="line"/>
    </contour>
  </outline>
</glyph>
<glyph name="numbersign" format="2">
  <advance width="671"/>
  <unicode hex="0023"/>
  <outline>
    <contour>
      <point x="423" y="700.0" type="line"/>
      <point x="340" y="700.0" type="line"/>
      <point x="50" y="0.0" type="line"/>
      <point x="133" y="0.0" type="line"/>
    </contour>
    <contour>
      <point x="688" y="507.0" type="line"/>
      <point x="123" y="507.0" type="line"/>
      <point x="110" y="435.0" type="line"/>
      <point x="675" y="435.0" type="line"/>
    </contour>
    <contour>
      <point x="645" y="700.0" type="line"/>
      <point x="562" y="700.0" type="line"/>
      <point x="272" y="0.0" type="line"/>
      <point x="355" y="0.0" type="line"/>
    </contour>
    <contour>
      <point x="599" y="293.0" type="line"/>
      <point x="34" y="293.0" type="line"/>
      <point x="21" y="221.0" type="line"/>
      <point x="586" y="221.0" type="line"/>
    </contour>
  </outline>
</glyph>
<glyph name="percent" format="2">
  <advance width="755"/>
  <unicode hex="0025"/>
  <outline>
    <contour>
      <point x="239" y="639" type="curve" smooth="yes"/>
      <point x="276.0" y="639.0"/>
      <point x="296" y="609"/>
      <point x="296" y="560" type="curve" smooth="yes"/>
      <point x="296.0" y="498.0"/>
      <point x="264" y="413"/>
      <point x="203" y="413" type="curve" smooth="yes"/>
      <point x="166.0" y="413.0"/>
      <point x="146" y="443"/>
      <point x="146" y="492" type="curve" smooth="yes"/>
      <point x="146.0" y="554.0"/>
      <point x="178" y="639"/>
    </contour>
    <contour>
      <point x="583" y="287" type="curve" smooth="yes"/>
      <point x="620.0" y="287.0"/>
      <point x="640" y="257"/>
      <point x="640" y="208" type="curve" smooth="yes"/>
      <point x="640.0" y="146.0"/>
      <point x="608" y="61"/>
      <point x="547" y="61" type="curve" smooth="yes"/>
      <point x="510.0" y="61.0"/>
      <point x="490" y="91"/>
      <point x="490" y="140" type="curve" smooth="yes"/>
      <point x="490.0" y="202.0"/>
      <point x="522" y="287"/>
    </contour>
    <contour>
      <point x="246" y="705" type="curve" smooth="yes"/>
      <point x="135.0" y="705.0"/>
      <point x="72.0" y="594"/>
      <point x="72" y="488" type="curve" smooth="yes"/>
      <point x="72" y="401.0"/>
      <point x="122" y="347"/>
      <point x="196" y="347" type="curve" smooth="yes"/>
      <point x="307.0" y="347.0"/>
      <point x="370.0" y="458"/>
      <point x="370" y="564" type="curve" smooth="yes"/>
      <point x="370.0" y="651.0"/>
      <point x="320" y="705"/>
    </contour>
    <contour>
      <point x="590" y="353" type="curve" smooth="yes"/>
      <point x="479.0" y="353.0"/>
      <point x="416.0" y="242"/>
      <point x="416" y="136" type="curve" smooth="yes"/>
      <point x="416" y="49.0"/>
      <point x="466" y="-5"/>
      <point x="540" y="-5" type="curve" smooth="yes"/>
      <point x="651.0" y="-5.0"/>
      <point x="714.0" y="106"/>
      <point x="714" y="212" type="curve" smooth="yes"/>
      <point x="714.0" y="299.0"/>
      <point x="664" y="353"/>
    </contour>
    <contour>
      <point x="659" y="700" type="line"/>
      <point x="33" y="0" type="line"/>
      <point x="127" y="0" type="line"/>
      <point x="753" y="700" type="line"/>
    </contour>
  </outline>
</glyph>
<glyph name="ampersand" format="2">
  <advance width="665"/>
  <unicode hex="0026"/>
  <outline>
    <contour>
      <point x="292" y="351" type="curve"/>
      <point x="253" y="409" type="line"/>
      <point x="91" y="360"/>
      <point x="9" y="279"/>
      <point x="9" y="163" type="curve" smooth="yes"/>
      <point x="9" y="54"/>
      <point x="87" y="-12"/>
      <point x="222" y="-12" type="curve" smooth="yes"/>
      <point x="427" y="-12"/>
      <point x="566" y="135"/>
      <point x="639" y="343" type="curve"/>
      <point x="559" y="358" type="line"/>
      <point x="490" y="172"/>
      <point x="374" y="66"/>
      <point x="236" y="66" type="curve" smooth="yes"/>
      <point x="162" y="66"/>
      <point x="102" y="95"/>
      <point x="102" y="172" type="curve" smooth="yes"/>
      <point x="102" y="246"/>
      <point x="153" y="311"/>
    </contour>
    <contour>
      <point x="620" y="0" type="line"/>
      <point x="280" y="428" type="line" smooth="yes"/>
      <point x="254" y="461"/>
      <point x="245" y="486"/>
      <point x="245" y="518" type="curve" smooth="yes"/>
      <point x="245" y="577"/>
      <point x="282" y="638"/>
      <point x="361" y="638" type="curve" smooth="yes"/>
      <point x="409" y="638"/>
      <point x="449" y="615"/>
      <point x="449" y="560" type="curve" smooth="yes"/>
      <point x="449" y="495"/>
      <point x="394" y="459"/>
      <point x="266" y="410" type="curve"/>
      <point x="306" y="354" type="line"/>
      <point x="450" y="406"/>
      <point x="531" y="469"/>
      <point x="531" y="569" type="curve" smooth="yes"/>
      <point x="531" y="649"/>
      <point x="475" y="712"/>
      <point x="368" y="712" type="curve" smooth="yes"/>
      <point x="232" y="712"/>
      <point x="160" y="613"/>
      <point x="160" y="515" type="curve" smooth="yes"/>
      <point x="160" y="457"/>
      <point x="188" y="408"/>
      <point x="209" y="382" type="curve" smooth="yes"/>
      <point x="516" y="0" type="line"/>
    </contour>
  </outline>
</glyph>
<glyph name="quotesingle" format="2">
  <advance width="249"/>
  <unicode hex="0027"/>
  <outline>
    <contour>
      <point x="150" y="700" type="line"/>
      <point x="121" y="412" type="line"/>
      <point x="188" y="412" type="line"/>
      <point x="259" y="700" type="line"/>
    </contour>
  </outline>
</glyph>
<glyph name="asterisk" format="2">
  <advance width="430"/>
  <unicode hex="002A"/>
  <outline>
    <contour>
      <point x="127" y="326" type="line"/>
      <point x="242" y="453" type="line"/>
      <point x="310" y="328" type="line"/>
      <point x="370" y="366" type="line"/>
      <point x="299" y="495" type="line"/>
      <point x="445" y="540" type="line"/>
      <point x="436" y="604" type="line"/>
      <point x="295" y="561" type="line"/>
      <point x="319" y="700" type="line"/>
      <point x="249" y="700" type="line"/>
      <point x="225" y="562" type="line"/>
      <point x="97" y="606" type="line"/>
      <point x="67" y="543" type="line"/>
      <point x="193" y="500" type="line"/>
      <point x="76" y="370" type="line"/>
    </contour>
  </outline>
</glyph>
<glyph name="plus" format="2">
  <advance width="576"/>
  <unicode hex="002B"/>
  <outline>
    <contour>
      <point x="526" y="302.0" type="line"/>
      <point x="540" y="378.0" type="line"/>
      <point x="84" y="378.0" type="line"/>
      <point x="70" y="302.0" type="line"/>
    </contour>
    <contour>
      <point x="386" y="578.0" type="line"/>
      <point x="308" y="578.0" type="line"/>
      <point x="224" y="102.0" type="line"/>
      <point x="302" y="102.0" type="line"/>
    </contour>
  </outline>
</glyph>
<glyph name="comma" format="2">
  <advance width="265"/>
  <unicode hex="002C"/>
  <outline>
    <contour>
      <point x="58" y="124" type="line"/>
      <point x="36" y="0" type="line"/>
      <point x="88" y="0" type="line"/>
      <point x="85" y="-16" type="line" smooth="yes"/>
      <point x="74" y="-74"/>
      <point x="48" y="-98"/>
      <point x="1" y="-98" type="curve"/>
      <point x="-8" y="-146" type="line"/>
      <point x="92" y="-146"/>
      <point x="126" y="-81"/>
      <point x="138" y="-16" type="curve" smooth="yes"/>
      <point x="163" y="124" type="line"/>
    </contour>
  </outline>
</glyph>
<glyph name="hyphen" format="2">
  <advance width="384"/>
  <unicode hex="002D"/>
  <outline>
    <contour>
      <point x="62" y="257" type="line"/>
      <point x="308" y="257" type="line"/>
      <point x="322" y="335" type="line"/>
      <point x="76" y="335" type="line"/>
    </contour>
  </outline>
</glyph>
<glyph name="slash" format="2">
  <advance width="453"/>
  <unicode hex="002F"/>
  <outline>
    <contour>
      <point x="443" y="745" type="line"/>
      <point x="-97" y="-113" type="line"/>
      <point x="-1" y="-113" type="line"/>
      <point x="539" y="745" type="line"/>
    </contour>
  </outline>
</glyph>
<glyph name="zero" format="2">
  <advance width="598"/>
  <unicode hex="0030"/>
  <outline>
    <contour>
      <point x="366" y="712" type="curve" smooth="yes"/>
      <point x="165" y="712"/>
      <point x="54" y="482"/>
      <point x="54" y="255" type="curve" smooth="yes"/>
      <point x="54" y="86"/>
      <point x="130" y="-12"/>
      <point x="259" y="-12" type="curve" smooth="yes"/>
      <point x="461" y="-12"/>
      <point x="572" y="217"/>
      <point x="572" y="444" type="curve" smooth="yes"/>
      <point x="572" y="613"/>
      <point x="495" y="712"/>
    </contour>
    <contour>
      <point x="357" y="636" type="curve" smooth="yes"/>
      <point x="438" y="636"/>
      <point x="482" y="571"/>
      <point x="482" y="449" type="curve" smooth="yes"/>
      <point x="482" y="279"/>
      <point x="411" y="64"/>
      <point x="268" y="64" type="curve" smooth="yes"/>
      <point x="188" y="64"/>
      <point x="144" y="129"/>
      <point x="144" y="251" type="curve" smooth="yes"/>
      <point x="144" y="420"/>
      <point x="215" y="636"/>
    </contour>
  </outline>
</glyph>
<glyph name="one" format="2">
  <advance width="427"/>
  <unicode hex="0031"/>
  <outline>
    <contour>
      <point x="299" y="700" type="line"/>
      <point x="279" y="588"/>
      <point x="240" y="555"/>
      <point x="99" y="555" type="curve"/>
      <point x="88" y="490" type="line"/>
      <point x="308" y="490" type="line"/>
      <point x="260" y="540" type="line"/>
      <point x="164" y="0" type="line"/>
      <point x="254" y="0" type="line"/>
      <point x="378" y="700" type="line"/>
    </contour>
    <contour>
      <point x="164" y="0" type="line"/>
      <point x="254" y="0" type="line"/>
      <point x="267" y="75" type="line"/>
      <point x="178" y="75" type="line"/>
    </contour>
  </outline>
</glyph>
<glyph name="two" format="2">
  <advance width="545"/>
  <unicode hex="0032"/>
  <outline>
    <contour>
      <point x="70" y="77" type="line"/>
      <point x="61" y="29" type="line"/>
      <point x="368" y="244"/>
      <point x="541" y="358"/>
      <point x="541" y="522" type="curve" smooth="yes"/>
      <point x="541" y="623"/>
      <point x="477" y="712"/>
      <point x="336" y="712" type="curve" smooth="yes"/>
      <point x="189" y="712"/>
      <point x="85" y="615"/>
      <point x="85" y="488" type="curve" smooth="yes"/>
      <point x="85" y="468"/>
      <point x="88" y="449"/>
      <point x="93" y="429" type="curve"/>
      <point x="181" y="441" type="line"/>
      <point x="177" y="458"/>
      <point x="175" y="472"/>
      <point x="175" y="487" type="curve" smooth="yes"/>
      <point x="175" y="571"/>
      <point x="234" y="633"/>
      <point x="326" y="633" type="curve" smooth="yes"/>
      <point x="409" y="633"/>
      <point x="449" y="584"/>
      <point x="449" y="514" type="curve" smooth="yes"/>
      <point x="449" y="383"/>
      <point x="319" y="310"/>
      <point x="7" y="74" type="curve"/>
      <point x="-6" y="0" type="line"/>
      <point x="457" y="0" type="line"/>
      <point x="471" y="77" type="line"/>
    </contour>
  </outline>
</glyph>
<glyph name="three" format="2">
  <advance width="566"/>
  <unicode hex="0033"/>
  <outline>
    <contour>
      <point x="53" y="219" type="line"/>
      <point x="47" y="196"/>
      <point x="45" y="179"/>
      <point x="45" y="159" type="curve" smooth="yes"/>
      <point x="45" y="47"/>
      <point x="138" y="-12"/>
      <point x="258" y="-12" type="curve" smooth="yes"/>
      <point x="433" y="-12"/>
      <point x="521" y="96"/>
      <point x="521" y="220" type="curve" smooth="yes"/>
      <point x="521" y="293"/>
      <point x="479" y="347"/>
      <point x="409" y="364" type="curve"/>
      <point x="408" y="358" type="line"/>
      <point x="483" y="376"/>
      <point x="559" y="442"/>
      <point x="559" y="542" type="curve" smooth="yes"/>
      <point x="559" y="641"/>
      <point x="482" y="712"/>
      <point x="358" y="712" type="curve" smooth="yes"/>
      <point x="224" y="712"/>
      <point x="121" y="635"/>
      <point x="110" y="501" type="curve"/>
      <point x="200" y="507" type="line"/>
      <point x="206" y="578"/>
      <point x="256" y="636"/>
      <point x="349" y="636" type="curve" smooth="yes"/>
      <point x="417" y="636"/>
      <point x="466" y="601"/>
      <point x="466" y="532" type="curve" smooth="yes"/>
      <point x="466" y="456"/>
      <point x="415" y="400"/>
      <point x="337" y="400" type="curve" smooth="yes"/>
      <point x="281" y="400" type="line"/>
      <point x="267" y="321" type="line"/>
      <point x="319" y="321" type="line" smooth="yes"/>
      <point x="393" y="321"/>
      <point x="429" y="272"/>
      <point x="429" y="212" type="curve" smooth="yes"/>
      <point x="429" y="135"/>
      <point x="372" y="64"/>
      <point x="265" y="64" type="curve" smooth="yes"/>
      <point x="183" y="64"/>
      <point x="133" y="106"/>
      <point x="133" y="168" type="curve" smooth="yes"/>
      <point x="133" y="180"/>
      <point x="135" y="193"/>
      <point x="139" y="207" type="curve"/>
    </contour>
  </outline>
</glyph>
<glyph name="five" format="2">
  <advance width="560"/>
  <unicode hex="0035"/>
  <outline>
    <contour>
      <point x="253" y="664" type="line"/>
      <point x="197" y="621" type="line"/>
      <point x="561" y="621" type="line"/>
      <point x="575" y="700" type="line"/>
      <point x="183" y="700" type="line"/>
      <point x="82" y="321" type="line"/>
      <point x="159" y="309" type="line"/>
      <point x="186" y="352"/>
      <point x="241" y="395"/>
      <point x="312" y="395" type="curve" smooth="yes"/>
      <point x="378" y="395"/>
      <point x="433" y="355"/>
      <point x="433" y="266" type="curve" smooth="yes"/>
      <point x="433" y="167"/>
      <point x="377" y="61"/>
      <point x="255" y="61" type="curve" smooth="yes"/>
      <point x="169" y="61"/>
      <point x="126" y="110"/>
      <point x="126" y="174" type="curve" smooth="yes"/>
      <point x="126" y="181"/>
      <point x="126" y="188"/>
      <point x="127" y="195" type="curve"/>
      <point x="34" y="210" type="line"/>
      <point x="33" y="198"/>
      <point x="32" y="187"/>
      <point x="32" y="177" type="curve" smooth="yes"/>
      <point x="32" y="55"/>
      <point x="124" y="-12"/>
      <point x="246" y="-12" type="curve" smooth="yes"/>
      <point x="438" y="-12"/>
      <point x="526" y="132"/>
      <point x="526" y="275" type="curve" smooth="yes"/>
      <point x="526" y="401"/>
      <point x="444" y="465"/>
      <point x="339" y="465" type="curve" smooth="yes"/>
      <point x="248" y="465"/>
      <point x="174" y="417"/>
      <point x="148" y="363" type="curve"/>
      <point x="171" y="363" type="line"/>
    </contour>
  </outline>
</glyph>
<glyph name="eight" format="2">
  <advance width="572"/>
  <unicode hex="0038"/>
  <outline>
    <contour>
      <point x="351" y="643" type="curve" smooth="yes"/>
      <point x="437" y="643"/>
      <point x="483" y="598"/>
      <point x="483" y="537" type="curve" smooth="yes"/>
      <point x="483" y="472"/>
      <point x="433" y="406"/>
      <point x="327" y="406" type="curve" smooth="yes"/>
      <point x="241" y="406"/>
      <point x="195" y="449"/>
      <point x="195" y="510" type="curve" smooth="yes"/>
      <point x="195" y="575"/>
      <point x="245" y="643"/>
    </contour>
    <contour>
      <point x="357" y="712" type="curve" smooth="yes"/>
      <point x="194" y="712"/>
      <point x="106" y="612"/>
      <point x="106" y="506" type="curve" smooth="yes"/>
      <point x="106" y="427"/>
      <point x="161" y="386"/>
      <point x="230" y="371" type="curve"/>
      <point x="233" y="389" type="line"/>
      <point x="125" y="373"/>
      <point x="32" y="292"/>
      <point x="32" y="172" type="curve" smooth="yes"/>
      <point x="32" y="65"/>
      <point x="124" y="-12"/>
      <point x="259" y="-12" type="curve" smooth="yes"/>
      <point x="422" y="-12"/>
      <point x="530" y="90"/>
      <point x="530" y="222" type="curve" smooth="yes"/>
      <point x="530" y="308"/>
      <point x="475" y="363"/>
      <point x="395" y="381" type="curve"/>
      <point x="392" y="363" type="line"/>
      <point x="491" y="374"/>
      <point x="572" y="443"/>
      <point x="572" y="546" type="curve" smooth="yes"/>
      <point x="572" y="647"/>
      <point x="486" y="712"/>
    </contour>
    <contour>
      <point x="297" y="340" type="curve" smooth="yes"/>
      <point x="387" y="340"/>
      <point x="442" y="286"/>
      <point x="442" y="215" type="curve" smooth="yes"/>
      <point x="442" y="140"/>
      <point x="378" y="60"/>
      <point x="266" y="60" type="curve" smooth="yes"/>
      <point x="176" y="60"/>
      <point x="122" y="112"/>
      <point x="122" y="183" type="curve" smooth="yes"/>
      <point x="122" y="258"/>
      <point x="185" y="340"/>
    </contour>
  </outline>
</glyph>
<glyph name="question" format="2">
  <advance width="481"/>
  <unicode hex="003F"/>
  <outline>
    <contour>
      <point x="184" y="227" type="line"/>
      <point x="265" y="227" type="line"/>
      <point x="267" y="237" type="line" smooth="yes"/>
      <point x="276" y="281"/>
      <point x="301" y="311"/>
      <point x="354" y="345" type="curve" smooth="yes"/>
      <point x="417" y="388"/>
      <point x="500" y="446"/>
      <point x="500" y="554" type="curve" smooth="yes"/>
      <point x="500" y="656"/>
      <point x="422" y="712"/>
      <point x="310" y="712" type="curve" smooth="yes"/>
      <point x="193" y="712"/>
      <point x="111" y="652"/>
      <point x="74" y="545" type="curve"/>
      <point x="158" y="521" type="line"/>
      <point x="182" y="590"/>
      <point x="224" y="634"/>
      <point x="298" y="634" type="curve" smooth="yes"/>
      <point x="364" y="634"/>
      <point x="408" y="603"/>
      <point x="408" y="544" type="curve" smooth="yes"/>
      <point x="408" y="491"/>
      <point x="370" y="451"/>
      <point x="307" y="407" type="curve" smooth="yes"/>
      <point x="232" y="355"/>
      <point x="198" y="320"/>
      <point x="187" y="247" type="curve" smooth="yes"/>
    </contour>
    <contour>
      <point x="132" y="0" type="line"/>
      <point x="237" y="0" type="line"/>
      <point x="259" y="124" type="line"/>
      <point x="154" y="124" type="line"/>
    </contour>
  </outline>
</glyph>
<glyph name="at" format="2">
  <advance width="862"/>
  <unicode hex="0040"/>
  <outline>
    <contour>
      <point x="31" y="162" type="curve" smooth="yes"/>
      <point x="31" y="-19"/>
      <point x="151" y="-129"/>
      <point x="368" y="-129" type="curve" smooth="yes"/>
      <point x="456" y="-129"/>
      <point x="547" y="-108"/>
      <point x="622" y="-70" type="curve"/>
      <point x="606" y="-7" type="line"/>
      <point x="532" y="-40"/>
      <point x="458" y="-60"/>
      <point x="377" y="-60" type="curve" smooth="yes"/>
      <point x="193" y="-60"/>
      <point x="107" y="28"/>
      <point x="107" y="174" type="curve" smooth="yes"/>
      <point x="107" y="373"/>
      <point x="267" y="566"/>
      <point x="509" y="566" type="curve" smooth="yes"/>
      <point x="663" y="566"/>
      <point x="756" y="487"/>
      <point x="756" y="352" type="curve" smooth="yes"/>
      <point x="756" y="240"/>
      <point x="694" y="126"/>
      <point x="609" y="126" type="curve" smooth="yes"/>
      <point x="581" y="126"/>
      <point x="567" y="140"/>
      <point x="578" y="180" type="curve" smooth="yes"/>
      <point x="654" y="451" type="line"/>
      <point x="570" y="451" type="line"/>
      <point x="555" y="398" type="line"/>
      <point x="540" y="435"/>
      <point x="496" y="457"/>
      <point x="442" y="457" type="curve" smooth="yes"/>
      <point x="305" y="457"/>
      <point x="216" y="317"/>
      <point x="216" y="197" type="curve" smooth="yes"/>
      <point x="216" y="104"/>
      <point x="275" y="52"/>
      <point x="359" y="52" type="curve" smooth="yes"/>
      <point x="409" y="52"/>
      <point x="450" y="71"/>
      <point x="481" y="107" type="curve"/>
      <point x="493" y="73"/>
      <point x="532" y="52"/>
      <point x="583" y="52" type="curve" smooth="yes"/>
      <point x="734" y="52"/>
      <point x="832" y="188"/>
      <point x="832" y="362" type="curve" smooth="yes"/>
      <point x="832" y="549"/>
      <point x="680" y="635"/>
      <point x="518" y="635" type="curve" smooth="yes"/>
      <point x="225" y="635"/>
      <point x="31" y="411"/>
    </contour>
    <contour>
      <point x="523" y="301" type="curve" smooth="yes"/>
      <point x="523" y="225"/>
      <point x="474" y="122"/>
      <point x="385" y="122" type="curve" smooth="yes"/>
      <point x="335" y="122"/>
      <point x="305" y="154"/>
      <point x="305" y="212" type="curve" smooth="yes"/>
      <point x="305" y="285"/>
      <point x="354" y="387"/>
      <point x="443" y="387" type="curve" smooth="yes"/>
      <point x="493" y="387"/>
      <point x="523" y="356"/>
    </contour>
  </outline>
</glyph>
<glyph name="B" format="2">
  <advance width="706"/>
  <unicode hex="0042"/>
  <guideline x="333.1357254290173" y="1.5620124804994755" angle="90" name="center" identifier="YlB84gsj3O"/>
  <outline>
    <contour>
      <point x="177" y="700" type="line"/>
      <point x="53" y="0" type="line"/>
      <point x="144" y="0" type="line"/>
      <point x="268" y="700" type="line"/>
    </contour>
    <contour>
      <point x="389" y="0" type="line" smooth="yes"/>
      <point x="539" y="0"/>
      <point x="642" y="103"/>
      <point x="642" y="226" type="curve" smooth="yes"/>
      <point x="642" y="304"/>
      <point x="597" y="347"/>
      <point x="548" y="370" type="curve"/>
      <point x="545" y="353" type="line"/>
      <point x="623" y="375"/>
      <point x="683" y="449"/>
      <point x="683" y="541" type="curve" smooth="yes"/>
      <point x="683" y="636"/>
      <point x="619" y="700"/>
      <point x="513" y="700" type="curve" smooth="yes"/>
      <point x="211" y="700" type="line"/>
      <point x="196" y="619" type="line"/>
      <point x="491" y="619" type="line" smooth="yes"/>
      <point x="555" y="619"/>
      <point x="593" y="585"/>
      <point x="593" y="527" type="curve" smooth="yes"/>
      <point x="593" y="463"/>
      <point x="548" y="400"/>
      <point x="457" y="400" type="curve" smooth="yes"/>
      <point x="157" y="400" type="line"/>
      <point x="143" y="319" type="line"/>
      <point x="440" y="319" type="line" smooth="yes"/>
      <point x="505" y="319"/>
      <point x="550" y="285"/>
      <point x="550" y="218" type="curve" smooth="yes"/>
      <point x="550" y="142"/>
      <point x="492" y="81"/>
      <point x="398" y="81" type="curve" smooth="yes"/>
      <point x="102" y="81" type="line"/>
      <point x="87" y="0" type="line"/>
    </contour>
  </outline>
</glyph>
<glyph name="C" format="2">
  <advance width="745"/>
  <unicode hex="0043"/>
  <guideline x="393" y="712" angle="90" name="center" identifier="rB6evpv1cN"/>
  <outline>
    <contour>
      <point x="62" y="291" type="curve" smooth="yes"/>
      <point x="62" y="111"/>
      <point x="183" y="-12"/>
      <point x="356" y="-12" type="curve" smooth="yes"/>
      <point x="503" y="-12"/>
      <point x="632" y="74"/>
      <point x="688" y="204" type="curve"/>
      <point x="610" y="233" type="line"/>
      <point x="568" y="137"/>
      <point x="475" y="68"/>
      <point x="365" y="68" type="curve" smooth="yes"/>
      <point x="241" y="68"/>
      <point x="155" y="160"/>
      <point x="155" y="298" type="curve" smooth="yes"/>
      <point x="155" y="467"/>
      <point x="271" y="630"/>
      <point x="447" y="630" type="curve" smooth="yes"/>
      <point x="567" y="630"/>
      <point x="639" y="555"/>
      <point x="648" y="453" type="curve"/>
      <point x="732" y="474" type="line"/>
      <point x="717" y="613"/>
      <point x="613" y="712"/>
      <point x="457" y="712" type="curve" smooth="yes"/>
      <point x="229" y="712"/>
      <point x="62" y="522"/>
    </contour>
  </outline>
</glyph>
<glyph name="D" format="2">
  <advance width="766"/>
  <unicode hex="0044"/>
  <guideline x="353.2663806552264" y="700.1150546021844" angle="90" name="center" identifier="CqOe9pQ2DS"/>
  <outline>
    <contour>
      <point x="101" y="82" type="line"/>
      <point x="86" y="0" type="line"/>
      <point x="341" y="0" type="line" smooth="yes"/>
      <point x="584" y="0"/>
      <point x="732" y="186"/>
      <point x="732" y="411" type="curve" smooth="yes"/>
      <point x="732" y="586"/>
      <point x="638" y="700"/>
      <point x="462" y="700" type="curve" smooth="yes"/>
      <point x="209" y="700" type="line"/>
      <point x="194" y="618" type="line"/>
      <point x="442" y="618" type="line" smooth="yes"/>
      <point x="572" y="618"/>
      <point x="640" y="544"/>
      <point x="640" y="406" type="curve" smooth="yes"/>
      <point x="640" y="232"/>
      <point x="536" y="82"/>
      <point x="351" y="82" type="curve" smooth="yes"/>
    </contour>
    <contour>
      <point x="177" y="700" type="line"/>
      <point x="53" y="0" type="line"/>
      <point x="144" y="0" type="line"/>
      <point x="268" y="700" type="line"/>
    </contour>
  </outline>
</glyph>
<glyph name="F" format="2">
  <advance width="618"/>
  <unicode hex="0046"/>
  <outline>
    <contour>
      <point x="177" y="700" type="line"/>
      <point x="53" y="0" type="line"/>
      <point x="144" y="0" type="line"/>
      <point x="268" y="700" type="line"/>
    </contour>
    <contour>
      <point x="197" y="618" type="line"/>
      <point x="658" y="618" type="line"/>
      <point x="673" y="700" type="line"/>
      <point x="212" y="700" type="line"/>
    </contour>
    <contour>
      <point x="152" y="306" type="line"/>
      <point x="534" y="306" type="line"/>
      <point x="549" y="388" type="line"/>
      <point x="167" y="388" type="line"/>
    </contour>
  </outline>
</glyph>
<glyph name="H" format="2">
  <advance width="736"/>
  <unicode hex="0048"/>
  <outline>
    <contour>
      <point x="157" y="320" type="line"/>
      <point x="606" y="320" type="line"/>
      <point x="620" y="402" type="line"/>
      <point x="171" y="402" type="line"/>
    </contour>
    <contour>
      <point x="628" y="700" type="line"/>
      <point x="504" y="0" type="line"/>
      <point x="595" y="0" type="line"/>
      <point x="719" y="700" type="line"/>
    </contour>
    <contour>
      <point x="177" y="700" type="line"/>
      <point x="53" y="0" type="line"/>
      <point x="144" y="0" type="line"/>
      <point x="268" y="700" type="line"/>
    </contour>
  </outline>
</glyph>
<glyph name="I" format="2">
  <advance width="285"/>
  <unicode hex="0049"/>
  <outline>
    <contour>
      <point x="177" y="700" type="line"/>
      <point x="53" y="0" type="line"/>
      <point x="144" y="0" type="line"/>
      <point x="268" y="700" type="line"/>
    </contour>
    <contour>
      <point x="53" y="0" type="line"/>
      <point x="144" y="0" type="line"/>
      <point x="158" y="82" type="line"/>
      <point x="68" y="82" type="line"/>
    </contour>
    <contour>
      <point x="163" y="618" type="line"/>
      <point x="253" y="618" type="line"/>
      <point x="268" y="700" type="line"/>
      <point x="177" y="700" type="line"/>
    </contour>
  </outline>
</glyph>
<glyph name="L" format="2">
  <advance width="630"/>
  <unicode hex="004C"/>
  <guideline x="142" y="700" angle="90" name="acute" identifier="V6HVXnwLb1"/>
  <outline>
    <contour>
      <point x="177" y="700" type="line"/>
      <point x="53" y="0" type="line"/>
      <point x="144" y="0" type="line"/>
      <point x="268" y="700" type="line"/>
    </contour>
    <contour>
      <point x="88" y="0" type="line"/>
      <point x="547" y="0" type="line"/>
      <point x="562" y="82" type="line"/>
      <point x="103" y="82" type="line"/>
    </contour>
  </outline>
</glyph>
<glyph name="M" format="2">
  <advance width="896"/>
  <unicode hex="004D"/>
  <outline>
    <contour>
      <point x="239" y="613" type="line"/>
      <point x="385" y="0" type="line"/>
      <point x="422" y="0" type="line"/>
      <point x="783" y="612" type="line"/>
      <point x="774" y="612" type="line"/>
      <point x="666" y="0" type="line"/>
      <point x="755" y="0" type="line"/>
      <point x="879" y="700" type="line"/>
      <point x="747" y="700" type="line"/>
      <point x="403" y="117" type="line"/>
      <point x="439" y="117" type="line"/>
      <point x="303" y="700" type="line"/>
      <point x="177" y="700" type="line"/>
      <point x="53" y="0" type="line"/>
      <point x="141" y="0" type="line"/>
      <point x="249" y="613" type="line"/>
    </contour>
  </outline>
</glyph>
<glyph name="N" format="2">
  <advance width="774"/>
  <unicode hex="004E"/>
  <outline>
    <contour>
      <point x="609" y="40" type="line"/>
      <point x="299" y="700" type="line"/>
      <point x="177" y="700" type="line"/>
      <point x="53" y="0" type="line"/>
      <point x="142" y="0" type="line"/>
      <point x="258" y="657" type="line"/>
      <point x="225" y="657" type="line"/>
      <point x="535" y="0" type="line"/>
      <point x="633" y="0" type="line"/>
      <point x="757" y="700" type="line"/>
      <point x="668" y="700" type="line"/>
      <point x="551" y="40" type="line"/>
    </contour>
  </outline>
</glyph>
<glyph name="O" format="2">
  <advance width="786"/>
  <unicode hex="004F"/>
  <outline>
    <contour>
      <point x="659" y="406" type="curve" smooth="yes"/>
      <point x="659" y="235"/>
      <point x="545" y="69"/>
      <point x="367" y="69" type="curve" smooth="yes"/>
      <point x="238" y="69"/>
      <point x="155" y="157"/>
      <point x="155" y="295" type="curve" smooth="yes"/>
      <point x="155" y="465"/>
      <point x="269" y="631"/>
      <point x="447" y="631" type="curve" smooth="yes"/>
      <point x="576" y="631"/>
      <point x="659" y="543"/>
    </contour>
    <contour>
      <point x="62" y="289" type="curve" smooth="yes"/>
      <point x="62" y="109"/>
      <point x="180" y="-12"/>
      <point x="359" y="-12" type="curve" smooth="yes"/>
      <point x="597" y="-12"/>
      <point x="752" y="189"/>
      <point x="752" y="412" type="curve" smooth="yes"/>
      <point x="752" y="591"/>
      <point x="633" y="712"/>
      <point x="455" y="712" type="curve" smooth="yes"/>
      <point x="217" y="712"/>
      <point x="62" y="511"/>
    </contour>
  </outline>
</glyph>
<glyph name="S" format="2">
  <advance width="654"/>
  <unicode hex="0053"/>
  <guideline x="324" y="712" angle="90" name="center" identifier="M5YQhG4xdn"/>
  <outline>
    <contour>
      <point x="35" y="202" type="curve" smooth="yes"/>
      <point x="35" y="75"/>
      <point x="133" y="-12"/>
      <point x="301" y="-12" type="curve" smooth="yes"/>
      <point x="483" y="-12"/>
      <point x="590" y="80"/>
      <point x="590" y="218" type="curve" smooth="yes"/>
      <point x="590" y="305"/>
      <point x="535" y="356"/>
      <point x="423" y="380" type="curve" smooth="yes"/>
      <point x="320" y="402" type="line" smooth="yes"/>
      <point x="230" y="421"/>
      <point x="194" y="446"/>
      <point x="194" y="500" type="curve" smooth="yes"/>
      <point x="194" y="575"/>
      <point x="269" y="632"/>
      <point x="374" y="632" type="curve" smooth="yes"/>
      <point x="472" y="632"/>
      <point x="530" y="579"/>
      <point x="530" y="512" type="curve" smooth="yes"/>
      <point x="530" y="508"/>
      <point x="530" y="506"/>
      <point x="529" y="499" type="curve"/>
      <point x="624" y="493" type="line"/>
      <point x="625" y="501"/>
      <point x="625" y="503"/>
      <point x="625" y="510" type="curve" smooth="yes"/>
      <point x="625" y="619"/>
      <point x="536" y="712"/>
      <point x="384" y="712" type="curve" smooth="yes"/>
      <point x="224" y="712"/>
      <point x="102" y="624"/>
      <point x="102" y="487" type="curve" smooth="yes"/>
      <point x="102" y="394"/>
      <point x="162" y="345"/>
      <point x="280" y="320" type="curve" smooth="yes"/>
      <point x="383" y="298" type="line" smooth="yes"/>
      <point x="460" y="282"/>
      <point x="496" y="255"/>
      <point x="496" y="201" type="curve" smooth="yes"/>
      <point x="496" y="123"/>
      <point x="422" y="68"/>
      <point x="309" y="68" type="curve" smooth="yes"/>
      <point x="191" y="68"/>
      <point x="129" y="124"/>
      <point x="134" y="221" type="curve"/>
      <point x="37" y="228" type="line"/>
      <point x="36" y="220"/>
      <point x="35" y="211"/>
    </contour>
  </outline>
</glyph>
<glyph name="T" format="2">
  <advance width="675"/>
  <unicode hex="0054"/>
  <outline>
    <contour>
      <point x="367" y="671" type="line"/>
      <point x="248" y="0" type="line"/>
      <point x="339" y="0" type="line"/>
      <point x="458" y="671" type="line"/>
    </contour>
    <contour>
      <point x="104" y="620" type="line"/>
      <point x="703" y="620" type="line"/>
      <point x="717" y="700" type="line"/>
      <point x="118" y="700" type="line"/>
    </contour>
  </outline>
</glyph>
<glyph name="V" format="2">
  <advance width="671"/>
  <unicode hex="0056"/>
  <outline>
    <contour>
      <point x="194" y="700" type="line"/>
      <point x="103" y="700" type="line"/>
      <point x="244" y="0" type="line"/>
      <point x="342" y="0" type="line"/>
      <point x="726" y="700" type="line"/>
      <point x="628" y="700" type="line"/>
      <point x="283" y="60" type="line"/>
      <point x="318" y="60" type="line"/>
    </contour>
  </outline>
</glyph>
<glyph name="X" format="2">
  <advance width="670"/>
  <unicode hex="0058"/>
  <outline>
    <contour>
      <point x="120" y="700" type="line"/>
      <point x="314" y="344" type="line"/>
      <point x="326" y="329" type="line"/>
      <point x="503" y="0" type="line"/>
      <point x="609" y="0" type="line"/>
      <point x="393" y="394" type="line"/>
      <point x="378" y="402" type="line"/>
      <point x="225" y="700" type="line"/>
    </contour>
    <contour>
      <point x="716" y="700" type="line"/>
      <point x="602" y="700" type="line"/>
      <point x="343" y="398" type="line"/>
      <point x="319" y="387" type="line"/>
      <point x="-21" y="0" type="line"/>
      <point x="95" y="0" type="line"/>
      <point x="381" y="333" type="line"/>
      <point x="407" y="346" type="line"/>
    </contour>
  </outline>
</glyph>
<glyph name="Y" format="2">
  <advance width="656"/>
  <unicode hex="0059"/>
  <outline>
    <contour>
      <point x="373" y="372" type="line"/>
      <point x="195" y="700" type="line"/>
      <point x="97" y="700" type="line"/>
      <point x="297" y="324" type="line"/>
      <point x="240" y="0" type="line"/>
      <point x="331" y="0" type="line"/>
      <point x="388" y="324" type="line"/>
      <point x="723" y="700" type="line"/>
      <point x="617" y="700" type="line"/>
      <point x="322" y="372" type="line"/>
    </contour>
  </outline>
</glyph>
<glyph name="Z" format="2">
  <advance width="646"/>
  <unicode hex="005A"/>
  <outline>
    <contour>
      <point x="11" y="0" type="line"/>
      <point x="547" y="0" type="line"/>
      <point x="562" y="82" type="line"/>
      <point x="104" y="82" type="line"/>
      <point x="101" y="28" type="line"/>
      <point x="654" y="639" type="line"/>
      <point x="665" y="700" type="line"/>
      <point x="133" y="700" type="line"/>
      <point x="118" y="618" type="line"/>
      <point x="577" y="618" type="line"/>
      <point x="561" y="658" type="line"/>
      <point x="22" y="62" type="line"/>
    </contour>
  </outline>
</glyph>
<glyph name="bracketleft" format="2">
  <advance width="352"/>
  <unicode hex="005B"/>
  <outline>
    <contour>
      <point x="33" y="-113" type="line"/>
      <point x="248" y="-113" type="line"/>
      <point x="261" y="-43" type="line"/>
      <point x="136" y="-43" type="line"/>
      <point x="262" y="675" type="line"/>
      <point x="387" y="675" type="line"/>
      <point x="400" y="745" type="line"/>
      <point x="185" y="745" type="line"/>
    </contour>
  </outline>
</glyph>
<glyph name="asciicircum" format="2">
  <advance width="584"/>
  <unicode hex="005E"/>
  <outline>
    <contour>
      <point x="403" y="700" type="line"/>
      <point x="319" y="700" type="line"/>
      <point x="61" y="376" type="line"/>
      <point x="160" y="376" type="line"/>
      <point x="380" y="652" type="line"/>
      <point x="336" y="652" type="line"/>
      <point x="458" y="376" type="line"/>
      <point x="545" y="376" type="line"/>
    </contour>
  </outline>
</glyph>
<glyph name="underscore" format="2">
  <advance width="426"/>
  <unicode hex="005F"/>
  <outline>
    <contour>
      <point x="-60" y="-140" type="line"/>
      <point x="346" y="-140" type="line"/>
      <point x="358" y="-70" type="line"/>
      <point x="-48" y="-70" type="line"/>
    </contour>
  </outline>
</glyph>
<glyph name="a" format="2">
  <advance width="535"/>
  <unicode hex="0061"/>
  <guideline x="265.5123563340968" y="489.4156374165119" angle="90" name="center" identifier="iJSR3WYPDo"/>
  <anchor x="496" y="-3" name="ogonek"/>
  <outline>
    <contour>
      <point x="371" y="93" type="line"/>
      <point x="374" y="15"/>
      <point x="416" y="-5"/>
      <point x="471" y="-5" type="curve" smooth="yes"/>
      <point x="480" y="-5"/>
      <point x="489" y="-4"/>
      <point x="496" y="-3" type="curve"/>
      <point x="496" y="66" type="line"/>
      <point x="493" y="66"/>
      <point x="491.0" y="66.0"/>
      <point x="488" y="66" type="curve" smooth="yes"/>
      <point x="464" y="66"/>
      <point x="453.0" y="79.0"/>
      <point x="453" y="101" type="curve" smooth="yes"/>
      <point x="453" y="345" type="line" smooth="yes"/>
      <point x="453" y="445"/>
      <point x="387.0" y="502.0"/>
      <point x="266" y="502" type="curve" smooth="yes"/>
      <point x="126" y="502"/>
      <point x="74" y="424"/>
      <point x="69" y="350" type="curve"/>
      <point x="162" y="335" type="line"/>
      <point x="165" y="382"/>
      <point x="180.0" y="429.0"/>
      <point x="265" y="429" type="curve" smooth="yes"/>
      <point x="338" y="429"/>
      <point x="367" y="396"/>
      <point x="367" y="341" type="curve" smooth="yes"/>
      <point x="367" y="177" type="line" smooth="yes"/>
      <point x="367" y="114"/>
      <point x="307.0" y="59.0"/>
      <point x="227" y="59" type="curve" smooth="yes"/>
      <point x="172" y="59"/>
      <point x="139.0" y="86.0"/>
      <point x="139" y="136" type="curve" smooth="yes"/>
      <point x="139" y="186"/>
      <point x="171" y="210"/>
      <point x="232" y="218" type="curve" smooth="yes"/>
      <point x="400" y="239" type="line"/>
      <point x="400" y="306" type="line"/>
      <point x="218" y="284" type="line" smooth="yes"/>
      <point x="118" y="272"/>
      <point x="49" y="226.0"/>
      <point x="49" y="136" type="curve" smooth="yes"/>
      <point x="49" y="44"/>
      <point x="118.0" y="-12"/>
      <point x="217" y="-12" type="curve" smooth="yes"/>
      <point x="302" y="-12"/>
      <point x="363" y="28"/>
      <point x="396" y="93" type="curve"/>
    </contour>
  </outline>
</glyph>
<glyph name="c" format="2">
  <advance width="530"/>
  <unicode hex="0063"/>
  <outline>
    <contour>
      <point x="505" y="338" type="line"/>
      <point x="496" y="441"/>
      <point x="422" y="502"/>
      <point x="314" y="502" type="curve" smooth="yes"/>
      <point x="144" y="502"/>
      <point x="41" y="362"/>
      <point x="41" y="198" type="curve" smooth="yes"/>
      <point x="41" y="67"/>
      <point x="122" y="-12"/>
      <point x="248" y="-12" type="curve" smooth="yes"/>
      <point x="350" y="-12"/>
      <point x="431" y="38"/>
      <point x="474" y="133" type="curve"/>
      <point x="395" y="160" type="line"/>
      <point x="369" y="94"/>
      <point x="322" y="57"/>
      <point x="256" y="57" type="curve" smooth="yes"/>
      <point x="176" y="57"/>
      <point x="130" y="111"/>
      <point x="130" y="202" type="curve" smooth="yes"/>
      <point x="130" y="307"/>
      <point x="185" y="431"/>
      <point x="308" y="431" type="curve" smooth="yes"/>
      <point x="380" y="431"/>
      <point x="421" y="392"/>
      <point x="425" y="320" type="curve"/>
    </contour>
  </outline>
</glyph>
<glyph name="d" format="2">
  <advance width="584"/>
  <unicode hex="0064"/>
  <guideline x="287" y="646" angle="90" name="center" identifier="DlAqy0TA4N"/>
  <outline>
    <contour>
      <point x="41" y="189" type="curve" smooth="yes"/>
      <point x="41" y="57"/>
      <point x="116" y="-12"/>
      <point x="217" y="-12" type="curve" smooth="yes"/>
      <point x="297" y="-12"/>
      <point x="372" y="31"/>
      <point x="424" y="112" type="curve"/>
      <point x="393" y="117" type="line"/>
      <point x="372" y="0" type="line"/>
      <point x="460" y="0" type="line"/>
      <point x="584" y="700" type="line"/>
      <point x="496" y="700" type="line"/>
      <point x="438" y="371" type="line"/>
      <point x="468" y="365" type="line"/>
      <point x="444" y="454"/>
      <point x="378" y="502"/>
      <point x="291" y="502" type="curve" smooth="yes"/>
      <point x="136" y="502"/>
      <point x="41" y="352"/>
    </contour>
    <contour>
      <point x="427" y="292" type="curve" smooth="yes"/>
      <point x="427" y="177"/>
      <point x="371" y="58"/>
      <point x="252" y="58" type="curve" smooth="yes"/>
      <point x="175" y="58"/>
      <point x="131" y="109"/>
      <point x="131" y="197" type="curve" smooth="yes"/>
      <point x="131" y="312"/>
      <point x="189" y="432"/>
      <point x="308" y="432" type="curve" smooth="yes"/>
      <point x="385" y="432"/>
      <point x="427" y="380"/>
    </contour>
  </outline>
</glyph>
<glyph name="e" format="2">
  <advance width="548"/>
  <unicode hex="0065"/>
  <outline>
    <contour>
      <point x="41" y="200" type="curve" smooth="yes"/>
      <point x="41" y="65"/>
      <point x="125" y="-12"/>
      <point x="249" y="-12" type="curve" smooth="yes"/>
      <point x="358" y="-12"/>
      <point x="440" y="44"/>
      <point x="484" y="134" type="curve"/>
      <point x="411" y="161" type="line"/>
      <point x="382" y="99"/>
      <point x="331" y="58"/>
      <point x="258" y="58" type="curve" smooth="yes"/>
      <point x="178" y="58"/>
      <point x="129" y="105"/>
      <point x="129" y="199" type="curve" smooth="yes"/>
      <point x="129" y="307"/>
      <point x="187" y="432"/>
      <point x="308" y="432" type="curve" smooth="yes"/>
      <point x="381" y="432"/>
      <point x="425" y="391"/>
      <point x="425" y="304" type="curve" smooth="yes"/>
      <point x="425" y="286"/>
      <point x="423" y="265"/>
      <point x="419" y="242" type="curve"/>
      <point x="449" y="292" type="line"/>
      <point x="103" y="292" type="line"/>
      <point x="92" y="226" type="line"/>
      <point x="500" y="226" type="line"/>
      <point x="502" y="241" type="line" smooth="yes"/>
      <point x="505" y="263"/>
      <point x="507" y="278"/>
      <point x="507" y="298" type="curve" smooth="yes"/>
      <point x="507" y="419"/>
      <point x="440" y="502"/>
      <point x="318" y="502" type="curve" smooth="yes"/>
      <point x="146" y="502"/>
      <point x="41" y="356"/>
    </contour>
  </outline>
</glyph>
<glyph name="f" format="2">
  <advance width="330"/>
  <unicode hex="0066"/>
  <outline>
    <contour>
      <point x="60" y="422" type="line"/>
      <point x="328" y="422" type="line"/>
      <point x="340" y="490" type="line"/>
      <point x="72" y="490" type="line"/>
    </contour>
    <contour>
      <point x="254" y="568" type="line" smooth="yes"/>
      <point x="262" y="611"/>
      <point x="289" y="629"/>
      <point x="329" y="629" type="curve" smooth="yes"/>
      <point x="338" y="629"/>
      <point x="351" y="628"/>
      <point x="365" y="625" type="curve"/>
      <point x="377" y="695" type="line"/>
      <point x="359" y="701"/>
      <point x="339" y="702"/>
      <point x="326" y="702" type="curve" smooth="yes"/>
      <point x="234" y="702"/>
      <point x="180" y="653"/>
      <point x="166" y="573" type="curve" smooth="yes"/>
      <point x="65" y="0" type="line"/>
      <point x="154" y="0" type="line"/>
    </contour>
  </outline>
</glyph>
<glyph name="g" format="2">
  <advance width="579"/>
  <unicode hex="0067"/>
  <guideline x="284" y="598" angle="90" name="center" identifier="ldYxP6ZocU"/>
  <outline>
    <contour>
      <point x="14" y="-35" type="line"/>
      <point x="14" y="-130"/>
      <point x="93" y="-192"/>
      <point x="215" y="-192" type="curve" smooth="yes"/>
      <point x="338" y="-192"/>
      <point x="433" y="-135"/>
      <point x="454" y="-14" type="curve" smooth="yes"/>
      <point x="542" y="490" type="line"/>
      <point x="454" y="490" type="line"/>
      <point x="433" y="371" type="line"/>
      <point x="466" y="365" type="line"/>
      <point x="441" y="454"/>
      <point x="380" y="502"/>
      <point x="292" y="502" type="curve" smooth="yes"/>
      <point x="145" y="502"/>
      <point x="46" y="363"/>
      <point x="46" y="213" type="curve" smooth="yes"/>
      <point x="46" y="88"/>
      <point x="120" y="17"/>
      <point x="221" y="17" type="curve" smooth="yes"/>
      <point x="300" y="17"/>
      <point x="374" y="58"/>
      <point x="426" y="138" type="curve"/>
      <point x="392" y="139" type="line"/>
      <point x="366" y="-8" type="line" smooth="yes"/>
      <point x="353" y="-88"/>
      <point x="294" y="-125"/>
      <point x="220" y="-125" type="curve" smooth="yes"/>
      <point x="140" y="-125"/>
      <point x="104" y="-82"/>
      <point x="105" y="-21" type="curve"/>
    </contour>
    <contour>
      <point x="422" y="301" type="curve" smooth="yes"/>
      <point x="422" y="199"/>
      <point x="365" y="85"/>
      <point x="255" y="85" type="curve" smooth="yes"/>
      <point x="177" y="85"/>
      <point x="137" y="140"/>
      <point x="137" y="222" type="curve" smooth="yes"/>
      <point x="137" y="321"/>
      <point x="195" y="432"/>
      <point x="305" y="432" type="curve" smooth="yes"/>
      <point x="383" y="432"/>
      <point x="422" y="380"/>
    </contour>
  </outline>
</glyph>
<glyph name="h" format="2">
  <advance width="556"/>
  <unicode hex="0068"/>
  <outline>
    <contour>
      <point x="160" y="700" type="line"/>
      <point x="37" y="0" type="line"/>
      <point x="125" y="0" type="line"/>
      <point x="180" y="315" type="line" smooth="yes"/>
      <point x="193" y="388"/>
      <point x="248" y="431"/>
      <point x="314" y="431" type="curve" smooth="yes"/>
      <point x="376" y="431"/>
      <point x="404" y="392"/>
      <point x="404" y="342" type="curve" smooth="yes"/>
      <point x="404" y="333"/>
      <point x="403" y="323"/>
      <point x="401" y="313" type="curve" smooth="yes"/>
      <point x="346" y="0" type="line"/>
      <point x="434" y="0" type="line"/>
      <point x="490" y="322" type="line" smooth="yes"/>
      <point x="492" y="334"/>
      <point x="493" y="345"/>
      <point x="493" y="356" type="curve" smooth="yes"/>
      <point x="493" y="434"/>
      <point x="442" y="502"/>
      <point x="351" y="502" type="curve" smooth="yes"/>
      <point x="279" y="502"/>
      <point x="213" y="461"/>
      <point x="171" y="398" type="curve"/>
      <point x="195" y="398" type="line"/>
      <point x="248" y="700" type="line"/>
    </contour>
  </outline>
</glyph>
<glyph name="l" format="2">
  <advance width="250"/>
  <unicode hex="006C"/>
  <outline>
    <contour>
      <point x="161" y="700" type="line"/>
      <point x="37" y="0" type="line"/>
      <point x="125" y="0" type="line"/>
      <point x="249" y="700" type="line"/>
    </contour>
    <contour>
      <point x="150" y="631" type="line"/>
      <point x="236" y="631" type="line"/>
      <point x="249" y="700" type="line"/>
      <point x="161" y="700" type="line"/>
    </contour>
    <contour>
      <point x="37" y="0" type="line"/>
      <point x="125" y="0" type="line"/>
      <point x="136" y="69" type="line"/>
      <point x="50" y="69" type="line"/>
    </contour>
  </outline>
</glyph>
<glyph name="m" format="2">
  <advance width="838"/>
  <unicode hex="006D"/>
  <outline>
    <contour>
      <point x="37" y="0" type="line"/>
      <point x="125" y="0" type="line"/>
      <point x="179" y="309" type="line" smooth="yes"/>
      <point x="192" y="384"/>
      <point x="246" y="431"/>
      <point x="307" y="431" type="curve" smooth="yes"/>
      <point x="372" y="431"/>
      <point x="396" y="378"/>
      <point x="385" y="313" type="curve" smooth="yes"/>
      <point x="330" y="0" type="line"/>
      <point x="418" y="0" type="line"/>
      <point x="474" y="318" type="line" smooth="yes"/>
      <point x="486" y="388"/>
      <point x="540" y="432"/>
      <point x="599" y="432" type="curve" smooth="yes"/>
      <point x="666" y="432"/>
      <point x="688" y="371"/>
      <point x="678" y="312" type="curve" smooth="yes"/>
      <point x="623" y="0" type="line"/>
      <point x="711" y="0" type="line"/>
      <point x="769" y="327" type="line" smooth="yes"/>
      <point x="785" y="419"/>
      <point x="733.97468" y="502.0"/>
      <point x="636" y="502" type="curve" smooth="yes"/>
      <point x="575" y="502"/>
      <point x="513" y="471"/>
      <point x="470" y="418" type="curve"/>
      <point x="452" y="468"/>
      <point x="408" y="501"/>
      <point x="346" y="501" type="curve" smooth="yes"/>
      <point x="294" y="501"/>
      <point x="242" y="477"/>
      <point x="201" y="436" type="curve"/>
      <point x="211" y="490" type="line"/>
      <point x="123" y="490" type="line"/>
    </contour>
  </outline>
</glyph>
<glyph name="q" format="2">
  <advance width="584"/>
  <unicode hex="0071"/>
  <outline>
    <contour>
      <point x="393" y="117" type="line"/>
      <point x="341" y="-180" type="line"/>
      <point x="429" y="-180" type="line"/>
      <point x="547" y="490" type="line"/>
      <point x="459" y="490" type="line"/>
      <point x="438" y="371" type="line"/>
      <point x="468" y="365" type="line"/>
      <point x="444" y="454"/>
      <point x="378" y="502"/>
      <point x="291" y="502" type="curve" smooth="yes"/>
      <point x="136" y="502"/>
      <point x="41" y="352"/>
      <point x="41" y="189" type="curve" smooth="yes"/>
      <point x="41" y="57"/>
      <point x="116" y="-12"/>
      <point x="217" y="-12" type="curve" smooth="yes"/>
      <point x="297" y="-12"/>
      <point x="372" y="31"/>
      <point x="424" y="112" type="curve"/>
    </contour>
    <contour>
      <point x="427" y="292" type="curve" smooth="yes"/>
      <point x="427" y="177"/>
      <point x="371" y="58"/>
      <point x="252" y="58" type="curve" smooth="yes"/>
      <point x="175" y="58"/>
      <point x="131" y="109"/>
      <point x="131" y="197" type="curve" smooth="yes"/>
      <point x="131" y="312"/>
      <point x="189" y="432"/>
      <point x="308" y="432" type="curve" smooth="yes"/>
      <point x="385" y="432"/>
      <point x="427" y="380"/>
    </contour>
  </outline>
</glyph>
<glyph name="w" format="2">
  <advance width="747"/>
  <unicode hex="0077"/>
  <outline>
    <contour>
      <point x="139" y="0" type="line"/>
      <point x="215" y="0" type="line"/>
      <point x="411" y="404" type="line"/>
      <point x="389" y="404" type="line"/>
      <point x="447" y="0" type="line"/>
      <point x="524" y="0" type="line"/>
      <point x="768" y="490" type="line"/>
      <point x="677" y="490" type="line"/>
      <point x="467" y="50" type="line"/>
      <point x="514" y="50" type="line"/>
      <point x="452" y="490" type="line"/>
      <point x="369" y="490" type="line"/>
      <point x="165" y="56" type="line"/>
      <point x="207" y="56" type="line"/>
      <point x="150" y="490" type="line"/>
      <point x="65" y="490" type="line"/>
    </contour>
  </outline>
</glyph>
<glyph name="bar" format="2">
  <advance width="243"/>
  <unicode hex="007C"/>
  <outline>
    <contour>
      <point x="168" y="745" type="line"/>
      <point x="16" y="-113" type="line"/>
      <point x="99" y="-113" type="line"/>
      <point x="251" y="745" type="line"/>
    </contour>
  </outline>
</glyph>
<glyph name="asciitilde" format="2">
  <advance width="535"/>
  <unicode hex="007E"/>
  <outline>
    <contour>
      <point x="344" y="245.0" type="curve" smooth="yes"/>
      <point x="406.0" y="245.0"/>
      <point x="464" y="303.0" name="inserted"/>
      <point x="488" y="391.0" type="curve"/>
      <point x="415" y="391.0" type="line"/>
      <point x="404" y="357.0"/>
      <point x="378" y="327.0" name="inserted"/>
      <point x="350" y="327.0" type="curve" smooth="yes"/>
      <point x="308.0" y="327.0"/>
      <point x="256" y="387.0" name="inserted"/>
      <point x="191" y="387.0" type="curve" smooth="yes"/>
      <point x="129.0" y="387.0"/>
      <point x="71" y="330.0" name="inserted"/>
      <point x="47" y="242.0" type="curve"/>
      <point x="120" y="242.0" type="line"/>
      <point x="131" y="276.0"/>
      <point x="157" y="305.0" name="inserted"/>
      <point x="185" y="305.0" type="curve" smooth="yes"/>
      <point x="227.0" y="305.0"/>
      <point x="279" y="245.0" name="inserted"/>
    </contour>
  </outline>
</glyph>
<glyph name="currency" format="2">
  <advance width="666"/>
  <unicode hex="00A4"/>
  <outline>
    <contour>
      <point x="210" y="323" type="curve" smooth="yes"/>
      <point x="210.0" y="402.0"/>
      <point x="271" y="484"/>
      <point x="363" y="484" type="curve" smooth="yes"/>
      <point x="434.0" y="484.0"/>
      <point x="480" y="436"/>
      <point x="480" y="367" type="curve" smooth="yes"/>
      <point x="480.0" y="288.0"/>
      <point x="419" y="206"/>
      <point x="327" y="206" type="curve" smooth="yes"/>
      <point x="256.0" y="206.0"/>
      <point x="210" y="254"/>
    </contour>
    <contour>
      <point x="213" y="451" type="line"/>
      <point x="271" y="498" type="line"/>
      <point x="187" y="604" type="line"/>
      <point x="129" y="557" type="line"/>
    </contour>
    <contour>
      <point x="317" y="135" type="curve" smooth="yes"/>
      <point x="457.0" y="135.0"/>
      <point x="556.0" y="255"/>
      <point x="556" y="375" type="curve" smooth="yes"/>
      <point x="556" y="477"/>
      <point x="479" y="555"/>
      <point x="373" y="555" type="curve" smooth="yes"/>
      <point x="233.0" y="555.0"/>
      <point x="134.0" y="435"/>
      <point x="134" y="315" type="curve" smooth="yes"/>
      <point x="134" y="213"/>
      <point x="211" y="135"/>
    </contour>
    <contour>
      <point x="503" y="86" type="line"/>
      <point x="561" y="133" type="line"/>
      <point x="477" y="239" type="line"/>
      <point x="419" y="192" type="line"/>
    </contour>
    <contour>
      <point x="471" y="494" type="line"/>
      <point x="515" y="439" type="line"/>
      <point x="635" y="537" type="line"/>
      <point x="591" y="592" type="line"/>
    </contour>
    <contour>
      <point x="55" y="153" type="line"/>
      <point x="99" y="98" type="line"/>
      <point x="219" y="196" type="line"/>
      <point x="175" y="251" type="line"/>
    </contour>
  </outline>
</glyph>
<glyph name="copyright" format="2">
  <advance width="828"/>
  <unicode hex="00A9"/>
  <outline>
    <contour>
      <point x="380" y="-12" type="curve" smooth="yes"/>
      <point x="609" y="-12"/>
      <point x="792.0" y="174"/>
      <point x="792" y="399" type="curve" smooth="yes"/>
      <point x="792" y="576"/>
      <point x="664" y="712"/>
      <point x="474" y="712" type="curve" smooth="yes"/>
      <point x="245" y="712"/>
      <point x="62.0" y="526"/>
      <point x="62" y="301" type="curve" smooth="yes"/>
      <point x="62" y="124"/>
      <point x="190" y="-12"/>
    </contour>
    <contour>
      <point x="402" y="147" type="curve" smooth="yes"/>
      <point x="488.0" y="147.0"/>
      <point x="559" y="195"/>
      <point x="589" y="266" type="curve"/>
      <point x="525" y="291" type="line"/>
      <point x="505" y="242"/>
      <point x="463" y="211"/>
      <point x="409" y="211" type="curve" smooth="yes"/>
      <point x="349.0" y="211.0"/>
      <point x="308.0" y="253"/>
      <point x="308" y="326" type="curve" smooth="yes"/>
      <point x="308.0" y="413.0"/>
      <point x="366" y="489"/>
      <point x="450" y="489" type="curve" smooth="yes"/>
      <point x="504" y="489"/>
      <point x="541" y="459"/>
      <point x="545" y="405" type="curve"/>
      <point x="612" y="420" type="line"/>
      <point x="606" y="497"/>
      <point x="548" y="553"/>
      <point x="456" y="553" type="curve" smooth="yes"/>
      <point x="327.0" y="553.0"/>
      <point x="232.0" y="450"/>
      <point x="232" y="321" type="curve" smooth="yes"/>
      <point x="232.0" y="215.0"/>
      <point x="301" y="147.0"/>
    </contour>
    <contour>
      <point x="386" y="38" type="curve" smooth="yes"/>
      <point x="226" y="38"/>
      <point x="116" y="147"/>
      <point x="116" y="301" type="curve" smooth="yes"/>
      <point x="116" y="489.0"/>
      <point x="266" y="662.0"/>
      <point x="468" y="662" type="curve" smooth="yes"/>
      <point x="628" y="662"/>
      <point x="738" y="553"/>
      <point x="738" y="399" type="curve" smooth="yes"/>
      <point x="738.0" y="211.0"/>
      <point x="588" y="38.0"/>
    </contour>
  </outline>
</glyph>
<glyph name="ordfeminine" format="2">
  <advance width="405"/>
  <unicode hex="00AA"/>
  <outline>
    <contour>
      <point x="259" y="712" type="curve" smooth="yes"/>
      <point x="150" y="712"/>
      <point x="101" y="654"/>
      <point x="87" y="595" type="curve"/>
      <point x="166" y="581" type="line"/>
      <point x="175" y="615"/>
      <point x="195" y="648"/>
      <point x="254" y="648" type="curve" smooth="yes"/>
      <point x="309" y="648"/>
      <point x="334" y="622"/>
      <point x="327" y="580" type="curve" smooth="yes"/>
      <point x="304" y="451" type="line" smooth="yes"/>
      <point x="296" y="405"/>
      <point x="239" y="364"/>
      <point x="180" y="364" type="curve" smooth="yes"/>
      <point x="150" y="364"/>
      <point x="119" y="377"/>
      <point x="119" y="411" type="curve" smooth="yes"/>
      <point x="119" y="454"/>
      <point x="147" y="479"/>
      <point x="201" y="483" type="curve" smooth="yes"/>
      <point x="336" y="495" type="line"/>
      <point x="346" y="553" type="line"/>
      <point x="197" y="541" type="line" smooth="yes"/>
      <point x="101" y="533"/>
      <point x="39" y="482"/>
      <point x="39" y="402" type="curve" smooth="yes"/>
      <point x="39" y="341"/>
      <point x="85" y="301"/>
      <point x="167" y="301" type="curve" smooth="yes"/>
      <point x="234" y="301"/>
      <point x="281" y="333"/>
      <point x="315" y="382" type="curve"/>
      <point x="293" y="387" type="line"/>
      <point x="283" y="319"/>
      <point x="324.73077" y="305.0"/>
      <point x="366" y="305" type="curve" smooth="yes"/>
      <point x="377" y="305"/>
      <point x="384" y="306"/>
      <point x="388" y="307" type="curve"/>
      <point x="399" y="370" type="line"/>
      <point x="397" y="370"/>
      <point x="394" y="370"/>
      <point x="391" y="370" type="curve" smooth="yes"/>
      <point x="372" y="370"/>
      <point x="368" y="381"/>
      <point x="371" y="398" type="curve" smooth="yes"/>
      <point x="403" y="581" type="line" smooth="yes"/>
      <point x="418" y="664"/>
      <point x="368.70149" y="712.0"/>
    </contour>
  </outline>
</glyph>
<glyph name="logicalnot" format="2">
  <advance width="645"/>
  <unicode hex="00AC"/>
  <outline>
    <contour>
      <point x="474" y="60" type="line"/>
      <point x="552" y="60" type="line"/>
      <point x="608" y="377" type="line"/>
      <point x="83" y="377" type="line"/>
      <point x="70" y="301" type="line"/>
      <point x="556" y="301" type="line"/>
      <point x="523" y="338" type="line"/>
    </contour>
  </outline>
</glyph>
<glyph name="registered" format="2">
  <advance width="546"/>
  <unicode hex="00AE"/>
  <outline>
    <contour>
      <point x="530" y="514" type="curve" smooth="yes"/>
      <point x="530" y="623"/>
      <point x="451" y="705"/>
      <point x="333" y="705" type="curve" smooth="yes"/>
      <point x="187" y="705"/>
      <point x="78" y="588"/>
      <point x="78" y="450" type="curve" smooth="yes"/>
      <point x="78" y="341"/>
      <point x="157" y="259"/>
      <point x="275" y="259" type="curve" smooth="yes"/>
      <point x="421" y="259"/>
      <point x="530" y="376"/>
    </contour>
    <contour>
      <point x="325" y="660" type="curve" smooth="yes"/>
      <point x="423" y="660"/>
      <point x="481" y="599"/>
      <point x="481" y="511" type="curve" smooth="yes"/>
      <point x="481" y="406"/>
      <point x="404" y="304"/>
      <point x="283" y="304" type="curve" smooth="yes"/>
      <point x="185" y="304"/>
      <point x="127" y="365"/>
      <point x="127" y="453" type="curve" smooth="yes"/>
      <point x="127" y="558"/>
      <point x="204" y="660"/>
    </contour>
    <contour>
      <point x="236" y="589" type="line"/>
      <point x="198" y="375" type="line"/>
      <point x="249" y="375" type="line"/>
      <point x="287" y="589" type="line"/>
    </contour>
    <contour>
      <point x="282" y="462" type="line"/>
      <point x="296" y="432"/>
      <point x="319" y="399"/>
      <point x="337" y="375" type="curve"/>
      <point x="393" y="375" type="line"/>
      <point x="393" y="377" type="line"/>
      <point x="377" y="400"/>
      <point x="350" y="433"/>
      <point x="337" y="462" type="curve"/>
    </contour>
    <contour>
      <point x="322" y="494" type="curve" smooth="yes"/>
      <point x="238" y="494" type="line"/>
      <point x="231" y="453" type="line"/>
      <point x="312" y="453" type="line" smooth="yes"/>
      <point x="379.0" y="453.0"/>
      <point x="408.0" y="486"/>
      <point x="408" y="528" type="curve" smooth="yes"/>
      <point x="408.0" y="564.0"/>
      <point x="385" y="589"/>
      <point x="337" y="589" type="curve" smooth="yes"/>
      <point x="256" y="589" type="line"/>
      <point x="248" y="546" type="line"/>
      <point x="331" y="546" type="line" smooth="yes"/>
      <point x="347" y="546"/>
      <point x="356" y="538"/>
      <point x="356" y="524" type="curve" smooth="yes"/>
      <point x="356.0" y="511.0"/>
      <point x="348.0" y="494.0"/>
    </contour>
  </outline>
</glyph>
<glyph name="plusminus" format="2">
  <advance width="576"/>
  <unicode hex="00B1"/>
  <outline>
    <contour>
      <point x="533" y="347.0" type="line"/>
      <point x="547" y="423.0" type="line"/>
      <point x="91" y="423.0" type="line"/>
      <point x="77" y="347.0" type="line"/>
    </contour>
    <contour>
      <point x="391" y="613.0" type="line"/>
      <point x="313" y="613.0" type="line"/>
      <point x="233" y="157.0" type="line"/>
      <point x="311" y="157.0" type="line"/>
    </contour>
    <contour>
      <point x="472" y="0.0" type="line"/>
      <point x="485" y="76.0" type="line"/>
      <point x="29" y="76.0" type="line"/>
      <point x="16" y="0.0" type="line"/>
    </contour>
  </outline>
</glyph>
<glyph name="paragraph" format="2">
  <advance width="675"/>
  <unicode hex="00B6"/>
  <outline>
    <contour>
      <point x="495" y="700" type="line"/>
      <point x="418" y="700" type="line"/>
      <point x="274" y="-113" type="line"/>
      <point x="351" y="-113" type="line"/>
    </contour>
    <contour>
      <point x="646" y="700" type="line"/>
      <point x="569" y="700" type="line"/>
      <point x="425" y="-113" type="line"/>
      <point x="502" y="-113" type="line"/>
    </contour>
    <contour>
      <point x="378" y="296" type="line"/>
      <point x="437" y="630" type="line"/>
      <point x="712" y="630" type="line"/>
      <point x="725" y="700" type="line"/>
      <point x="330" y="700" type="line" smooth="yes"/>
      <point x="173" y="700"/>
      <point x="80" y="589"/>
      <point x="80" y="468" type="curve" smooth="yes"/>
      <point x="80" y="364"/>
      <point x="149" y="296"/>
      <point x="261" y="296" type="curve" smooth="yes"/>
    </contour>
  </outline>
</glyph>
<glyph name="Icircumflex" format="2">
  <advance width="285"/>
  <unicode hex="00CE"/>
  <outline>
    <contour>
      <point x="213" y="892.0" type="line"/>
      <point x="86" y="771.0" type="line"/>
      <point x="163" y="771.0" type="line"/>
      <point x="275" y="855.0" type="line"/>
      <point x="233" y="855.0" type="line"/>
      <point x="315" y="771.0" type="line"/>
      <point x="386" y="771.0" type="line"/>
      <point x="303" y="892.0" type="line"/>
    </contour>
    <component base="I"/>
  </outline>
</glyph>
<glyph name="Idieresis" format="2">
  <advance width="285"/>
  <unicode hex="00CF"/>
  <outline>
    <contour>
      <point x="114" y="878.0" type="line"/>
      <point x="96" y="771.0" type="line"/>
      <point x="196" y="771.0" type="line"/>
      <point x="214" y="878.0" type="line"/>
    </contour>
    <contour>
      <point x="293" y="878.0" type="line"/>
      <point x="275" y="771.0" type="line"/>
      <point x="375" y="771.0" type="line"/>
      <point x="393" y="878.0" type="line"/>
    </contour>
    <component base="I"/>
  </outline>
</glyph>
<glyph name="Eth" format="2">
  <advance width="766"/>
  <unicode hex="00D0"/>
  <outline>
    <contour>
      <point x="53" y="0" type="line"/>
      <point x="144" y="0" type="line"/>
      <point x="268" y="700" type="line"/>
      <point x="177" y="700" type="line"/>
    </contour>
    <contour>
      <point x="101" y="82" type="line"/>
      <point x="86" y="0" type="line"/>
      <point x="341" y="0" type="line" smooth="yes"/>
      <point x="584" y="0"/>
      <point x="732" y="186"/>
      <point x="732" y="411" type="curve" smooth="yes"/>
      <point x="732" y="586"/>
      <point x="638" y="700"/>
      <point x="462" y="700" type="curve" smooth="yes"/>
      <point x="209" y="700" type="line"/>
      <point x="194" y="618" type="line"/>
      <point x="442" y="618" type="line" smooth="yes"/>
      <point x="572" y="618"/>
      <point x="640" y="544"/>
      <point x="640" y="406" type="curve" smooth="yes"/>
      <point x="640" y="232"/>
      <point x="536" y="82"/>
      <point x="351" y="82" type="curve" smooth="yes"/>
    </contour>
    <contour>
      <point x="29" y="317" type="line"/>
      <point x="382" y="317" type="line"/>
      <point x="396" y="398" type="line"/>
      <point x="43" y="398" type="line"/>
    </contour>
  </outline>
</glyph>
<glyph name="multiply" format="2">
  <advance width="576"/>
  <unicode hex="00D7"/>
  <outline>
    <contour>
      <point x="70" y="186.0" type="line"/>
      <point x="118" y="129.0" type="line"/>
      <point x="548" y="494.0" type="line"/>
      <point x="500" y="551.0" type="line"/>
    </contour>
    <contour>
      <point x="430" y="133.0" type="line"/>
      <point x="488" y="182.0" type="line"/>
      <point x="188" y="547.0" type="line"/>
      <point x="130" y="498.0" type="line"/>
    </contour>
  </outline>
</glyph>
<glyph name="Oslash" format="2">
  <advance width="786"/>
  <unicode hex="00D8"/>
  <outline>
    <contour>
      <point x="19" y="22" type="line"/>
      <point x="73" y="-32" type="line"/>
      <point x="794" y="679" type="line"/>
      <point x="740" y="733" type="line"/>
    </contour>
    <contour>
      <point x="659" y="406" type="curve" smooth="yes"/>
      <point x="659" y="235"/>
      <point x="545" y="69"/>
      <point x="367" y="69" type="curve" smooth="yes"/>
      <point x="238" y="69"/>
      <point x="155" y="157"/>
      <point x="155" y="295" type="curve" smooth="yes"/>
      <point x="155" y="465"/>
      <point x="269" y="631"/>
      <point x="447" y="631" type="curve" smooth="yes"/>
      <point x="576" y="631"/>
      <point x="659" y="543"/>
    </contour>
    <contour>
      <point x="62" y="289" type="curve" smooth="yes"/>
      <point x="62" y="109"/>
      <point x="180" y="-12"/>
      <point x="359" y="-12" type="curve" smooth="yes"/>
      <point x="597" y="-12"/>
      <point x="752" y="189"/>
      <point x="752" y="412" type="curve" smooth="yes"/>
      <point x="752" y="591"/>
      <point x="633" y="712"/>
      <point x="455" y="712" type="curve" smooth="yes"/>
      <point x="217" y="712"/>
      <point x="62" y="511"/>
    </contour>
  </outline>
</glyph>
<glyph name="Thorn" format="2">
  <advance width="650"/>
  <unicode hex="00DE"/>
  <outline>
    <contour>
      <point x="177" y="700" type="line"/>
      <point x="53" y="0" type="line"/>
      <point x="144" y="0" type="line"/>
      <point x="268" y="700" type="line"/>
    </contour>
    <contour>
      <point x="437" y="466" type="line" smooth="yes"/>
      <point x="507" y="466"/>
      <point x="547" y="438"/>
      <point x="547" y="373" type="curve" smooth="yes"/>
      <point x="547" y="304"/>
      <point x="503" y="244"/>
      <point x="397" y="244" type="curve" smooth="yes"/>
      <point x="137" y="244" type="line"/>
      <point x="123" y="163" type="line"/>
      <point x="393" y="163" type="line" smooth="yes"/>
      <point x="566" y="163"/>
      <point x="639" y="269"/>
      <point x="639" y="378" type="curve" smooth="yes"/>
      <point x="639" y="484"/>
      <point x="563" y="547"/>
      <point x="454" y="547" type="curve" smooth="yes"/>
      <point x="192" y="547" type="line"/>
      <point x="178" y="466" type="line"/>
    </contour>
  </outline>
</glyph>
<glyph name="icircumflex" format="2">
  <advance width="250"/>
  <unicode hex="00EE"/>
  <outline>
    <contour>
      <point x="161" y="700.0" type="line"/>
      <point x="41" y="570.0" type="line"/>
      <point x="114" y="570.0" type="line"/>
      <point x="224" y="671.0" type="line"/>
      <point x="182" y="671.0" type="line"/>
      <point x="256" y="570.0" type="line"/>
      <point x="323" y="570.0" type="line"/>
      <point x="249" y="700.0" type="line"/>
    </contour>
    <component base="dotlessi"/>
  </outline>
</glyph>
<glyph name="idieresis" format="2">
  <advance width="250"/>
  <unicode hex="00EF"/>
  <outline>
    <contour>
      <point x="71" y="700.0" type="line"/>
      <point x="53" y="597.0" type="line"/>
      <point x="149" y="597.0" type="line"/>
      <point x="167" y="700.0" type="line"/>
    </contour>
    <contour>
      <point x="244" y="700.0" type="line"/>
      <point x="226" y="597.0" type="line"/>
      <point x="322" y="597.0" type="line"/>
      <point x="340" y="700.0" type="line"/>
    </contour>
    <component base="dotlessi"/>
  </outline>
</glyph>
<glyph name="oslash" format="2">
  <advance width="566"/>
  <unicode hex="00F8"/>
  <outline>
    <contour>
      <point x="3" y="14" type="line"/>
      <point x="48" y="-32" type="line"/>
      <point x="563" y="476" type="line"/>
      <point x="518" y="522" type="line"/>
    </contour>
    <contour>
      <point x="248" y="-12" type="curve" smooth="yes"/>
      <point x="412" y="-12"/>
      <point x="525" y="127"/>
      <point x="525" y="291" type="curve" smooth="yes"/>
      <point x="525" y="422"/>
      <point x="438" y="502"/>
      <point x="318" y="502" type="curve" smooth="yes"/>
      <point x="154" y="502"/>
      <point x="41" y="363"/>
      <point x="41" y="200" type="curve" smooth="yes"/>
      <point x="41" y="68"/>
      <point x="128" y="-12"/>
    </contour>
    <contour>
      <point x="310" y="432" type="curve" smooth="yes"/>
      <point x="390" y="432"/>
      <point x="436" y="379"/>
      <point x="436" y="288" type="curve" smooth="yes"/>
      <point x="436" y="180"/>
      <point x="375" y="58"/>
      <point x="256" y="58" type="curve" smooth="yes"/>
      <point x="177" y="58"/>
      <point x="130" y="111"/>
      <point x="130" y="203" type="curve" smooth="yes"/>
      <point x="130" y="309"/>
      <point x="191" y="432"/>
    </contour>
  </outline>
</glyph>
<glyph name="thorn" format="2">
  <advance width="584"/>
  <unicode hex="00FE"/>
  <outline>
    <contour>
      <point x="543" y="299" type="curve" smooth="yes"/>
      <point x="543" y="433"/>
      <point x="467" y="502"/>
      <point x="367" y="502" type="curve" smooth="yes"/>
      <point x="283" y="502"/>
      <point x="212" y="459"/>
      <point x="160" y="377" type="curve"/>
      <point x="191" y="371" type="line"/>
      <point x="248" y="700" type="line"/>
      <point x="160" y="700" type="line"/>
      <point x="5" y="-180" type="line"/>
      <point x="93" y="-180" type="line"/>
      <point x="146" y="117" type="line"/>
      <point x="117" y="123" type="line"/>
      <point x="142" y="35"/>
      <point x="206" y="-12"/>
      <point x="295" y="-12" type="curve" smooth="yes"/>
      <point x="454" y="-12"/>
      <point x="543" y="145"/>
    </contour>
    <contour>
      <point x="453" y="290" type="curve" smooth="yes"/>
      <point x="453" y="177"/>
      <point x="395" y="58"/>
      <point x="278" y="58" type="curve" smooth="yes"/>
      <point x="202" y="58"/>
      <point x="157" y="108"/>
      <point x="157" y="199" type="curve" smooth="yes"/>
      <point x="157" y="312"/>
      <point x="215" y="432"/>
      <point x="332" y="432" type="curve" smooth="yes"/>
      <point x="408" y="432"/>
      <point x="453" y="381"/>
    </contour>
  </outline>
</glyph>
<glyph name="aogonek" format="2">
  <advance width="535"/>
  <unicode hex="0105"/>
  <outline>
    <contour>
      <point x="364" y="-201" type="curve"/>
      <point x="381" y="-201"/>
      <point x="409" y="-199"/>
      <point x="433" y="-193" type="curve"/>
      <point x="444" y="-133" type="line"/>
      <point x="426" y="-135"/>
      <point x="410" y="-138"/>
      <point x="392" y="-138" type="curve" smooth="yes"/>
      <point x="365" y="-138"/>
      <point x="347" y="-131"/>
      <point x="347" y="-110" type="curve" smooth="yes"/>
      <point x="347" y="-74"/>
      <point x="398" y="-35"/>
      <point x="452" y="-8" type="curve"/>
      <point x="382" y="-1" type="line"/>
      <point x="321" y="-30"/>
      <point x="269" y="-67"/>
      <point x="269" y="-127" type="curve" smooth="yes"/>
      <point x="269" y="-169"/>
      <point x="294" y="-201"/>
    </contour>
    <component base="a"/>
  </outline>
</glyph>
<glyph name="dcroat" format="2">
  <advance width="584"/>
  <unicode hex="0111"/>
  <outline>
    <contour>
      <point x="325" y="554" type="line"/>
      <point x="633" y="554" type="line"/>
      <point x="644" y="619" type="line"/>
      <point x="336" y="619" type="line"/>
    </contour>
    <component base="d"/>
  </outline>
</glyph>
<glyph name="Hbar" format="2">
  <advance width="736"/>
  <unicode hex="0126"/>
  <outline>
    <contour>
      <point x="61" y="500" type="line"/>
      <point x="763" y="500" type="line"/>
      <point x="777" y="578" type="line"/>
      <point x="75" y="578" type="line"/>
    </contour>
    <contour>
      <point x="153" y="300" type="line"/>
      <point x="602" y="300" type="line"/>
      <point x="617" y="382" type="line"/>
      <point x="168" y="382" type="line"/>
    </contour>
    <contour>
      <point x="628" y="700" type="line"/>
      <point x="504" y="0" type="line"/>
      <point x="595" y="0" type="line"/>
      <point x="719" y="700" type="line"/>
    </contour>
    <contour>
      <point x="177" y="700" type="line"/>
      <point x="53" y="0" type="line"/>
      <point x="144" y="0" type="line"/>
      <point x="268" y="700" type="line"/>
    </contour>
  </outline>
</glyph>
<glyph name="hbar" format="2">
  <advance width="556"/>
  <unicode hex="0127"/>
  <outline>
    <contour>
      <point x="367" y="554" type="line"/>
      <point x="378" y="619" type="line"/>
      <point x="70" y="619" type="line"/>
      <point x="59" y="554" type="line"/>
    </contour>
    <component base="h"/>
  </outline>
</glyph>
<glyph name="Itilde" format="2">
  <advance width="285"/>
  <unicode hex="0128"/>
  <outline>
    <contour>
      <point x="199" y="877.0" type="curve" smooth="yes"/>
      <point x="152.0" y="877.0"/>
      <point x="120" y="836.0"/>
      <point x="106" y="771.0" type="curve"/>
      <point x="163" y="771.0" type="line"/>
      <point x="171" y="799.0"/>
      <point x="178" y="811.0"/>
      <point x="193" y="811.0" type="curve" smooth="yes"/>
      <point x="218.0" y="811.0"/>
      <point x="254" y="780.0"/>
      <point x="294" y="780.0" type="curve" smooth="yes"/>
      <point x="341.0" y="780.0"/>
      <point x="372" y="820.0"/>
      <point x="386" y="885.0" type="curve"/>
      <point x="328" y="885.0" type="line"/>
      <point x="321" y="857.0"/>
      <point x="314" y="845.0"/>
      <point x="299" y="845.0" type="curve" smooth="yes"/>
      <point x="274.0" y="845.0"/>
      <point x="239" y="877.0"/>
    </contour>
    <component base="I"/>
  </outline>
</glyph>
<glyph name="itilde" format="2">
  <advance width="250"/>
  <unicode hex="0129"/>
  <outline>
    <contour>
      <point x="149" y="677.0" type="curve" smooth="yes"/>
      <point x="101" y="677.0"/>
      <point x="69" y="635.0"/>
      <point x="55" y="570.0" type="curve"/>
      <point x="113" y="570.0" type="line"/>
      <point x="121" y="598.0"/>
      <point x="128" y="611.0"/>
      <point x="144" y="611.0" type="curve" smooth="yes"/>
      <point x="169" y="611.0"/>
      <point x="199" y="580.0"/>
      <point x="236" y="580.0" type="curve" smooth="yes"/>
      <point x="284" y="580.0"/>
      <point x="315" y="621.0"/>
      <point x="329" y="686.0" type="curve"/>
      <point x="271" y="686.0" type="line"/>
      <point x="265" y="658.0"/>
      <point x="256" y="645.0"/>
      <point x="240" y="645.0" type="curve" smooth="yes"/>
      <point x="215" y="645.0"/>
      <point x="186" y="677.0"/>
    </contour>
    <component base="dotlessi"/>
  </outline>
</glyph>
<glyph name="Imacron" format="2">
  <advance width="285"/>
  <unicode hex="012A"/>
  <outline>
    <contour>
      <point x="114" y="776.0" type="line"/>
      <point x="358" y="776.0" type="line"/>
      <point x="371" y="845.0" type="line"/>
      <point x="127" y="845.0" type="line"/>
    </contour>
    <component base="I"/>
  </outline>
</glyph>
<glyph name="Ibreve" format="2">
  <advance width="285"/>
  <unicode hex="012C"/>
  <outline>
    <contour>
      <point x="127" y="892.0" type="line"/>
      <point x="115" y="822.0"/>
      <point x="154" y="761"/>
      <point x="239" y="761.0" type="curve" smooth="yes"/>
      <point x="328.0" y="761.0"/>
      <point x="375" y="822.0"/>
      <point x="387" y="892.0" type="curve"/>
      <point x="321" y="892.0" type="line"/>
      <point x="315" y="854.0"/>
      <point x="287" y="823.0"/>
      <point x="245" y="823.0" type="curve" smooth="yes"/>
      <point x="203" y="823.0"/>
      <point x="187" y="854.0"/>
      <point x="193" y="892.0" type="curve"/>
    </contour>
    <component base="I"/>
  </outline>
</glyph>
<glyph name="dotlessi" format="2">
  <advance width="250"/>
  <unicode hex="0131"/>
  <outline>
    <contour>
      <point x="50" y="69" type="line"/>
      <point x="38" y="0" type="line"/>
      <point x="126" y="0" type="line"/>
      <point x="138" y="69" type="line"/>
    </contour>
    <contour>
      <point x="124" y="490" type="line"/>
      <point x="112" y="421" type="line"/>
      <point x="200" y="421" type="line"/>
      <point x="212" y="490" type="line"/>
    </contour>
    <contour>
      <point x="124" y="490" type="line"/>
      <point x="38" y="0" type="line"/>
      <point x="126" y="0" type="line"/>
      <point x="212" y="490" type="line"/>
    </contour>
  </outline>
</glyph>
<glyph name="ij" format="2">
  <advance width="500"/>
  <unicode hex="0133"/>
  <outline>
    <contour>
      <point x="50" y="69" type="line"/>
      <point x="38" y="0" type="line"/>
      <point x="126" y="0" type="line"/>
      <point x="138" y="69" type="line"/>
    </contour>
    <contour>
      <point x="124" y="490" type="line"/>
      <point x="112" y="421" type="line"/>
      <point x="200" y="421" type="line"/>
      <point x="212" y="490" type="line"/>
    </contour>
    <contour>
      <point x="124" y="490" type="line"/>
      <point x="38" y="0" type="line"/>
      <point x="126" y="0" type="line"/>
      <point x="212" y="490" type="line"/>
    </contour>
    <contour>
      <point x="157" y="700" type="line"/>
      <point x="139" y="597" type="line"/>
      <point x="235" y="597" type="line"/>
      <point x="253" y="700" type="line"/>
    </contour>
    <contour>
      <point x="363" y="-73" type="curve" smooth="yes"/>
      <point x="462" y="490" type="line"/>
      <point x="374" y="490" type="line"/>
      <point x="276" y="-68" type="line" smooth="yes"/>
      <point x="270" y="-101"/>
      <point x="253" y="-113"/>
      <point x="220" y="-113" type="curve" smooth="yes"/>
      <point x="207" y="-113"/>
      <point x="195" y="-111"/>
      <point x="183" y="-107" type="curve"/>
      <point x="171" y="-178" type="line"/>
      <point x="184" y="-184"/>
      <point x="206" y="-189"/>
      <point x="232" y="-189" type="curve" smooth="yes"/>
      <point x="290" y="-189"/>
      <point x="347" y="-165"/>
    </contour>
    <contour>
      <point x="363" y="428" type="line"/>
      <point x="451" y="428" type="line"/>
      <point x="462" y="490" type="line"/>
      <point x="374" y="490" type="line"/>
    </contour>
    <contour>
      <point x="407" y="700" type="line"/>
      <point x="389" y="597" type="line"/>
      <point x="485" y="597" type="line"/>
      <point x="503" y="700" type="line"/>
    </contour>
  </outline>
</glyph>
<glyph name="jcircumflex" format="2">
  <advance width="250"/>
  <unicode hex="0135"/>
  <outline>
    <contour>
      <point x="161" y="700.0" type="line"/>
      <point x="41" y="570.0" type="line"/>
      <point x="114" y="570.0" type="line"/>
      <point x="224" y="671.0" type="line"/>
      <point x="176" y="671.0" type="line"/>
      <point x="250" y="570.0" type="line"/>
      <point x="323" y="570.0" type="line"/>
      <point x="249" y="700.0" type="line"/>
    </contour>
    <component base="dotlessj"/>
  </outline>
</glyph>
<glyph name="ldot" format="2">
  <advance width="347"/>
  <unicode hex="0140"/>
  <outline>
    <contour>
      <point x="282" y="433" type="line"/>
      <point x="261" y="317" type="line"/>
      <point x="360" y="317" type="line"/>
      <point x="381" y="433" type="line"/>
    </contour>
    <component base="l"/>
  </outline>
</glyph>
<glyph name="Lslash" format="2">
  <advance width="630"/>
  <unicode hex="0141"/>
  <outline>
    <contour>
      <point x="9" y="201" type="line"/>
      <point x="433" y="382" type="line"/>
      <point x="447" y="466" type="line"/>
      <point x="24" y="285" type="line"/>
    </contour>
    <component base="L"/>
  </outline>
</glyph>
<glyph name="lslash" format="2">
  <advance width="260"/>
  <unicode hex="0142"/>
  <outline>
    <contour>
      <point x="26" y="334" type="line"/>
      <point x="12" y="255" type="line"/>
      <point x="277" y="406" type="line"/>
      <point x="291" y="485" type="line"/>
    </contour>
    <component base="l" xOffset="5"/>
  </outline>
</glyph>
<glyph name="Eng" format="2">
  <advance width="774"/>
  <unicode hex="014A"/>
  <outline>
    <contour>
      <point x="353" y="-92" type="curve"/>
      <point x="339" y="-173" type="line"/>
      <point x="363" y="-185"/>
      <point x="400" y="-192"/>
      <point x="442" y="-192" type="curve" smooth="yes"/>
      <point x="555" y="-192"/>
      <point x="609" y="-138"/>
      <point x="625" y="-46" type="curve" smooth="yes"/>
      <point x="757" y="700" type="line"/>
      <point x="668" y="700" type="line"/>
      <point x="570" y="144" type="line"/>
      <point x="299" y="700" type="line"/>
      <point x="177" y="700" type="line"/>
      <point x="53" y="0" type="line"/>
      <point x="142" y="0" type="line"/>
      <point x="249" y="607" type="line"/>
      <point x="544" y="3" type="line"/>
      <point x="538" y="-35" type="line" smooth="yes"/>
      <point x="530" y="-83"/>
      <point x="508" y="-111"/>
      <point x="442" y="-111" type="curve" smooth="yes"/>
      <point x="403" y="-111"/>
      <point x="375" y="-102"/>
    </contour>
  </outline>
</glyph>
<glyph name="OE" format="2">
  <advance width="1211"/>
  <unicode hex="0152"/>
  <outline>
    <contour>
      <point x="62" y="289" type="curve" smooth="yes"/>
      <point x="62" y="109"/>
      <point x="180" y="-12"/>
      <point x="357" y="-12" type="curve" smooth="yes"/>
      <point x="462" y="-12"/>
      <point x="548" y="32"/>
      <point x="612" y="99" type="curve"/>
      <point x="594" y="0" type="line"/>
      <point x="1123" y="0" type="line"/>
      <point x="1138" y="82" type="line"/>
      <point x="700" y="82" type="line"/>
      <point x="741" y="315" type="line"/>
      <point x="1023" y="315" type="line"/>
      <point x="1037" y="396" type="line"/>
      <point x="755" y="396" type="line"/>
      <point x="794" y="618" type="line"/>
      <point x="1214" y="618" type="line"/>
      <point x="1229" y="700" type="line"/>
      <point x="718" y="700" type="line"/>
      <point x="696" y="578" type="line"/>
      <point x="651" y="661"/>
      <point x="566" y="712"/>
      <point x="453" y="712" type="curve" smooth="yes"/>
      <point x="217" y="712"/>
      <point x="62" y="511"/>
    </contour>
    <contour>
      <point x="659" y="406" type="curve" smooth="yes"/>
      <point x="659" y="235"/>
      <point x="545" y="69"/>
      <point x="367" y="69" type="curve" smooth="yes"/>
      <point x="238" y="69"/>
      <point x="155" y="157"/>
      <point x="155" y="295" type="curve" smooth="yes"/>
      <point x="155" y="465"/>
      <point x="269" y="631"/>
      <point x="447" y="631" type="curve" smooth="yes"/>
      <point x="576" y="631"/>
      <point x="659" y="543"/>
    </contour>
  </outline>
</glyph>
<glyph name="oe" format="2">
  <advance width="933"/>
  <unicode hex="0153"/>
  <outline>
    <contour>
      <point x="706" y="502" type="curve" smooth="yes"/>
      <point x="535" y="502"/>
      <point x="440" y="356"/>
      <point x="440" y="200" type="curve" smooth="yes"/>
      <point x="440" y="65"/>
      <point x="515" y="-12"/>
      <point x="638" y="-12" type="curve" smooth="yes"/>
      <point x="745" y="-12"/>
      <point x="825" y="44"/>
      <point x="869" y="134" type="curve"/>
      <point x="796" y="161" type="line"/>
      <point x="767" y="99"/>
      <point x="718" y="58"/>
      <point x="645" y="58" type="curve" smooth="yes"/>
      <point x="565" y="58"/>
      <point x="517" y="105"/>
      <point x="517" y="199" type="curve" smooth="yes"/>
      <point x="517" y="307"/>
      <point x="574" y="432"/>
      <point x="695" y="432" type="curve" smooth="yes"/>
      <point x="768" y="432"/>
      <point x="810" y="391"/>
      <point x="810" y="304" type="curve" smooth="yes"/>
      <point x="810" y="286"/>
      <point x="808" y="265"/>
      <point x="804" y="242" type="curve"/>
      <point x="834" y="292" type="line"/>
      <point x="491" y="292" type="line"/>
      <point x="480" y="226" type="line"/>
      <point x="885" y="226" type="line"/>
      <point x="887" y="241" type="line" smooth="yes"/>
      <point x="890" y="263"/>
      <point x="892" y="278"/>
      <point x="892" y="298" type="curve" smooth="yes"/>
      <point x="892" y="419"/>
      <point x="827" y="502"/>
    </contour>
    <contour>
      <point x="434" y="288" type="curve" smooth="yes"/>
      <point x="434" y="180"/>
      <point x="374" y="58"/>
      <point x="255" y="58" type="curve" smooth="yes"/>
      <point x="176" y="58"/>
      <point x="130" y="111"/>
      <point x="130" y="203" type="curve" smooth="yes"/>
      <point x="130" y="309"/>
      <point x="190" y="432"/>
      <point x="309" y="432" type="curve" smooth="yes"/>
      <point x="389" y="432"/>
      <point x="434" y="379"/>
    </contour>
    <contour>
      <point x="315" y="502" type="curve" smooth="yes"/>
      <point x="153" y="502"/>
      <point x="41" y="363"/>
      <point x="41" y="200" type="curve" smooth="yes"/>
      <point x="41" y="68"/>
      <point x="127" y="-12"/>
      <point x="246" y="-12" type="curve" smooth="yes"/>
      <point x="409" y="-12"/>
      <point x="512" y="126"/>
      <point x="512" y="290" type="curve" smooth="yes"/>
      <point x="512" y="421"/>
      <point x="434" y="502"/>
    </contour>
  </outline>
</glyph>
<glyph name="tbar" format="2">
  <advance width="363"/>
  <unicode hex="0167"/>
  <outline>
    <contour>
      <point x="27" y="252" type="line"/>
      <point x="314" y="252" type="line"/>
      <point x="326" y="320" type="line"/>
      <point x="39" y="320" type="line"/>
    </contour>
    <component base="t"/>
  </outline>
</glyph>
<glyph name="uogonek" format="2">
  <advance width="556"/>
  <unicode hex="0173"/>
  <outline>
    <contour>
      <point x="433" y="0" type="line"/>
      <point x="519" y="490" type="line"/>
      <point x="431" y="490" type="line"/>
      <point x="376" y="175" type="line" smooth="yes"/>
      <point x="363" y="102"/>
      <point x="308" y="59"/>
      <point x="242" y="59" type="curve" smooth="yes"/>
      <point x="178" y="59"/>
      <point x="152" y="98"/>
      <point x="152" y="147" type="curve" smooth="yes"/>
      <point x="152" y="157"/>
      <point x="153" y="167"/>
      <point x="155" y="177" type="curve" smooth="yes"/>
      <point x="210" y="490" type="line"/>
      <point x="122" y="490" type="line"/>
      <point x="66" y="168" type="line" smooth="yes"/>
      <point x="64" y="156"/>
      <point x="63" y="144"/>
      <point x="63" y="133" type="curve" smooth="yes"/>
      <point x="63" y="55"/>
      <point x="114" y="-12"/>
      <point x="206" y="-12" type="curve" smooth="yes"/>
      <point x="278" y="-12"/>
      <point x="343" y="29"/>
      <point x="385" y="92" type="curve"/>
      <point x="361" y="92" type="line"/>
      <point x="342" y="-16" type="line"/>
    </contour>
    <component base="ogonek" xOffset="108"/>
  </outline>
</glyph>
<glyph name="Khook" format="2">
  <advance width="686"/>
  <unicode hex="0198"/>
  <outline>
    <contour>
      <point x="177" y="700" type="line"/>
      <point x="53" y="0" type="line"/>
      <point x="144" y="0" type="line"/>
      <point x="268" y="700" type="line"/>
    </contour>
    <contour>
      <point x="258" y="355" type="line"/>
      <point x="518" y="0" type="line"/>
      <point x="627" y="0" type="line"/>
      <point x="321" y="416" type="line"/>
    </contour>
    <contour>
      <point x="605" y="601" type="line" smooth="yes"/>
      <point x="626" y="620"/>
      <point x="644" y="627"/>
      <point x="665" y="627" type="curve" smooth="yes"/>
      <point x="691" y="627"/>
      <point x="709" y="616"/>
      <point x="725" y="608" type="curve"/>
      <point x="742" y="690" type="line"/>
      <point x="725" y="701"/>
      <point x="697" y="712"/>
      <point x="667" y="712" type="curve" smooth="yes"/>
      <point x="622" y="712"/>
      <point x="587" y="693"/>
      <point x="553" y="662" type="curve" smooth="yes"/>
      <point x="149" y="293" type="line"/>
      <point x="138" y="183" type="line"/>
      <point x="308" y="336" type="line"/>
      <point x="337" y="360" type="line"/>
    </contour>
  </outline>
</glyph>
<glyph name="Nhookleft" format="2">
  <advance width="774"/>
  <unicode hex="019D"/>
  <outline>
    <contour>
      <point x="-86" y="-103" type="curve"/>
      <point x="-100" y="-182" type="line"/>
      <point x="-79" y="-189"/>
      <point x="-54" y="-192"/>
      <point x="-33" y="-192" type="curve" smooth="yes"/>
      <point x="49" y="-192"/>
      <point x="117" y="-150"/>
      <point x="132" y="-61" type="curve" smooth="yes"/>
      <point x="249" y="606" type="line"/>
      <point x="535" y="0" type="line"/>
      <point x="633" y="0" type="line"/>
      <point x="757" y="700" type="line"/>
      <point x="668" y="700" type="line"/>
      <point x="567" y="130" type="line"/>
      <point x="299" y="700" type="line"/>
      <point x="177" y="700" type="line"/>
      <point x="44" y="-51" type="line" smooth="yes"/>
      <point x="36" y="-96"/>
      <point x="3" y="-112"/>
      <point x="-37" y="-112" type="curve" smooth="yes"/>
      <point x="-51" y="-112"/>
      <point x="-68" y="-110"/>
    </contour>
  </outline>
</glyph>
<glyph name="Icaron" format="2">
  <advance width="285"/>
  <unicode hex="01CF"/>
  <outline>
    <contour>
      <point x="280" y="771.0" type="line"/>
      <point x="407" y="892.0" type="line"/>
      <point x="330" y="892.0" type="line"/>
      <point x="218" y="808.0" type="line"/>
      <point x="260" y="808.0" type="line"/>
      <point x="181" y="892.0" type="line"/>
      <point x="107" y="892.0" type="line"/>
      <point x="190" y="771.0" type="line"/>
    </contour>
    <component base="I"/>
  </outline>
</glyph>
<glyph name="Oogonek" format="2">
  <advance width="786"/>
  <unicode hex="01EA"/>
  <outline>
    <contour>
      <point x="752" y="412" type="curve" smooth="yes"/>
      <point x="752" y="591"/>
      <point x="633" y="712"/>
      <point x="455" y="712" type="curve" smooth="yes"/>
      <point x="217" y="712"/>
      <point x="62" y="511"/>
      <point x="62" y="289" type="curve" smooth="yes"/>
      <point x="62" y="116"/>
      <point x="171" y="-3"/>
      <point x="339" y="-11" type="curve"/>
      <point x="297" y="-37"/>
      <point x="258" y="-71"/>
      <point x="258" y="-123" type="curve" smooth="yes"/>
      <point x="258" y="-165"/>
      <point x="283" y="-197"/>
      <point x="353" y="-197" type="curve"/>
      <point x="370" y="-197"/>
      <point x="398" y="-195"/>
      <point x="422" y="-189" type="curve"/>
      <point x="433" y="-129" type="line"/>
      <point x="415" y="-131"/>
      <point x="399" y="-134"/>
      <point x="381" y="-134" type="curve" smooth="yes"/>
      <point x="354" y="-134"/>
      <point x="336" y="-127"/>
      <point x="336" y="-106" type="curve" smooth="yes"/>
      <point x="336" y="-70"/>
      <point x="388" y="-21"/>
      <point x="459" y="-1" type="curve" smooth="yes"/>
      <point x="641" y="52"/>
      <point x="752" y="220"/>
    </contour>
    <contour>
      <point x="367" y="69" type="curve" smooth="yes"/>
      <point x="238" y="69"/>
      <point x="155" y="157"/>
      <point x="155" y="295" type="curve" smooth="yes"/>
      <point x="155" y="465"/>
      <point x="269" y="631"/>
      <point x="447" y="631" type="curve" smooth="yes"/>
      <point x="576" y="631"/>
      <point x="659" y="543"/>
      <point x="659" y="406" type="curve" smooth="yes"/>
      <point x="659" y="235"/>
      <point x="545" y="69"/>
    </contour>
  </outline>
</glyph>
<glyph name="bhook" format="2">
  <advance width="584"/>
  <unicode hex="0253"/>
  <outline>
    <contour>
      <point x="278" y="58" type="curve" smooth="yes"/>
      <point x="202" y="58"/>
      <point x="157" y="108"/>
      <point x="157" y="199" type="curve" smooth="yes"/>
      <point x="157" y="312"/>
      <point x="215" y="432"/>
      <point x="332" y="432" type="curve" smooth="yes"/>
      <point x="408" y="432"/>
      <point x="453" y="381"/>
      <point x="453" y="290" type="curve" smooth="yes"/>
      <point x="453" y="177"/>
      <point x="395" y="58"/>
    </contour>
    <contour>
      <point x="227" y="577" type="line" smooth="yes"/>
      <point x="234" y="615"/>
      <point x="258" y="629"/>
      <point x="285" y="629" type="curve" smooth="yes"/>
      <point x="305" y="629"/>
      <point x="325" y="621"/>
      <point x="339" y="613" type="curve"/>
      <point x="355" y="686" type="line"/>
      <point x="340" y="696"/>
      <point x="315" y="706"/>
      <point x="281" y="706" type="curve" smooth="yes"/>
      <point x="206.0" y="706.0"/>
      <point x="153" y="657"/>
      <point x="141" y="587" type="curve" smooth="yes"/>
      <point x="37" y="0" type="line"/>
      <point x="125" y="0" type="line"/>
      <point x="146" y="117" type="line"/>
      <point x="117" y="123" type="line"/>
      <point x="142" y="35"/>
      <point x="206" y="-12"/>
      <point x="295" y="-12" type="curve" smooth="yes"/>
      <point x="454" y="-12"/>
      <point x="543" y="145"/>
      <point x="543" y="299" type="curve" smooth="yes"/>
      <point x="543" y="433"/>
      <point x="467" y="502"/>
      <point x="367" y="502" type="curve" smooth="yes"/>
      <point x="283" y="502"/>
      <point x="212" y="459"/>
      <point x="160" y="377" type="curve"/>
      <point x="191" y="371" type="line"/>
    </contour>
  </outline>
</glyph>
<glyph name="dhook" format="2">
  <advance width="584"/>
  <unicode hex="0257"/>
  <outline>
    <contour>
      <point x="563" y="581" type="line" smooth="yes"/>
      <point x="569" y="613"/>
      <point x="587" y="626"/>
      <point x="612" y="626" type="curve" smooth="yes"/>
      <point x="627" y="626"/>
      <point x="641" y="621"/>
      <point x="653" y="615" type="curve"/>
      <point x="669" y="688" type="line"/>
      <point x="656" y="695"/>
      <point x="634" y="704"/>
      <point x="605" y="704" type="curve" smooth="yes"/>
      <point x="534.0" y="704.0"/>
      <point x="488" y="654"/>
      <point x="477" y="591" type="curve" smooth="yes"/>
      <point x="438" y="371" type="line"/>
      <point x="468" y="365" type="line"/>
      <point x="444" y="454"/>
      <point x="378" y="502"/>
      <point x="291" y="502" type="curve" smooth="yes"/>
      <point x="136" y="502"/>
      <point x="41" y="352"/>
      <point x="41" y="189" type="curve" smooth="yes"/>
      <point x="41" y="57"/>
      <point x="116" y="-12"/>
      <point x="217" y="-12" type="curve" smooth="yes"/>
      <point x="297" y="-12"/>
      <point x="372" y="31"/>
      <point x="424" y="112" type="curve"/>
      <point x="393" y="117" type="line"/>
      <point x="372" y="0" type="line"/>
      <point x="460" y="0" type="line"/>
    </contour>
    <contour>
      <point x="131" y="197" type="curve" smooth="yes"/>
      <point x="131" y="312"/>
      <point x="189" y="432"/>
      <point x="308" y="432" type="curve" smooth="yes"/>
      <point x="385" y="432"/>
      <point x="427" y="380"/>
      <point x="427" y="292" type="curve" smooth="yes"/>
      <point x="427" y="177"/>
      <point x="371" y="58"/>
      <point x="252" y="58" type="curve" smooth="yes"/>
      <point x="175" y="58"/>
      <point x="131" y="109"/>
    </contour>
  </outline>
</glyph>
<glyph name="eopen" format="2">
  <advance width="513"/>
  <unicode hex="025B"/>
  <outline>
    <contour>
      <point x="457" y="144" type="curve"/>
      <point x="367" y="139" type="line"/>
      <point x="355" y="92"/>
      <point x="310" y="59"/>
      <point x="236" y="59" type="curve" smooth="yes"/>
      <point x="166" y="59"/>
      <point x="116" y="86"/>
      <point x="116" y="136" type="curve" smooth="yes"/>
      <point x="116" y="181"/>
      <point x="156" y="218"/>
      <point x="237" y="218" type="curve" smooth="yes"/>
      <point x="302" y="218" type="line"/>
      <point x="315" y="288" type="line"/>
      <point x="251" y="288" type="line" smooth="yes"/>
      <point x="199" y="288"/>
      <point x="166" y="307"/>
      <point x="166" y="346" type="curve" smooth="yes"/>
      <point x="166" y="391"/>
      <point x="207" y="431"/>
      <point x="287" y="431" type="curve" smooth="yes"/>
      <point x="358" y="431"/>
      <point x="399" y="402"/>
      <point x="399" y="357" type="curve" smooth="yes"/>
      <point x="399" y="353"/>
      <point x="399" y="349"/>
      <point x="398" y="344" type="curve"/>
      <point x="484" y="337" type="line"/>
      <point x="487" y="347"/>
      <point x="488" y="356"/>
      <point x="488" y="366" type="curve" smooth="yes"/>
      <point x="488" y="451"/>
      <point x="407" y="502"/>
      <point x="295" y="502" type="curve" smooth="yes"/>
      <point x="159" y="502"/>
      <point x="76" y="429"/>
      <point x="76" y="350" type="curve" smooth="yes"/>
      <point x="76" y="295"/>
      <point x="121" y="269"/>
      <point x="158" y="257" type="curve"/>
      <point x="159" y="262" type="line"/>
      <point x="88" y="251"/>
      <point x="23" y="202"/>
      <point x="23" y="129" type="curve" smooth="yes"/>
      <point x="23" y="39"/>
      <point x="117" y="-12"/>
      <point x="230" y="-12" type="curve" smooth="yes"/>
      <point x="347" y="-12"/>
      <point x="440" y="37"/>
    </contour>
  </outline>
</glyph>
<glyph name="nhookleft" format="2">
  <advance width="556"/>
  <unicode hex="0272"/>
  <outline>
    <contour>
      <point x="-77" y="-180" type="line"/>
      <point x="-67" y="-183"/>
      <point x="-49" y="-189"/>
      <point x="-22" y="-189" type="curve" smooth="yes"/>
      <point x="33" y="-189"/>
      <point x="96" y="-170"/>
      <point x="111" y="-82" type="curve" smooth="yes"/>
      <point x="180" y="315" type="line" smooth="yes"/>
      <point x="193" y="388"/>
      <point x="248" y="431"/>
      <point x="314" y="431" type="curve" smooth="yes"/>
      <point x="376" y="431"/>
      <point x="404" y="392"/>
      <point x="404" y="342" type="curve" smooth="yes"/>
      <point x="404" y="333"/>
      <point x="403" y="323"/>
      <point x="401" y="313" type="curve" smooth="yes"/>
      <point x="346" y="0" type="line"/>
      <point x="434" y="0" type="line"/>
      <point x="490" y="322" type="line" smooth="yes"/>
      <point x="492" y="334"/>
      <point x="493" y="345"/>
      <point x="493" y="356" type="curve" smooth="yes"/>
      <point x="493" y="434"/>
      <point x="442" y="502"/>
      <point x="351" y="502" type="curve" smooth="yes"/>
      <point x="295" y="502"/>
      <point x="242" y="477"/>
      <point x="202" y="436" type="curve"/>
      <point x="211" y="490" type="line"/>
      <point x="123" y="490" type="line"/>
      <point x="24" y="-74" type="line" smooth="yes"/>
      <point x="19" y="-104"/>
      <point x="1" y="-113"/>
      <point x="-31" y="-113" type="curve" smooth="yes"/>
      <point x="-46" y="-113"/>
      <point x="-54" y="-111"/>
      <point x="-65" y="-108" type="curve"/>
    </contour>
  </outline>
</glyph>
<glyph name="vturned" format="2">
  <advance width="540"/>
  <unicode hex="028C"/>
  <outline>
    <contour>
      <point x="361" y="490.0" type="line"/>
      <point x="265" y="490.0" type="line"/>
      <point x="-21" y="0.0" type="line"/>
      <point x="75" y="0.0" type="line"/>
      <point x="327" y="440.0" type="line"/>
      <point x="286" y="440.0" type="line"/>
      <point x="385" y="0.0" type="line"/>
      <point x="475" y="0.0" type="line"/>
    </contour>
  </outline>
</glyph>
<glyph name="ringhalfleftmod" format="2">
  <advance width="238"/>
  <unicode hex="02BF"/>
  <outline>
    <contour>
      <point x="255" y="629" type="curve" smooth="yes"/>
      <point x="274" y="629" type="line"/>
      <point x="287" y="700" type="line"/>
      <point x="272" y="700" type="line" smooth="yes"/>
      <point x="141" y="700"/>
      <point x="77" y="613"/>
      <point x="77" y="517" type="curve" smooth="yes"/>
      <point x="77" y="427"/>
      <point x="136" y="375"/>
      <point x="222" y="375" type="curve" smooth="yes"/>
      <point x="229" y="375" type="line"/>
      <point x="242" y="446" type="line"/>
      <point x="233" y="446" type="line" smooth="yes"/>
      <point x="183" y="446"/>
      <point x="154" y="478"/>
      <point x="154" y="524" type="curve" smooth="yes"/>
      <point x="154" y="580"/>
      <point x="197" y="629"/>
    </contour>
  </outline>
</glyph>
<glyph name="tildecmb" format="2">
  <advance width="600"/>
  <unicode hex="0303"/>
  <outline>
    <contour>
      <point x="321" y="677" type="curve" smooth="yes"/>
      <point x="272" y="677"/>
      <point x="241" y="635"/>
      <point x="227" y="570" type="curve"/>
      <point x="285" y="570" type="line"/>
      <point x="293" y="598"/>
      <point x="300" y="612"/>
      <point x="317" y="612" type="curve" smooth="yes"/>
      <point x="344" y="612"/>
      <point x="379" y="579"/>
      <point x="421" y="579" type="curve" smooth="yes"/>
      <point x="470" y="579"/>
      <point x="501" y="621"/>
      <point x="515" y="686" type="curve"/>
      <point x="456" y="686" type="line"/>
      <point x="449" y="658"/>
      <point x="442" y="644"/>
      <point x="425" y="644" type="curve" smooth="yes"/>
      <point x="398" y="644"/>
      <point x="363" y="677"/>
    </contour>
  </outline>
</glyph>
<glyph name="brevecmb" format="2">
  <advance width="600"/>
  <unicode hex="0306"/>
  <outline>
    <contour>
      <point x="248" y="700" type="line"/>
      <point x="236" y="626"/>
      <point x="279" y="565"/>
      <point x="367" y="565" type="curve" smooth="yes"/>
      <point x="456" y="565"/>
      <point x="506" y="626"/>
      <point x="518" y="700" type="curve"/>
      <point x="452" y="700" type="line"/>
      <point x="446" y="658"/>
      <point x="418" y="627"/>
      <point x="373" y="627" type="curve" smooth="yes"/>
      <point x="328" y="627"/>
      <point x="308" y="658"/>
      <point x="314" y="700" type="curve"/>
    </contour>
  </outline>
</glyph>
<glyph name="hookabovecmb" format="2">
  <advance width="600"/>
  <unicode hex="0309"/>
  <outline>
    <contour>
      <point x="441" y="674" type="curve" smooth="yes"/>
      <point x="441" y="718"/>
      <point x="413" y="751"/>
      <point x="363" y="751" type="curve" smooth="yes"/>
      <point x="324" y="751"/>
      <point x="287" y="730"/>
      <point x="264" y="698" type="curve"/>
      <point x="299" y="667" type="line"/>
      <point x="310" y="680"/>
      <point x="327" y="697"/>
      <point x="350" y="697" type="curve" smooth="yes"/>
      <point x="368" y="697"/>
      <point x="382" y="688"/>
      <point x="382" y="668" type="curve" smooth="yes"/>
      <point x="382" y="642"/>
      <point x="359" y="622"/>
      <point x="314" y="609" type="curve"/>
      <point x="341" y="568" type="line"/>
      <point x="389" y="578"/>
      <point x="441" y="616"/>
    </contour>
  </outline>
</glyph>
<glyph name="hungarumlautcmb" format="2">
  <advance width="600"/>
  <unicode hex="030B"/>
  <guideline x="266" y="570" angle="90" name="center" identifier="qqE52RWXT3"/>
  <outline>
    <contour>
      <point x="298" y="700" type="line"/>
      <point x="220" y="570" type="line"/>
      <point x="292" y="570" type="line"/>
      <point x="382" y="700" type="line"/>
    </contour>
    <contour>
      <point x="434" y="700" type="line"/>
      <point x="356" y="570" type="line"/>
      <point x="428" y="570" type="line"/>
      <point x="518" y="700" type="line"/>
    </contour>
  </outline>
</glyph>
<glyph name="dotbelowcmb" format="2">
  <advance width="600"/>
  <unicode hex="0323"/>
  <outline>
    <contour>
      <point x="196.0" y="-77.0" type="line"/>
      <point x="178.0" y="-180.0" type="line"/>
      <point x="274.0" y="-180.0" type="line"/>
      <point x="292.0" y="-77.0" type="line"/>
    </contour>
  </outline>
</glyph>
<glyph name="cedillacmb" format="2">
  <advance width="600"/>
  <unicode hex="0327"/>
  <outline>
    <contour>
      <point x="79" y="-203" type="line"/>
      <point x="103" y="-213"/>
      <point x="143" y="-222.0"/>
      <point x="186" y="-222" type="curve" smooth="yes"/>
      <point x="280.0" y="-222.0"/>
      <point x="331.0" y="-175"/>
      <point x="331" y="-121" type="curve" smooth="yes"/>
      <point x="331.0" y="-78.0"/>
      <point x="298" y="-51"/>
      <point x="237" y="-51" type="curve" smooth="yes"/>
      <point x="223.0" y="-51.0"/>
      <point x="202" y="-51"/>
      <point x="174" y="-62" type="curve"/>
      <point x="197" y="-80" type="line"/>
      <point x="275" y="8" type="line"/>
      <point x="213" y="8" type="line"/>
      <point x="134" y="-79" type="line"/>
      <point x="149" y="-111" type="line"/>
      <point x="166" y="-107"/>
      <point x="189" y="-106.0"/>
      <point x="204" y="-106" type="curve" smooth="yes"/>
      <point x="224" y="-106"/>
      <point x="256" y="-109"/>
      <point x="256" y="-131" type="curve" smooth="yes"/>
      <point x="256.0" y="-150.0"/>
      <point x="233" y="-164.0"/>
      <point x="187" y="-164" type="curve" smooth="yes"/>
      <point x="153.0" y="-164.0"/>
      <point x="121" y="-156"/>
      <point x="90" y="-144" type="curve"/>
    </contour>
  </outline>
</glyph>
<glyph name="ogonekcmb" format="2">
  <advance width="600"/>
  <unicode hex="0328"/>
  <outline>
    <contour>
      <point x="235" y="-197" type="curve" smooth="yes"/>
      <point x="252" y="-197"/>
      <point x="280.0" y="-195.0"/>
      <point x="304.0" y="-189.0" type="curve"/>
      <point x="315.0" y="-129.0" type="line"/>
      <point x="297.0" y="-131.0"/>
      <point x="281.0" y="-134.0"/>
      <point x="263.0" y="-134.0" type="curve" smooth="yes"/>
      <point x="236.0" y="-134.0"/>
      <point x="218.0" y="-127.0"/>
      <point x="218.0" y="-106.0" type="curve" smooth="yes"/>
      <point x="218.0" y="-70.0"/>
      <point x="269.0" y="-31.0"/>
      <point x="325.0" y="0.0" type="curve"/>
      <point x="241.0" y="0.0" type="line"/>
      <point x="192.0" y="-26.0"/>
      <point x="140.0" y="-63.0"/>
      <point x="140.0" y="-123.0" type="curve" smooth="yes"/>
      <point x="140.0" y="-165.0"/>
      <point x="165" y="-197"/>
    </contour>
  </outline>
</glyph>
<glyph name="lmacrondot" format="2">
  <advance width="250"/>
  <unicode hex="1E39"/>
  <outline>
    <contour>
      <point x="103" y="776.0" type="line"/>
      <point x="331" y="776.0" type="line"/>
      <point x="343" y="843.0" type="line"/>
      <point x="115" y="843.0" type="line"/>
    </contour>
    <component base="l"/>
    <component base="dotbelowcmb" xOffset="-175"/>
  </outline>
</glyph>
<glyph name="rlinebelow" format="2">
  <advance width="375"/>
  <unicode hex="1E5F"/>
  <outline>
    <contour>
      <point x="-61" y="-153.0" type="line"/>
      <point x="167" y="-153.0" type="line"/>
      <point x="179" y="-86.0" type="line"/>
      <point x="-49" y="-86.0" type="line"/>
    </contour>
    <component base="r"/>
  </outline>
</glyph>
<glyph name="Uhorngrave" format="2">
  <advance width="736"/>
  <unicode hex="1EEA"/>
  <outline>
    <contour>
      <point x="644" y="248" type="curve" smooth="yes"/>
      <point x="724" y="700" type="line"/>
      <point x="634" y="700" type="line"/>
      <point x="556" y="257" type="line" smooth="yes"/>
      <point x="536" y="141"/>
      <point x="465" y="71"/>
      <point x="348" y="71" type="curve" smooth="yes"/>
      <point x="243" y="71"/>
      <point x="183" y="128"/>
      <point x="183" y="223" type="curve" smooth="yes"/>
      <point x="183" y="238"/>
      <point x="184" y="253"/>
      <point x="187" y="270" type="curve" smooth="yes"/>
      <point x="263" y="700" type="line"/>
      <point x="172" y="700" type="line"/>
      <point x="95" y="267" type="line" smooth="yes"/>
      <point x="92" y="247"/>
      <point x="90" y="229"/>
      <point x="90" y="211" type="curve" smooth="yes"/>
      <point x="90" y="77"/>
      <point x="183" y="-12"/>
      <point x="340" y="-12" type="curve" smooth="yes"/>
      <point x="510" y="-12"/>
      <point x="615" y="84"/>
    </contour>
    <contour>
      <point x="787" y="791" type="line"/>
      <point x="787" y="786"/>
      <point x="787" y="781"/>
      <point x="787" y="776" type="curve" smooth="yes"/>
      <point x="787" y="724"/>
      <point x="777" y="700"/>
      <point x="730" y="700" type="curve" smooth="yes"/>
      <point x="636" y="700" type="line"/>
      <point x="625" y="638" type="line"/>
      <point x="731" y="638" type="line" smooth="yes"/>
      <point x="834" y="638"/>
      <point x="856" y="696"/>
      <point x="856" y="773" type="curve" smooth="yes"/>
      <point x="856" y="780"/>
      <point x="856" y="786"/>
      <point x="855" y="791" type="curve"/>
    </contour>
    <component base="gravecmb.uc" xOffset="38"/>
  </outline>
</glyph>
<glyph name="Uhornhoi" format="2">
  <advance width="736"/>
  <unicode hex="1EEC"/>
  <outline>
    <contour>
      <point x="644" y="248" type="curve" smooth="yes"/>
      <point x="724" y="700" type="line"/>
      <point x="634" y="700" type="line"/>
      <point x="556" y="257" type="line" smooth="yes"/>
      <point x="536" y="141"/>
      <point x="465" y="71"/>
      <point x="348" y="71" type="curve" smooth="yes"/>
      <point x="243" y="71"/>
      <point x="183" y="128"/>
      <point x="183" y="223" type="curve" smooth="yes"/>
      <point x="183" y="238"/>
      <point x="184" y="253"/>
      <point x="187" y="270" type="curve" smooth="yes"/>
      <point x="263" y="700" type="line"/>
      <point x="172" y="700" type="line"/>
      <point x="95" y="267" type="line" smooth="yes"/>
      <point x="92" y="247"/>
      <point x="90" y="229"/>
      <point x="90" y="211" type="curve" smooth="yes"/>
      <point x="90" y="77"/>
      <point x="183" y="-12"/>
      <point x="340" y="-12" type="curve" smooth="yes"/>
      <point x="510" y="-12"/>
      <point x="615" y="84"/>
    </contour>
    <contour>
      <point x="786" y="791" type="line"/>
      <point x="786" y="786"/>
      <point x="786" y="781"/>
      <point x="786" y="776" type="curve" smooth="yes"/>
      <point x="786" y="724"/>
      <point x="776" y="700"/>
      <point x="729" y="700" type="curve" smooth="yes"/>
      <point x="635" y="700" type="line"/>
      <point x="624" y="638" type="line"/>
      <point x="730" y="638" type="line" smooth="yes"/>
      <point x="833" y="638"/>
      <point x="855" y="696"/>
      <point x="855" y="773" type="curve" smooth="yes"/>
      <point x="855" y="780"/>
      <point x="855" y="786"/>
      <point x="854" y="791" type="curve"/>
    </contour>
    <component base="hookabovecmb.uc" xOffset="89"/>
  </outline>
</glyph>
<glyph name="endash" format="2">
  <advance width="684"/>
  <unicode hex="2013"/>
  <outline>
    <contour>
      <point x="63" y="260" type="line"/>
      <point x="609" y="260" type="line"/>
      <point x="621" y="332" type="line"/>
      <point x="75" y="332" type="line"/>
    </contour>
  </outline>
</glyph>
<glyph name="emdash" format="2">
  <advance width="966"/>
  <unicode hex="2014"/>
  <outline>
    <contour>
      <point x="64" y="260" type="line"/>
      <point x="892" y="260" type="line"/>
      <point x="904" y="332" type="line"/>
      <point x="76" y="332" type="line"/>
    </contour>
  </outline>
</glyph>
<glyph name="quotedblleft" format="2">
  <advance width="439"/>
  <unicode hex="201C"/>
  <outline>
    <contour>
      <point x="393" y="442" type="line"/>
      <point x="415" y="566" type="line"/>
      <point x="363" y="566" type="line"/>
      <point x="366" y="582" type="line" smooth="yes"/>
      <point x="377" y="640"/>
      <point x="403" y="664"/>
      <point x="450" y="664" type="curve"/>
      <point x="459" y="712" type="line"/>
      <point x="359" y="712"/>
      <point x="325" y="647"/>
      <point x="313" y="582" type="curve" smooth="yes"/>
      <point x="288" y="442" type="line"/>
    </contour>
    <contour>
      <point x="219" y="442" type="line"/>
      <point x="241" y="566" type="line"/>
      <point x="189" y="566" type="line"/>
      <point x="192" y="582" type="line" smooth="yes"/>
      <point x="203" y="640"/>
      <point x="229" y="664"/>
      <point x="276" y="664" type="curve"/>
      <point x="285" y="712" type="line"/>
      <point x="185" y="712"/>
      <point x="151" y="647"/>
      <point x="139" y="582" type="curve" smooth="yes"/>
      <point x="114" y="442" type="line"/>
    </contour>
  </outline>
</glyph>
<glyph name="quotedblright" format="2">
  <advance width="439"/>
  <unicode hex="201D"/>
  <outline>
    <contour>
      <point x="160" y="700" type="line"/>
      <point x="138" y="576" type="line"/>
      <point x="190" y="576" type="line"/>
      <point x="187" y="560" type="line" smooth="yes"/>
      <point x="176" y="502"/>
      <point x="150" y="478"/>
      <point x="103" y="478" type="curve"/>
      <point x="94" y="430" type="line"/>
      <point x="194" y="430"/>
      <point x="228" y="495"/>
      <point x="240" y="560" type="curve" smooth="yes"/>
      <point x="265" y="700" type="line"/>
    </contour>
    <contour>
      <point x="334" y="700" type="line"/>
      <point x="312" y="576" type="line"/>
      <point x="364" y="576" type="line"/>
      <point x="361" y="560" type="line" smooth="yes"/>
      <point x="350" y="502"/>
      <point x="324" y="478"/>
      <point x="277" y="478" type="curve"/>
      <point x="268" y="430" type="line"/>
      <point x="368" y="430"/>
      <point x="402" y="495"/>
      <point x="414" y="560" type="curve" smooth="yes"/>
      <point x="439" y="700" type="line"/>
    </contour>
  </outline>
</glyph>
<glyph name="quotedblbase" format="2">
  <advance width="439"/>
  <unicode hex="201E"/>
  <outline>
    <contour>
      <point x="160" y="124" type="line"/>
      <point x="138" y="0" type="line"/>
      <point x="190" y="0" type="line"/>
      <point x="187" y="-16" type="line" smooth="yes"/>
      <point x="176" y="-74"/>
      <point x="150" y="-98"/>
      <point x="103" y="-98" type="curve"/>
      <point x="94" y="-146" type="line"/>
      <point x="194" y="-146"/>
      <point x="228" y="-81"/>
      <point x="240" y="-16" type="curve" smooth="yes"/>
      <point x="265" y="124" type="line"/>
    </contour>
    <contour>
      <point x="334" y="124" type="line"/>
      <point x="312" y="0" type="line"/>
      <point x="364" y="0" type="line"/>
      <point x="361" y="-16" type="line" smooth="yes"/>
      <point x="350" y="-74"/>
      <point x="324" y="-98"/>
      <point x="277" y="-98" type="curve"/>
      <point x="268" y="-146" type="line"/>
      <point x="368" y="-146"/>
      <point x="402" y="-81"/>
      <point x="414" y="-16" type="curve" smooth="yes"/>
      <point x="439" y="124" type="line"/>
    </contour>
  </outline>
</glyph>
<glyph name="dagger" format="2">
  <advance width="342"/>
  <unicode hex="2020"/>
  <outline>
    <contour>
      <point x="134" y="290.0" type="line"/>
      <point x="206" y="290.0" type="line"/>
      <point x="278" y="700.0" type="line"/>
      <point x="206" y="700.0" type="line"/>
    </contour>
    <contour>
      <point x="87" y="591.0" type="line"/>
      <point x="75" y="524.0" type="line"/>
      <point x="347" y="524.0" type="line"/>
      <point x="359" y="591.0" type="line"/>
    </contour>
  </outline>
</glyph>
<glyph name="daggerdbl" format="2">
  <advance width="342"/>
  <unicode hex="2021"/>
  <outline>
    <contour>
      <point x="134" y="290.0" type="line"/>
      <point x="206" y="290.0" type="line"/>
      <point x="278" y="700.0" type="line"/>
      <point x="206" y="700.0" type="line"/>
    </contour>
    <contour>
      <point x="90" y="606.0" type="line"/>
      <point x="78" y="539.0" type="line"/>
      <point x="350" y="539.0" type="line"/>
      <point x="362" y="606.0" type="line"/>
    </contour>
    <contour>
      <point x="64" y="461.0" type="line"/>
      <point x="52" y="394.0" type="line"/>
      <point x="324" y="394.0" type="line"/>
      <point x="336" y="461.0" type="line"/>
    </contour>
  </outline>
</glyph>
<glyph name="ellipsis" format="2">
  <advance width="785"/>
  <unicode hex="2026"/>
  <outline>
    <contour>
      <point x="58" y="124" type="line"/>
      <point x="36" y="0" type="line"/>
      <point x="141" y="0" type="line"/>
      <point x="163" y="124" type="line"/>
    </contour>
    <contour>
      <point x="318" y="124" type="line"/>
      <point x="296" y="0" type="line"/>
      <point x="401" y="0" type="line"/>
      <point x="423" y="124" type="line"/>
    </contour>
    <contour>
      <point x="578" y="124" type="line"/>
      <point x="556" y="0" type="line"/>
      <point x="661" y="0" type="line"/>
      <point x="683" y="124" type="line"/>
    </contour>
  </outline>
</glyph>
<glyph name="second" format="2">
  <advance width="422"/>
  <unicode hex="2033"/>
  <outline>
    <contour>
      <point x="168" y="700" type="line"/>
      <point x="69" y="412" type="line"/>
      <point x="139" y="412" type="line"/>
      <point x="280" y="700" type="line"/>
    </contour>
    <contour>
      <point x="342" y="700" type="line"/>
      <point x="243" y="412" type="line"/>
      <point x="313" y="412" type="line"/>
      <point x="454" y="700" type="line"/>
    </contour>
  </outline>
</glyph>
<glyph name="guilsinglleft" format="2">
  <advance width="316"/>
  <unicode hex="2039"/>
  <outline>
    <contour>
      <point x="317" y="450" type="line"/>
      <point x="215" y="450" type="line"/>
      <point x="45" y="276" type="line"/>
      <point x="37" y="234" type="line"/>
      <point x="147" y="60" type="line"/>
      <point x="237" y="60" type="line"/>
      <point x="98" y="280" type="line"/>
      <point x="102" y="230" type="line"/>
    </contour>
  </outline>
</glyph>
<glyph name="interrobang" format="2">
  <advance width="489"/>
  <unicode hex="203D"/>
  <outline>
    <contour>
      <point x="367" y="698" type="line"/>
      <point x="268" y="702" type="line"/>
      <point x="197" y="227" type="line"/>
      <point x="260" y="227" type="line"/>
    </contour>
    <contour>
      <point x="206" y="227" type="line"/>
      <point x="276" y="227" type="line"/>
      <point x="278" y="236" type="line" smooth="yes"/>
      <point x="288" y="280"/>
      <point x="313" y="311"/>
      <point x="365" y="346" type="curve" smooth="yes"/>
      <point x="427" y="388"/>
      <point x="506" y="443"/>
      <point x="506" y="551" type="curve" smooth="yes"/>
      <point x="506" y="652"/>
      <point x="426" y="712"/>
      <point x="311" y="712" type="curve" smooth="yes"/>
      <point x="196" y="712"/>
      <point x="110" y="650"/>
      <point x="72" y="546" type="curve"/>
      <point x="154" y="521" type="line"/>
      <point x="179" y="589"/>
      <point x="224" y="635"/>
      <point x="302" y="635" type="curve" smooth="yes"/>
      <point x="368" y="635"/>
      <point x="415" y="603"/>
      <point x="415" y="542" type="curve" smooth="yes"/>
      <point x="415" y="493"/>
      <point x="385" y="453"/>
      <point x="325" y="405" type="curve" smooth="yes"/>
      <point x="257" y="351"/>
      <point x="221" y="321"/>
      <point x="209" y="246" type="curve" smooth="yes"/>
    </contour>
    <contour>
      <point x="144" y="0" type="line"/>
      <point x="249" y="0" type="line"/>
      <point x="271" y="124" type="line"/>
      <point x="166" y="124" type="line"/>
    </contour>
  </outline>
</glyph>
<glyph name="fraction" format="2">
  <advance width="126"/>
  <unicode hex="2044"/>
  <outline>
    <contour>
      <point x="-304" y="0.0" type="line"/>
      <point x="-215" y="0.0" type="line"/>
      <point x="430" y="700.0" type="line"/>
      <point x="341" y="700.0" type="line"/>
    </contour>
  </outline>
</glyph>
<glyph name="Euro" format="2">
  <advance width="627"/>
  <unicode hex="20AC"/>
  <outline>
    <contour>
      <point x="429" y="712" type="curve" smooth="yes"/>
      <point x="224" y="712"/>
      <point x="113" y="478"/>
      <point x="113" y="250" type="curve" smooth="yes"/>
      <point x="113" y="86"/>
      <point x="188" y="-12"/>
      <point x="318" y="-12" type="curve" smooth="yes"/>
      <point x="446" y="-12"/>
      <point x="525" y="75"/>
      <point x="571" y="207" type="curve"/>
      <point x="494" y="225" type="line"/>
      <point x="464" y="138"/>
      <point x="414" y="62"/>
      <point x="329" y="62" type="curve" smooth="yes"/>
      <point x="248" y="62"/>
      <point x="202" y="130"/>
      <point x="202" y="247" type="curve" smooth="yes"/>
      <point x="202" y="421"/>
      <point x="274" y="634"/>
      <point x="419" y="634" type="curve" smooth="yes"/>
      <point x="506" y="634"/>
      <point x="536" y="557"/>
      <point x="536" y="463" type="curve"/>
      <point x="616" y="477" type="line"/>
      <point x="614" y="615"/>
      <point x="553" y="712"/>
    </contour>
    <contour>
      <point x="65" y="388" type="line"/>
      <point x="398" y="388" type="line"/>
      <point x="425" y="458" type="line"/>
      <point x="77" y="458" type="line"/>
    </contour>
    <contour>
      <point x="40" y="248" type="line"/>
      <point x="343" y="248" type="line"/>
      <point x="370" y="318" type="line"/>
      <point x="52" y="318" type="line"/>
    </contour>
  </outline>
</glyph>
<glyph name="guarani" format="2">
  <advance width="598"/>
  <unicode hex="20B2"/>
  <outline>
    <contour>
      <point x="184" y="-112" type="line"/>
      <point x="251" y="-112" type="line"/>
      <point x="411" y="797" type="line"/>
      <point x="344" y="797" type="line"/>
    </contour>
    <contour>
      <point x="416" y="144" type="line"/>
      <point x="391" y="0" type="line"/>
      <point x="464" y="0" type="line"/>
      <point x="528" y="367" type="line"/>
      <point x="378" y="367" type="line"/>
      <point x="366" y="295" type="line"/>
      <point x="487" y="295" type="line"/>
      <point x="449" y="311" type="line"/>
      <point x="444" y="285" type="line" smooth="yes"/>
      <point x="420" y="164"/>
      <point x="358" y="63"/>
      <point x="263" y="63" type="curve" smooth="yes"/>
      <point x="182" y="63"/>
      <point x="137" y="133"/>
      <point x="137" y="250" type="curve" smooth="yes"/>
      <point x="137" y="422"/>
      <point x="213" y="635"/>
      <point x="356" y="635" type="curve" smooth="yes"/>
      <point x="441" y="635"/>
      <point x="469" y="564"/>
      <point x="469" y="479" type="curve"/>
      <point x="551" y="491" type="line"/>
      <point x="550" y="615"/>
      <point x="488" y="712"/>
      <point x="365" y="712" type="curve" smooth="yes"/>
      <point x="157" y="712"/>
      <point x="47" y="468"/>
      <point x="47" y="250" type="curve" smooth="yes"/>
      <point x="47" y="86"/>
      <point x="118" y="-12"/>
      <point x="246" y="-12" type="curve" smooth="yes"/>
      <point x="339" y="-12"/>
      <point x="405" y="47"/>
      <point x="435" y="138" type="curve"/>
    </contour>
  </outline>
</glyph>
<glyph name="cedi" format="2">
  <advance width="577"/>
  <unicode hex="20B5"/>
  <outline>
    <contour>
      <point x="567" y="478" type="line"/>
      <point x="565" y="616"/>
      <point x="506" y="712"/>
      <point x="379" y="712" type="curve" smooth="yes"/>
      <point x="177" y="712"/>
      <point x="63" y="471"/>
      <point x="63" y="253" type="curve" smooth="yes"/>
      <point x="63" y="88"/>
      <point x="141" y="-12"/>
      <point x="270" y="-12" type="curve" smooth="yes"/>
      <point x="397" y="-12"/>
      <point x="475" y="77"/>
      <point x="522" y="208" type="curve"/>
      <point x="445" y="227" type="line"/>
      <point x="415" y="139"/>
      <point x="363" y="63"/>
      <point x="278" y="63" type="curve" smooth="yes"/>
      <point x="197" y="63"/>
      <point x="152" y="131"/>
      <point x="152" y="248" type="curve" smooth="yes"/>
      <point x="152" y="421"/>
      <point x="226" y="635"/>
      <point x="369" y="635" type="curve" smooth="yes"/>
      <point x="457" y="635"/>
      <point x="488" y="561"/>
      <point x="487" y="465" type="curve"/>
    </contour>
    <contour>
      <point x="204" y="-112" type="line"/>
      <point x="272" y="-112" type="line"/>
      <point x="432" y="797" type="line"/>
      <point x="364" y="797" type="line"/>
    </contour>
  </outline>
</glyph>
<glyph name="turkishlira" format="2">
  <advance width="614"/>
  <unicode hex="20BA"/>
  <outline>
    <contour>
      <point x="53" y="286" type="line"/>
      <point x="431" y="468" type="line"/>
      <point x="446" y="549" type="line"/>
      <point x="67" y="367" type="line"/>
    </contour>
    <contour>
      <point x="26" y="136" type="line"/>
      <point x="404" y="318" type="line"/>
      <point x="418" y="398" type="line"/>
      <point x="40" y="216" type="line"/>
    </contour>
    <contour>
      <point x="199" y="700" type="line"/>
      <point x="75" y="0" type="line"/>
      <point x="161" y="0" type="line"/>
      <point x="285" y="700" type="line"/>
    </contour>
    <contour>
      <point x="110" y="0" type="line"/>
      <point x="269" y="0" type="line" smooth="yes"/>
      <point x="429" y="0"/>
      <point x="521" y="82"/>
      <point x="567" y="224" type="curve"/>
      <point x="495" y="245" type="line"/>
      <point x="455" y="120"/>
      <point x="382" y="77"/>
      <point x="280" y="77" type="curve" smooth="yes"/>
      <point x="124" y="77" type="line"/>
    </contour>
  </outline>
</glyph>
<glyph name="bitcoin" format="2">
  <advance width="614"/>
  <unicode hex="20BF"/>
  <outline>
    <contour>
      <point x="170" y="700" type="line"/>
      <point x="47" y="0" type="line"/>
      <point x="135" y="0" type="line"/>
      <point x="258" y="700" type="line"/>
    </contour>
    <contour>
      <point x="286" y="668" type="line"/>
      <point x="351" y="668" type="line"/>
      <point x="374" y="797" type="line"/>
      <point x="309" y="797" type="line"/>
    </contour>
    <contour>
      <point x="393" y="668" type="line"/>
      <point x="458" y="668" type="line"/>
      <point x="481" y="797" type="line"/>
      <point x="416" y="797" type="line"/>
    </contour>
    <contour>
      <point x="149" y="-112" type="line"/>
      <point x="214" y="-112" type="line"/>
      <point x="237" y="17" type="line"/>
      <point x="172" y="17" type="line"/>
    </contour>
    <contour>
      <point x="256" y="-112" type="line"/>
      <point x="321" y="-112" type="line"/>
      <point x="344" y="17" type="line"/>
      <point x="279" y="17" type="line"/>
    </contour>
    <contour>
      <point x="303" y="0" type="line" smooth="yes"/>
      <point x="461" y="0"/>
      <point x="553" y="114"/>
      <point x="553" y="225" type="curve" smooth="yes"/>
      <point x="553" y="302"/>
      <point x="507" y="348"/>
      <point x="457" y="371" type="curve"/>
      <point x="453" y="353" type="line"/>
      <point x="531" y="373"/>
      <point x="594" y="450"/>
      <point x="594" y="544" type="curve" smooth="yes"/>
      <point x="594" y="636"/>
      <point x="531" y="700"/>
      <point x="426" y="700" type="curve" smooth="yes"/>
      <point x="204" y="700" type="line"/>
      <point x="190" y="621" type="line"/>
      <point x="405" y="621" type="line" smooth="yes"/>
      <point x="470" y="621"/>
      <point x="507" y="584"/>
      <point x="507" y="529" type="curve" smooth="yes"/>
      <point x="507" y="472"/>
      <point x="466" y="398"/>
      <point x="370" y="398" type="curve" smooth="yes"/>
      <point x="150" y="398" type="line"/>
      <point x="136" y="320" type="line"/>
      <point x="353" y="320" type="line" smooth="yes"/>
      <point x="416" y="320"/>
      <point x="462" y="284"/>
      <point x="462" y="219" type="curve" smooth="yes"/>
      <point x="462" y="148"/>
      <point x="409" y="79"/>
      <point x="311" y="79" type="curve" smooth="yes"/>
      <point x="95" y="79" type="line"/>
      <point x="81" y="0" type="line"/>
    </contour>
  </outline>
</glyph>
<glyph name="onetenth" format="2">
  <advance width="1025"/>
  <unicode hex="2152"/>
  <outline>
    <contour>
      <point x="509" y="0" type="line"/>
      <point x="584" y="0" type="line"/>
      <point x="654" y="392" type="line"/>
      <point x="588" y="392" type="line"/>
      <point x="576" y="324"/>
      <point x="557" y="303"/>
      <point x="464" y="303" type="curve"/>
      <point x="454" y="249" type="line"/>
      <point x="598" y="249" type="line"/>
      <point x="561" y="293" type="line"/>
    </contour>
    <contour>
      <point x="790" y="-7" type="curve" smooth="yes"/>
      <point x="910" y="-7"/>
      <point x="973" y="126"/>
      <point x="973" y="248" type="curve" smooth="yes"/>
      <point x="973" y="341"/>
      <point x="928" y="397"/>
      <point x="852" y="397" type="curve" smooth="yes"/>
      <point x="732" y="397"/>
      <point x="669" y="264"/>
      <point x="669" y="142" type="curve" smooth="yes"/>
      <point x="669" y="49"/>
      <point x="714" y="-7"/>
    </contour>
    <contour>
      <point x="131" y="308" type="line"/>
      <point x="206" y="308" type="line"/>
      <point x="276" y="700" type="line"/>
      <point x="210" y="700" type="line"/>
      <point x="198" y="632"/>
      <point x="179" y="611"/>
      <point x="86" y="611" type="curve"/>
      <point x="76" y="557" type="line"/>
      <point x="220" y="557" type="line"/>
      <point x="183" y="601" type="line"/>
    </contour>
    <contour>
      <point x="-5" y="0" type="line"/>
      <point x="84" y="0" type="line"/>
      <point x="729" y="700" type="line"/>
      <point x="640" y="700" type="line"/>
    </contour>
    <contour>
      <point x="798" y="56" type="curve" smooth="yes"/>
      <point x="763" y="56"/>
      <point x="744" y="87"/>
      <point x="744" y="141" type="curve" smooth="yes"/>
      <point x="744" y="220"/>
      <point x="776" y="334"/>
      <point x="844" y="334" type="curve" smooth="yes"/>
      <point x="879" y="334"/>
      <point x="898" y="303"/>
      <point x="898" y="249" type="curve" smooth="yes"/>
      <point x="898" y="170"/>
      <point x="866" y="56"/>
    </contour>
  </outline>
</glyph>
<glyph name="arrowup" format="2">
  <advance width="682"/>
  <unicode hex="2191"/>
  <outline>
    <contour>
      <point x="120" y="352" type="line"/>
      <point x="361" y="593" type="line"/>
      <point x="602" y="352" type="line"/>
      <point x="662" y="412" type="line"/>
      <point x="361" y="712" type="line"/>
      <point x="60" y="412" type="line"/>
    </contour>
    <contour>
      <point x="318" y="0" type="line"/>
      <point x="404" y="0" type="line"/>
      <point x="404" y="630" type="line"/>
      <point x="318" y="630" type="line"/>
    </contour>
  </outline>
</glyph>
<glyph name="minus" format="2">
  <advance width="576"/>
  <unicode hex="2212"/>
  <outline>
    <contour>
      <point x="526" y="302.0" type="line"/>
      <point x="540" y="378.0" type="line"/>
      <point x="84" y="378.0" type="line"/>
      <point x="70" y="302.0" type="line"/>
    </contour>
  </outline>
</glyph>
<glyph name="notequal" format="2">
  <advance width="576"/>
  <unicode hex="2260"/>
  <outline>
    <contour>
      <point x="70" y="92.0" type="line"/>
      <point x="160" y="92.0" type="line"/>
      <point x="538" y="588.0" type="line"/>
      <point x="448" y="588.0" type="line"/>
    </contour>
    <component base="equal"/>
  </outline>
</glyph>
<glyph name="greaterequal" format="2">
  <advance width="576"/>
  <unicode hex="2265"/>
  <outline>
    <contour>
      <point x="16.0" y="0.0" type="line"/>
      <point x="30.0" y="76.0" type="line"/>
      <point x="486.0" y="76.0" type="line"/>
      <point x="472.0" y="0.0" type="line"/>
    </contour>
    <contour>
      <point x="533" y="342.0" type="line"/>
      <point x="548" y="428.0" type="line"/>
      <point x="125" y="619.0" type="line"/>
      <point x="111" y="538.0" type="line"/>
      <point x="476" y="374.0" type="line"/>
      <point x="481" y="403.0" type="line"/>
      <point x="58" y="239.0" type="line"/>
      <point x="43" y="151.0" type="line"/>
    </contour>
  </outline>
</glyph>
<glyph name="circlewhite" format="2">
  <advance width="828"/>
  <unicode hex="25CB"/>
  <outline>
    <contour>
      <point x="738" y="399" type="curve" smooth="yes"/>
      <point x="738" y="211"/>
      <point x="588" y="38"/>
      <point x="386" y="38" type="curve" smooth="yes"/>
      <point x="226" y="38"/>
      <point x="116" y="147"/>
      <point x="116" y="301" type="curve" smooth="yes"/>
      <point x="116" y="489"/>
      <point x="266" y="662"/>
      <point x="468" y="662" type="curve" smooth="yes"/>
      <point x="628" y="662"/>
      <point x="738" y="553"/>
    </contour>
    <contour>
      <point x="62" y="301" type="curve" smooth="yes"/>
      <point x="62" y="124"/>
      <point x="190" y="-12"/>
      <point x="380" y="-12" type="curve" smooth="yes"/>
      <point x="609" y="-12"/>
      <point x="792" y="174"/>
      <point x="792" y="399" type="curve" smooth="yes"/>
      <point x="792" y="576"/>
      <point x="664" y="712"/>
      <point x="474" y="712" type="curve" smooth="yes"/>
      <point x="245" y="712"/>
      <point x="62" y="526"/>
    </contour>
  </outline>
</glyph>
<glyph name="circleblack" format="2">
  <advance width="828"/>
  <unicode hex="25CF"/>
  <outline>
    <contour>
      <point x="62" y="301" type="curve" smooth="yes"/>
      <point x="62" y="124"/>
      <point x="190" y="-12"/>
      <point x="380" y="-12" type="curve" smooth="yes"/>
      <point x="609" y="-12"/>
      <point x="792" y="174"/>
      <point x="792" y="399" type="curve" smooth="yes"/>
      <point x="792" y="576"/>
      <point x="664" y="712"/>
      <point x="474" y="712" type="curve" smooth="yes"/>
      <point x="245" y="712"/>
      <point x="62" y="526"/>
    </contour>
  </outline>
</glyph>
<glyph name="onesanscircled" format="2">
  <advance width="828"/>
  <unicode hex="2780"/>
  <outline>
    <contour>
      <point x="446" y="546" type="line"/>
      <point x="434" y="478"/>
      <point x="415" y="457"/>
      <point x="322" y="457" type="curve"/>
      <point x="312" y="403" type="line"/>
      <point x="411" y="403" type="line"/>
      <point x="367" y="154" type="line"/>
      <point x="442" y="154" type="line"/>
      <point x="512" y="546" type="line"/>
    </contour>
    <component base="circlewhite"/>
  </outline>
</glyph>
<glyph name="twosanscircled" format="2">
  <advance width="828"/>
  <unicode hex="2781"/>
  <outline>
    <contour>
      <point x="267" y="215" type="curve"/>
      <point x="256" y="154" type="line"/>
      <point x="527" y="154" type="line"/>
      <point x="538" y="218" type="line"/>
      <point x="367" y="218" type="line"/>
      <point x="501" y="308"/>
      <point x="574" y="359"/>
      <point x="574" y="444" type="curve" smooth="yes"/>
      <point x="574" y="499"/>
      <point x="541" y="552"/>
      <point x="451" y="552" type="curve" smooth="yes"/>
      <point x="345" y="552"/>
      <point x="302" y="474"/>
      <point x="302" y="421" type="curve" smooth="yes"/>
      <point x="302" y="409"/>
      <point x="304" y="398"/>
      <point x="310" y="387" type="curve"/>
      <point x="378" y="394" type="line"/>
      <point x="374" y="403"/>
      <point x="372" y="412"/>
      <point x="372" y="420" type="curve" smooth="yes"/>
      <point x="372" y="443"/>
      <point x="390" y="489"/>
      <point x="443" y="489" type="curve" smooth="yes"/>
      <point x="478" y="489"/>
      <point x="499" y="468"/>
      <point x="499" y="434" type="curve" smooth="yes"/>
      <point x="499" y="373"/>
      <point x="436" y="339"/>
    </contour>
    <component base="circlewhite"/>
  </outline>
</glyph>
<glyph name="fivesanscircled" format="2">
  <advance width="828"/>
  <unicode hex="2784"/>
  <outline>
    <contour>
      <point x="557" y="312" type="curve" smooth="yes"/>
      <point x="557" y="377"/>
      <point x="522" y="419"/>
      <point x="457" y="419" type="curve" smooth="yes"/>
      <point x="427" y="419"/>
      <point x="402" y="409"/>
      <point x="382" y="395" type="curve"/>
      <point x="405" y="484" type="line"/>
      <point x="577" y="484" type="line"/>
      <point x="588" y="546" type="line"/>
      <point x="355" y="546" type="line"/>
      <point x="297" y="324" type="line"/>
      <point x="364" y="319" type="line"/>
      <point x="380" y="346"/>
      <point x="403" y="363"/>
      <point x="431" y="363" type="curve" smooth="yes"/>
      <point x="464" y="363"/>
      <point x="482" y="341"/>
      <point x="482" y="304" type="curve" smooth="yes"/>
      <point x="482" y="260"/>
      <point x="458" y="207"/>
      <point x="405" y="207" type="curve" smooth="yes"/>
      <point x="368" y="207"/>
      <point x="347" y="235"/>
      <point x="353" y="269" type="curve"/>
      <point x="273" y="279" type="line"/>
      <point x="272" y="273"/>
      <point x="271" y="266"/>
      <point x="271" y="259" type="curve" smooth="yes"/>
      <point x="271" y="190"/>
      <point x="322" y="148"/>
      <point x="400" y="148" type="curve" smooth="yes"/>
      <point x="495" y="148"/>
      <point x="557" y="222"/>
    </contour>
    <component base="circlewhite"/>
  </outline>
</glyph>
<glyph name="sevensanscircled" format="2">
  <advance width="828"/>
  <unicode hex="2786"/>
  <outline>
    <contour>
      <point x="329" y="546" type="line"/>
      <point x="304" y="404" type="line"/>
      <point x="375" y="404" type="line"/>
      <point x="389" y="484" type="line"/>
      <point x="524" y="484" type="line"/>
      <point x="434" y="381"/>
      <point x="344" y="270"/>
      <point x="318" y="154" type="curve"/>
      <point x="396" y="154" type="line"/>
      <point x="429" y="284"/>
      <point x="528" y="399"/>
      <point x="617" y="508" type="curve"/>
      <point x="624" y="546" type="line"/>
    </contour>
    <component base="circlewhite"/>
  </outline>
</glyph>
<glyph name="onesansnegativecircled" format="2">
  <advance width="828"/>
  <unicode hex="278A"/>
  <outline>
    <contour>
      <point x="446" y="546" type="curve"/>
      <point x="512" y="546" type="line"/>
      <point x="442" y="154" type="line"/>
      <point x="367" y="154" type="line"/>
      <point x="411" y="403" type="line"/>
      <point x="312" y="403" type="line"/>
      <point x="322" y="457" type="line"/>
      <point x="415" y="457"/>
      <point x="434" y="478"/>
    </contour>
    <component base="circleblack"/>
  </outline>
</glyph>
<glyph name="threesansnegativecircled" format="2">
  <advance width="828"/>
  <unicode hex="278C"/>
  <outline>
    <contour>
      <point x="271" y="281" type="curve"/>
      <point x="345" y="276" type="line"/>
      <point x="343" y="270"/>
      <point x="342" y="264"/>
      <point x="342" y="258" type="curve" smooth="yes"/>
      <point x="342" y="232"/>
      <point x="362" y="209"/>
      <point x="404" y="209" type="curve" smooth="yes"/>
      <point x="455" y="209"/>
      <point x="482" y="243"/>
      <point x="482" y="276" type="curve" smooth="yes"/>
      <point x="482" y="304"/>
      <point x="463" y="327"/>
      <point x="421" y="327" type="curve" smooth="yes"/>
      <point x="391" y="327" type="line"/>
      <point x="401" y="387" type="line"/>
      <point x="434" y="387" type="line" smooth="yes"/>
      <point x="482" y="387"/>
      <point x="501" y="418"/>
      <point x="501" y="446" type="curve" smooth="yes"/>
      <point x="501" y="470"/>
      <point x="487" y="493"/>
      <point x="449" y="493" type="curve" smooth="yes"/>
      <point x="408" y="493"/>
      <point x="378" y="468"/>
      <point x="376" y="432" type="curve"/>
      <point x="301" y="428" type="line"/>
      <point x="308" y="508"/>
      <point x="376" y="553"/>
      <point x="455" y="553" type="curve" smooth="yes"/>
      <point x="534" y="553"/>
      <point x="577" y="509"/>
      <point x="577" y="452" type="curve" smooth="yes"/>
      <point x="577" y="396"/>
      <point x="538" y="368"/>
      <point x="500" y="357" type="curve"/>
      <point x="536" y="346"/>
      <point x="557" y="320"/>
      <point x="557" y="283" type="curve" smooth="yes"/>
      <point x="557" y="206"/>
      <point x="490" y="149"/>
      <point x="397" y="149" type="curve" smooth="yes"/>
      <point x="324" y="149"/>
      <point x="267" y="182"/>
      <point x="267" y="250" type="curve" smooth="yes"/>
      <point x="267" y="260"/>
      <point x="268" y="270"/>
    </contour>
    <component base="circleblack"/>
  </outline>
</glyph>
<glyph name="foursansnegativecircled" format="2">
  <advance width="828"/>
  <unicode hex="278D"/>
  <outline>
    <contour>
      <point x="545" y="546" type="line"/>
      <point x="502" y="306" type="line"/>
      <point x="569" y="306" type="line"/>
      <point x="558" y="245" type="line"/>
      <point x="491" y="245" type="line"/>
      <point x="475" y="154" type="line"/>
      <point x="402" y="154" type="line"/>
      <point x="418" y="245" type="line"/>
      <point x="236" y="245" type="line"/>
      <point x="248" y="308" type="line"/>
      <point x="464" y="546" type="line"/>
    </contour>
    <contour>
      <point x="326" y="306" type="line"/>
      <point x="429" y="306" type="line"/>
      <point x="454" y="446" type="line"/>
    </contour>
    <component base="circleblack"/>
  </outline>
</glyph>
<glyph name="fivesansnegativecircled" format="2">
  <advance width="828"/>
  <unicode hex="278E"/>
  <outline>
    <contour>
      <point x="557" y="312" type="curve" smooth="yes"/>
      <point x="557" y="222"/>
      <point x="495" y="148"/>
      <point x="400" y="148" type="curve" smooth="yes"/>
      <point x="322" y="148"/>
      <point x="271" y="190"/>
      <point x="271" y="259" type="curve" smooth="yes"/>
      <point x="271" y="266"/>
      <point x="272" y="273"/>
      <point x="273" y="279" type="curve"/>
      <point x="353" y="269" type="line"/>
      <point x="347" y="235"/>
      <point x="368" y="207"/>
      <point x="405" y="207" type="curve" smooth="yes"/>
      <point x="458" y="207"/>
      <point x="482" y="260"/>
      <point x="482" y="304" type="curve" smooth="yes"/>
      <point x="482" y="341"/>
      <point x="464" y="363"/>
      <point x="431" y="363" type="curve" smooth="yes"/>
      <point x="403" y="363"/>
      <point x="380" y="346"/>
      <point x="364" y="319" type="curve"/>
      <point x="297" y="324" type="line"/>
      <point x="355" y="546" type="line"/>
      <point x="588" y="546" type="line"/>
      <point x="577" y="484" type="line"/>
      <point x="405" y="484" type="line"/>
      <point x="382" y="395" type="line"/>
      <point x="402" y="409"/>
      <point x="427" y="419"/>
      <point x="457" y="419" type="curve" smooth="yes"/>
      <point x="522" y="419"/>
      <point x="557" y="377"/>
    </contour>
    <component base="circleblack" xOffset="3" yOffset="-1"/>
  </outline>
</glyph>
<glyph name="sixsansnegativecircled" format="2">
  <advance width="828"/>
  <unicode hex="278F"/>
  <outline>
    <contour>
      <point x="392" y="148" type="curve" smooth="yes"/>
      <point x="312" y="148"/>
      <point x="270" y="197"/>
      <point x="270" y="275" type="curve" smooth="yes"/>
      <point x="270" y="295"/>
      <point x="272" y="317"/>
      <point x="277" y="344" type="curve" smooth="yes"/>
      <point x="299" y="470"/>
      <point x="375" y="551"/>
      <point x="466" y="551" type="curve" smooth="yes"/>
      <point x="536" y="551"/>
      <point x="572" y="510"/>
      <point x="572" y="454" type="curve" smooth="yes"/>
      <point x="572" y="447"/>
      <point x="571" y="439"/>
      <point x="570" y="435" type="curve"/>
      <point x="499" y="443" type="line"/>
      <point x="504" y="472"/>
      <point x="485.1304347826087" y="490.0"/>
      <point x="458" y="490" type="curve" smooth="yes"/>
      <point x="417" y="490"/>
      <point x="378" y="451"/>
      <point x="361" y="380" type="curve"/>
      <point x="384" y="402"/>
      <point x="415" y="414"/>
      <point x="448" y="414" type="curve" smooth="yes"/>
      <point x="507" y="414"/>
      <point x="553" y="375"/>
      <point x="553" y="308" type="curve" smooth="yes"/>
      <point x="553" y="234"/>
      <point x="496" y="148"/>
    </contour>
    <contour>
      <point x="344" y="267" type="curve" smooth="yes"/>
      <point x="344" y="233"/>
      <point x="361" y="207"/>
      <point x="398" y="207" type="curve" smooth="yes"/>
      <point x="446" y="207"/>
      <point x="476" y="251"/>
      <point x="476" y="297" type="curve" smooth="yes"/>
      <point x="476" y="331"/>
      <point x="460" y="357"/>
      <point x="423" y="357" type="curve" smooth="yes"/>
      <point x="375" y="357"/>
      <point x="344" y="313"/>
    </contour>
    <component base="circleblack"/>
  </outline>
</glyph>
<glyph name="Euro.tab" format="2">
  <advance width="600"/>
  <outline>
    <contour>
      <point x="418" y="712" type="curve" smooth="yes"/>
      <point x="211" y="712"/>
      <point x="106" y="466"/>
      <point x="106" y="244" type="curve" smooth="yes"/>
      <point x="106" y="85"/>
      <point x="181" y="-12"/>
      <point x="307" y="-12" type="curve" smooth="yes"/>
      <point x="424" y="-12"/>
      <point x="509" y="76"/>
      <point x="555" y="210" type="curve"/>
      <point x="477" y="226" type="line"/>
      <point x="447" y="137"/>
      <point x="396" y="64"/>
      <point x="316" y="64" type="curve" smooth="yes"/>
      <point x="236" y="64"/>
      <point x="196" y="130"/>
      <point x="196" y="240" type="curve" smooth="yes"/>
      <point x="196" y="414"/>
      <point x="266" y="637"/>
      <point x="408" y="637" type="curve" smooth="yes"/>
      <point x="491.7613636363636" y="637.0"/>
      <point x="519" y="559"/>
      <point x="518" y="464" type="curve"/>
      <point x="600" y="480" type="line"/>
      <point x="599" y="615"/>
      <point x="540" y="712"/>
    </contour>
    <contour>
      <point x="63" y="388" type="line"/>
      <point x="385" y="388" type="line"/>
      <point x="413" y="458" type="line"/>
      <point x="76" y="458" type="line"/>
    </contour>
    <contour>
      <point x="39" y="248" type="line"/>
      <point x="331" y="248" type="line"/>
      <point x="358" y="318" type="line"/>
      <point x="51" y="318" type="line"/>
    </contour>
  </outline>
</glyph>
<glyph name="R.alt1" format="2">
  <advance width="681"/>
  <outline>
    <contour>
      <point x="177" y="700" type="line"/>
      <point x="53" y="0" type="line"/>
      <point x="144" y="0" type="line"/>
      <point x="268" y="700" type="line"/>
    </contour>
    <contour>
      <point x="673" y="522" type="curve" smooth="yes"/>
      <point x="673" y="629"/>
      <point x="601.0" y="700.0"/>
      <point x="486" y="700" type="curve" smooth="yes"/>
      <point x="225" y="700" type="line"/>
      <point x="210" y="619" type="line"/>
      <point x="472" y="619" type="line" smooth="yes"/>
      <point x="540.0" y="619.0"/>
      <point x="581" y="584"/>
      <point x="581" y="516" type="curve" smooth="yes"/>
      <point x="581" y="447"/>
      <point x="538.0" y="373.0"/>
      <point x="428" y="373" type="curve" smooth="yes"/>
      <point x="162" y="373" type="line"/>
      <point x="148" y="293" type="line"/>
      <point x="463" y="293" type="line" smooth="yes"/>
      <point x="488" y="293"/>
      <point x="506" y="271"/>
      <point x="506" y="222" type="curve" smooth="yes"/>
      <point x="506" y="186"/>
      <point x="483" y="75"/>
      <point x="483" y="45" type="curve" smooth="yes"/>
      <point x="483" y="27"/>
      <point x="486" y="13"/>
      <point x="495" y="0" type="curve"/>
      <point x="586" y="0" type="line"/>
      <point x="588" y="11" type="line"/>
      <point x="580" y="19"/>
      <point x="577" y="35"/>
      <point x="577" y="54" type="curve" smooth="yes"/>
      <point x="577" y="93"/>
      <point x="595" y="189"/>
      <point x="595" y="221" type="curve" smooth="yes"/>
      <point x="595" y="279"/>
      <point x="563" y="324"/>
      <point x="499" y="339" type="curve"/>
      <point x="496" y="320" type="line"/>
      <point x="614" y="338"/>
      <point x="673.0" y="429"/>
    </contour>
  </outline>
</glyph>
<glyph name="a.alt1" format="2">
  <advance width="535"/>
  <outline>
    <contour>
      <point x="27" y="120" type="curve" smooth="yes"/>
      <point x="27" y="36"/>
      <point x="87" y="-12"/>
      <point x="180" y="-12" type="curve" smooth="yes"/>
      <point x="262" y="-12"/>
      <point x="324" y="27"/>
      <point x="366" y="89" type="curve"/>
      <point x="344" y="93.0" type="line"/>
      <point x="337" y="55.0"/>
      <point x="333" y="32.0"/>
      <point x="333" y="0.0" type="curve"/>
      <point x="418" y="0.0" type="line"/>
      <point x="418" y="31.0"/>
      <point x="420" y="56"/>
      <point x="426" y="89.0" type="curve" smooth="yes"/>
      <point x="471" y="339" type="line" smooth="yes"/>
      <point x="490" y="442"/>
      <point x="424.61446" y="502.0"/>
      <point x="298" y="502" type="curve" smooth="yes"/>
      <point x="167" y="502"/>
      <point x="107" y="428"/>
      <point x="90" y="355" type="curve"/>
      <point x="176" y="339" type="line"/>
      <point x="187" y="385"/>
      <point x="207" y="429"/>
      <point x="289" y="429" type="curve" smooth="yes"/>
      <point x="367" y="429"/>
      <point x="394" y="395"/>
      <point x="384" y="338" type="curve" smooth="yes"/>
      <point x="355" y="174" type="line" smooth="yes"/>
      <point x="344" y="113"/>
      <point x="278" y="59"/>
      <point x="200" y="59" type="curve" smooth="yes"/>
      <point x="149" y="59"/>
      <point x="118" y="81"/>
      <point x="118" y="128" type="curve" smooth="yes"/>
      <point x="118" y="181"/>
      <point x="157" y="215"/>
      <point x="228" y="221" type="curve" smooth="yes"/>
      <point x="399" y="237" type="line"/>
      <point x="411" y="302" type="line"/>
      <point x="225" y="286" type="line" smooth="yes"/>
      <point x="110" y="276"/>
      <point x="27" y="222"/>
    </contour>
  </outline>
</glyph>
<glyph name="acutecmb.uc" format="2">
  <advance width="600"/>
  <outline>
    <contour>
      <point x="417" y="892" type="line"/>
      <point x="511" y="892" type="line"/>
      <point x="391" y="771" type="line"/>
      <point x="320" y="771" type="line"/>
    </contour>
  </outline>
</glyph>
<glyph name="backslash.uc" format="2">
  <advance width="453"/>
  <outline>
    <contour>
      <point x="174" y="745" type="line"/>
      <point x="90" y="745" type="line"/>
      <point x="318" y="-83" type="line"/>
      <point x="402" y="-83" type="line"/>
    </contour>
  </outline>
</glyph>
<glyph name="bar.uc" format="2">
  <advance width="243"/>
  <outline>
    <contour>
      <point x="168" y="745" type="line"/>
      <point x="22" y="-83" type="line"/>
      <point x="105" y="-83" type="line"/>
      <point x="251" y="745" type="line"/>
    </contour>
  </outline>
</glyph>
<glyph name="brokenbar.uc" format="2">
  <advance width="243"/>
  <outline>
    <contour>
      <point x="168" y="745" type="line"/>
      <point x="106" y="392" type="line"/>
      <point x="189" y="392" type="line"/>
      <point x="251" y="745" type="line"/>
    </contour>
    <contour>
      <point x="84" y="270" type="line"/>
      <point x="22" y="-83" type="line"/>
      <point x="105" y="-83" type="line"/>
      <point x="167" y="270" type="line"/>
    </contour>
  </outline>
</glyph>
<glyph name="bullet.large" format="2">
  <advance width="638"/>
  <outline>
    <contour>
      <point x="305" y="45" type="curve" smooth="yes"/>
      <point x="460.0" y="45.0"/>
      <point x="587" y="176"/>
      <point x="587" y="327" type="curve" smooth="yes"/>
      <point x="587" y="464"/>
      <point x="479" y="573"/>
      <point x="339" y="573" type="curve" smooth="yes"/>
      <point x="184.0" y="573.0"/>
      <point x="57" y="442"/>
      <point x="57" y="291" type="curve" smooth="yes"/>
      <point x="57" y="154"/>
      <point x="165" y="45"/>
    </contour>
  </outline>
</glyph>
<glyph name="caroncmb.alt" format="2">
  <advance width="600"/>
  <outline>
    <contour>
      <point x="361" y="700.0" type="line"/>
      <point x="327" y="550.0" type="line"/>
      <point x="391" y="550.0" type="line"/>
      <point x="443" y="700.0" type="line"/>
    </contour>
  </outline>
</glyph>
<glyph name="caroncmb.ucalt" format="2">
  <advance width="600"/>
  <outline>
    <contour>
      <point x="361" y="700.0" type="line"/>
      <point x="314" y="472.0" type="line"/>
      <point x="379" y="472.0" type="line"/>
      <point x="450" y="700.0" type="line"/>
    </contour>
  </outline>
</glyph>
<glyph name="cedi.tab" format="2">
  <advance width="600"/>
  <outline>
    <contour>
      <point x="578" y="478" type="line"/>
      <point x="576" y="616"/>
      <point x="517" y="712"/>
      <point x="390" y="712" type="curve" smooth="yes"/>
      <point x="188" y="712"/>
      <point x="74" y="471"/>
      <point x="74" y="253" type="curve" smooth="yes"/>
      <point x="74" y="88"/>
      <point x="152" y="-12"/>
      <point x="281" y="-12" type="curve" smooth="yes"/>
      <point x="408" y="-12"/>
      <point x="486" y="77"/>
      <point x="533" y="208" type="curve"/>
      <point x="456" y="227" type="line"/>
      <point x="426" y="139"/>
      <point x="374" y="63"/>
      <point x="289" y="63" type="curve" smooth="yes"/>
      <point x="208" y="63"/>
      <point x="163" y="131"/>
      <point x="163" y="248" type="curve" smooth="yes"/>
      <point x="163" y="421"/>
      <point x="237" y="635"/>
      <point x="380" y="635" type="curve" smooth="yes"/>
      <point x="468" y="635"/>
      <point x="499" y="561"/>
      <point x="498" y="465" type="curve"/>
    </contour>
    <contour>
      <point x="215" y="-112" type="line"/>
      <point x="283" y="-112" type="line"/>
      <point x="443" y="797" type="line"/>
      <point x="375" y="797" type="line"/>
    </contour>
  </outline>
</glyph>
<glyph name="cent.tab" format="2">
  <advance width="600"/>
  <outline>
    <contour>
      <point x="211" y="-112" type="line"/>
      <point x="279" y="-112" type="line"/>
      <point x="404" y="597" type="line"/>
      <point x="336" y="597" type="line"/>
    </contour>
    <contour>
      <point x="542" y="338" type="line"/>
      <point x="533" y="441"/>
      <point x="459" y="502"/>
      <point x="351" y="502" type="curve" smooth="yes"/>
      <point x="181" y="502"/>
      <point x="78" y="362"/>
      <point x="78" y="198" type="curve" smooth="yes"/>
      <point x="78" y="67"/>
      <point x="159" y="-12"/>
      <point x="285" y="-12" type="curve" smooth="yes"/>
      <point x="387" y="-12"/>
      <point x="468" y="38"/>
      <point x="511" y="133" type="curve"/>
      <point x="432" y="160" type="line"/>
      <point x="406" y="94"/>
      <point x="359" y="57"/>
      <point x="293" y="57" type="curve" smooth="yes"/>
      <point x="213" y="57"/>
      <point x="167" y="111"/>
      <point x="167" y="202" type="curve" smooth="yes"/>
      <point x="167" y="307"/>
      <point x="222" y="431"/>
      <point x="345" y="431" type="curve" smooth="yes"/>
      <point x="417" y="431"/>
      <point x="458" y="392"/>
      <point x="462" y="320" type="curve"/>
    </contour>
  </outline>
</glyph>
<glyph name="colon.tab" format="2">
  <advance width="600"/>
  <outline>
    <contour>
      <point x="219" y="149" type="line"/>
      <point x="193" y="0" type="line"/>
      <point x="319" y="0" type="line"/>
      <point x="345" y="149" type="line"/>
    </contour>
    <contour>
      <point x="279" y="490" type="line"/>
      <point x="253" y="341" type="line"/>
      <point x="379" y="341" type="line"/>
      <point x="405" y="490" type="line"/>
    </contour>
  </outline>
</glyph>
<glyph name="colonmonetary.tab" format="2">
  <advance width="600"/>
  <outline>
    <contour>
      <point x="577" y="477" type="line"/>
      <point x="575" y="615"/>
      <point x="518" y="712"/>
      <point x="391" y="712" type="curve" smooth="yes"/>
      <point x="195" y="712"/>
      <point x="74" y="479"/>
      <point x="74" y="250" type="curve" smooth="yes"/>
      <point x="74" y="88"/>
      <point x="150" y="-12"/>
      <point x="281" y="-12" type="curve" smooth="yes"/>
      <point x="399" y="-12"/>
      <point x="486" y="77"/>
      <point x="533" y="208" type="curve"/>
      <point x="457" y="227" type="line"/>
      <point x="427" y="139"/>
      <point x="372" y="60"/>
      <point x="290" y="60" type="curve" smooth="yes"/>
      <point x="203" y="60"/>
      <point x="161" y="130"/>
      <point x="161" y="246" type="curve" smooth="yes"/>
      <point x="161" y="432"/>
      <point x="240" y="638"/>
      <point x="381" y="638" type="curve" smooth="yes"/>
      <point x="472" y="638"/>
      <point x="500" y="559"/>
      <point x="500" y="466" type="curve"/>
    </contour>
    <contour>
      <point x="113" y="-112" type="line"/>
      <point x="176" y="-112" type="line"/>
      <point x="419" y="797" type="line"/>
      <point x="356" y="797" type="line"/>
    </contour>
    <contour>
      <point x="216" y="-112" type="line"/>
      <point x="279" y="-112" type="line"/>
      <point x="522" y="797" type="line"/>
      <point x="459" y="797" type="line"/>
    </contour>
  </outline>
</glyph>
<glyph name="divide.tab" format="2">
  <advance width="600"/>
  <outline>
    <contour>
      <point x="538.0" y="302.0" type="line"/>
      <point x="552.0" y="378.0" type="line"/>
      <point x="96.0" y="378.0" type="line"/>
      <point x="82.0" y="302.0" type="line"/>
    </contour>
    <contour>
      <point x="238.0" y="205.0" type="line"/>
      <point x="220.0" y="99.0" type="line"/>
      <point x="329.0" y="99.0" type="line"/>
      <point x="347.0" y="205.0" type="line"/>
    </contour>
    <contour>
      <point x="304.0" y="581.0" type="line"/>
      <point x="286.0" y="475.0" type="line"/>
      <point x="395.0" y="475.0" type="line"/>
      <point x="413.0" y="581.0" type="line"/>
    </contour>
  </outline>
</glyph>
<glyph name="dong.tab" format="2">
  <advance width="600"/>
  <outline>
    <contour>
      <point x="294" y="540" type="curve" smooth="yes"/>
      <point x="160" y="540"/>
      <point x="79" y="410"/>
      <point x="79" y="279" type="curve" smooth="yes"/>
      <point x="79" y="169"/>
      <point x="144" y="111"/>
      <point x="230" y="111" type="curve" smooth="yes"/>
      <point x="310" y="111"/>
      <point x="376" y="162"/>
      <point x="410" y="234" type="curve"/>
      <point x="381" y="235" type="line"/>
      <point x="361" y="122" type="line"/>
      <point x="447" y="122" type="line"/>
      <point x="549" y="700" type="line"/>
      <point x="463" y="700" type="line"/>
      <point x="411" y="404" type="line"/>
      <point x="440" y="403" type="line"/>
      <point x="431" y="482"/>
      <point x="375" y="540"/>
    </contour>
    <contour>
      <point x="167" y="295" type="curve" smooth="yes"/>
      <point x="167" y="389"/>
      <point x="226" y="469"/>
      <point x="307" y="469" type="curve" smooth="yes"/>
      <point x="366" y="469"/>
      <point x="405" y="428"/>
      <point x="405" y="354" type="curve" smooth="yes"/>
      <point x="405" y="260"/>
      <point x="345" y="180"/>
      <point x="264" y="180" type="curve" smooth="yes"/>
      <point x="205" y="180"/>
      <point x="167" y="221"/>
    </contour>
    <contour>
      <point x="589" y="586" type="line"/>
      <point x="600" y="649" type="line"/>
      <point x="293" y="649" type="line"/>
      <point x="282" y="586" type="line"/>
    </contour>
    <contour>
      <point x="455" y="0" type="line"/>
      <point x="466" y="63" type="line"/>
      <point x="60" y="63" type="line"/>
      <point x="49" y="0" type="line"/>
    </contour>
  </outline>
</glyph>
<glyph name="dotaccentcmb.uc" format="2">
  <advance width="600"/>
  <outline>
    <contour>
      <point x="361" y="878" type="line"/>
      <point x="342" y="771" type="line"/>
      <point x="442" y="771" type="line"/>
      <point x="461" y="878" type="line"/>
    </contour>
  </outline>
</glyph>
<glyph name="dotbelowcmb.uc" format="2">
  <advance width="600"/>
  <outline>
    <contour>
      <point x="197.0" y="-77.0" type="line"/>
      <point x="178.0" y="-184.0" type="line"/>
      <point x="278.0" y="-184.0" type="line"/>
      <point x="297.0" y="-77.0" type="line"/>
    </contour>
  </outline>
</glyph>
<glyph name="eight.den" format="2">
  <advance width="360"/>
  <outline>
    <contour>
      <point x="188" y="340" type="curve" smooth="yes"/>
      <point x="222" y="340"/>
      <point x="244" y="322"/>
      <point x="244" y="295" type="curve" smooth="yes"/>
      <point x="244" y="264"/>
      <point x="215" y="236"/>
      <point x="174" y="236" type="curve" smooth="yes"/>
      <point x="140" y="236"/>
      <point x="118" y="254"/>
      <point x="118" y="282" type="curve" smooth="yes"/>
      <point x="118" y="313"/>
      <point x="147" y="340"/>
    </contour>
    <contour>
      <point x="193" y="398" type="curve" smooth="yes"/>
      <point x="96" y="398"/>
      <point x="47" y="335"/>
      <point x="47" y="281" type="curve" smooth="yes"/>
      <point x="47" y="239"/>
      <point x="76" y="214"/>
      <point x="112" y="206" type="curve"/>
      <point x="114" y="216" type="line"/>
      <point x="55" y="207"/>
      <point x="5" y="166"/>
      <point x="5" y="99" type="curve" smooth="yes"/>
      <point x="5" y="37"/>
      <point x="56" y="-6"/>
      <point x="136" y="-6" type="curve" smooth="yes"/>
      <point x="240" y="-6"/>
      <point x="297" y="64"/>
      <point x="297" y="127" type="curve" smooth="yes"/>
      <point x="297" y="174"/>
      <point x="265" y="201"/>
      <point x="222" y="212" type="curve"/>
      <point x="220" y="202" type="line"/>
      <point x="270" y="210"/>
      <point x="317" y="243"/>
      <point x="317" y="302" type="curve" smooth="yes"/>
      <point x="317" y="358"/>
      <point x="271" y="398"/>
    </contour>
    <contour>
      <point x="158" y="180" type="curve" smooth="yes"/>
      <point x="198" y="180"/>
      <point x="223" y="160"/>
      <point x="223" y="127" type="curve" smooth="yes"/>
      <point x="223" y="95"/>
      <point x="199" y="52"/>
      <point x="143" y="52" type="curve" smooth="yes"/>
      <point x="103" y="52"/>
      <point x="79" y="74"/>
      <point x="79" y="107" type="curve" smooth="yes"/>
      <point x="79" y="139"/>
      <point x="102" y="180"/>
    </contour>
  </outline>
</glyph>
<glyph name="eight.sub" format="2">
  <advance width="360"/>
  <outline>
    <contour>
      <point x="101" y="180" type="curve" smooth="yes"/>
      <point x="101" y="211"/>
      <point x="130" y="238"/>
      <point x="171" y="238" type="curve" smooth="yes"/>
      <point x="205" y="238"/>
      <point x="227" y="220"/>
      <point x="227" y="193" type="curve" smooth="yes"/>
      <point x="227" y="162"/>
      <point x="198" y="134"/>
      <point x="157" y="134" type="curve" smooth="yes"/>
      <point x="123" y="134"/>
      <point x="101" y="152"/>
    </contour>
    <contour>
      <point x="95" y="104" type="curve"/>
      <point x="97" y="114" type="line"/>
      <point x="38" y="105"/>
      <point x="-12" y="64"/>
      <point x="-12" y="-3" type="curve" smooth="yes"/>
      <point x="-12" y="-65"/>
      <point x="39" y="-108"/>
      <point x="119" y="-108" type="curve" smooth="yes"/>
      <point x="223" y="-108"/>
      <point x="280" y="-38"/>
      <point x="280" y="25" type="curve" smooth="yes"/>
      <point x="280" y="72"/>
      <point x="248" y="99"/>
      <point x="205" y="110" type="curve"/>
      <point x="203" y="100" type="line"/>
      <point x="253" y="108"/>
      <point x="300" y="141"/>
      <point x="300" y="200" type="curve" smooth="yes"/>
      <point x="300" y="256"/>
      <point x="254" y="296"/>
      <point x="176" y="296" type="curve" smooth="yes"/>
      <point x="79" y="296"/>
      <point x="30" y="233"/>
      <point x="30" y="179" type="curve" smooth="yes"/>
      <point x="30" y="137"/>
      <point x="59" y="112"/>
    </contour>
    <contour>
      <point x="126" y="-50" type="curve" smooth="yes"/>
      <point x="86" y="-50"/>
      <point x="62" y="-28"/>
      <point x="62" y="5" type="curve" smooth="yes"/>
      <point x="62" y="37"/>
      <point x="85" y="78"/>
      <point x="141" y="78" type="curve" smooth="yes"/>
      <point x="181" y="78"/>
      <point x="206" y="58"/>
      <point x="206" y="25" type="curve" smooth="yes"/>
      <point x="206" y="-7"/>
      <point x="182" y="-50"/>
    </contour>
  </outline>
</glyph>
<glyph name="eight.sup" format="2">
  <advance width="360"/>
  <outline>
    <contour>
      <point x="261" y="748" type="curve" smooth="yes"/>
      <point x="295" y="748"/>
      <point x="317" y="730"/>
      <point x="317" y="703" type="curve" smooth="yes"/>
      <point x="317" y="672"/>
      <point x="288" y="644"/>
      <point x="247" y="644" type="curve" smooth="yes"/>
      <point x="213" y="644"/>
      <point x="191" y="662"/>
      <point x="191" y="690" type="curve" smooth="yes"/>
      <point x="191" y="721"/>
      <point x="220" y="748"/>
    </contour>
    <contour>
      <point x="266" y="806" type="curve" smooth="yes"/>
      <point x="169" y="806"/>
      <point x="120" y="743"/>
      <point x="120" y="689" type="curve" smooth="yes"/>
      <point x="120" y="647"/>
      <point x="149" y="622"/>
      <point x="185" y="614" type="curve"/>
      <point x="187" y="624" type="line"/>
      <point x="128" y="615"/>
      <point x="78" y="574"/>
      <point x="78" y="507" type="curve" smooth="yes"/>
      <point x="78" y="445"/>
      <point x="129" y="402"/>
      <point x="209" y="402" type="curve" smooth="yes"/>
      <point x="313" y="402"/>
      <point x="370" y="472"/>
      <point x="370" y="535" type="curve" smooth="yes"/>
      <point x="370" y="582"/>
      <point x="338" y="609"/>
      <point x="295" y="620" type="curve"/>
      <point x="293" y="610" type="line"/>
      <point x="343" y="618"/>
      <point x="390" y="651"/>
      <point x="390" y="710" type="curve" smooth="yes"/>
      <point x="390" y="766"/>
      <point x="344" y="806"/>
    </contour>
    <contour>
      <point x="231" y="588" type="curve" smooth="yes"/>
      <point x="271" y="588"/>
      <point x="296" y="568"/>
      <point x="296" y="535" type="curve" smooth="yes"/>
      <point x="296" y="503"/>
      <point x="272" y="460"/>
      <point x="216" y="460" type="curve" smooth="yes"/>
      <point x="176" y="460"/>
      <point x="152" y="482"/>
      <point x="152" y="515" type="curve" smooth="yes"/>
      <point x="152" y="547"/>
      <point x="175" y="588"/>
    </contour>
  </outline>
</glyph>
<glyph name="eight.tab" format="2">
  <advance width="600"/>
  <outline>
    <contour>
      <point x="372" y="712" type="curve" smooth="yes"/>
      <point x="211" y="712"/>
      <point x="118" y="609"/>
      <point x="118" y="502" type="curve" smooth="yes"/>
      <point x="118" y="425"/>
      <point x="171" y="383"/>
      <point x="241" y="368" type="curve"/>
      <point x="244" y="386" type="line"/>
      <point x="134" y="371"/>
      <point x="43" y="290"/>
      <point x="43" y="172" type="curve" smooth="yes"/>
      <point x="43" y="64"/>
      <point x="132" y="-12"/>
      <point x="270" y="-12" type="curve" smooth="yes"/>
      <point x="438" y="-12"/>
      <point x="545" y="104"/>
      <point x="545" y="223" type="curve" smooth="yes"/>
      <point x="545" y="309"/>
      <point x="490" y="364"/>
      <point x="410" y="382" type="curve"/>
      <point x="407" y="364" type="line"/>
      <point x="498" y="376"/>
      <point x="586" y="443"/>
      <point x="586" y="547" type="curve" smooth="yes"/>
      <point x="586" y="647"/>
      <point x="501" y="712"/>
    </contour>
    <contour>
      <point x="311" y="340" type="curve" smooth="yes"/>
      <point x="401" y="340"/>
      <point x="457" y="286"/>
      <point x="457" y="217" type="curve" smooth="yes"/>
      <point x="457" y="143"/>
      <point x="392" y="60"/>
      <point x="278" y="60" type="curve" smooth="yes"/>
      <point x="188" y="60"/>
      <point x="133" y="113"/>
      <point x="133" y="182" type="curve" smooth="yes"/>
      <point x="133" y="256"/>
      <point x="197" y="340"/>
    </contour>
    <contour>
      <point x="365" y="643" type="curve" smooth="yes"/>
      <point x="453" y="643"/>
      <point x="497" y="599"/>
      <point x="497" y="538" type="curve" smooth="yes"/>
      <point x="497" y="467"/>
      <point x="442" y="406"/>
      <point x="339" y="406" type="curve" smooth="yes"/>
      <point x="251" y="406"/>
      <point x="207" y="447"/>
      <point x="207" y="508" type="curve" smooth="yes"/>
      <point x="207" y="579"/>
      <point x="262" y="643"/>
    </contour>
  </outline>
</glyph>
<glyph name="emdash.uc" format="2">
  <advance width="966"/>
  <outline>
    <contour>
      <point x="70" y="298" type="line"/>
      <point x="898" y="298" type="line"/>
      <point x="912" y="374" type="line"/>
      <point x="84" y="374" type="line"/>
    </contour>
  </outline>
</glyph>
<glyph name="endash.uc" format="2">
  <advance width="684"/>
  <outline>
    <contour>
      <point x="69" y="298" type="line"/>
      <point x="615" y="298" type="line"/>
      <point x="629" y="374" type="line"/>
      <point x="83" y="374" type="line"/>
    </contour>
  </outline>
</glyph>
<glyph name="fhook.tab" format="2">
  <advance width="600"/>
  <outline>
    <contour>
      <point x="196" y="382" type="line"/>
      <point x="519" y="382" type="line"/>
      <point x="531" y="452" type="line"/>
      <point x="208" y="452" type="line"/>
    </contour>
    <contour>
      <point x="253" y="104" type="curve" smooth="yes"/>
      <point x="491" y="584" type="line" smooth="yes"/>
      <point x="509" y="621"/>
      <point x="533" y="639"/>
      <point x="573" y="639" type="curve" smooth="yes"/>
      <point x="587" y="639"/>
      <point x="601" y="637"/>
      <point x="611" y="635" type="curve"/>
      <point x="623" y="706" type="line"/>
      <point x="607" y="710"/>
      <point x="590" y="712"/>
      <point x="572" y="712" type="curve" smooth="yes"/>
      <point x="478" y="712"/>
      <point x="436" y="658"/>
      <point x="405" y="595" type="curve" smooth="yes"/>
      <point x="168" y="116" type="line" smooth="yes"/>
      <point x="150" y="79"/>
      <point x="126" y="60"/>
      <point x="86" y="60" type="curve" smooth="yes"/>
      <point x="73" y="60"/>
      <point x="60" y="62"/>
      <point x="48" y="64" type="curve"/>
      <point x="36" y="-6" type="line"/>
      <point x="52" y="-10"/>
      <point x="70" y="-12"/>
      <point x="88" y="-12" type="curve" smooth="yes"/>
      <point x="179" y="-12"/>
      <point x="222" y="41"/>
    </contour>
  </outline>
</glyph>
<glyph name="five.den" format="2">
  <advance width="346"/>
  <outline>
    <contour>
      <point x="149" y="371" type="line"/>
      <point x="106" y="330" type="line"/>
      <point x="310" y="330" type="line"/>
      <point x="321" y="392" type="line"/>
      <point x="88" y="392" type="line"/>
      <point x="30" y="170" type="line"/>
      <point x="97" y="165" type="line"/>
      <point x="113" y="192"/>
      <point x="136" y="209"/>
      <point x="164" y="209" type="curve" smooth="yes"/>
      <point x="197" y="209"/>
      <point x="215" y="187"/>
      <point x="215" y="150" type="curve" smooth="yes"/>
      <point x="215" y="106"/>
      <point x="191" y="53"/>
      <point x="138" y="53" type="curve" smooth="yes"/>
      <point x="100.6" y="53.0"/>
      <point x="79" y="81"/>
      <point x="86" y="115" type="curve"/>
      <point x="6" y="125" type="line"/>
      <point x="5" y="119"/>
      <point x="4" y="112"/>
      <point x="4" y="105" type="curve" smooth="yes"/>
      <point x="4" y="36"/>
      <point x="55" y="-6"/>
      <point x="133" y="-6" type="curve" smooth="yes"/>
      <point x="228" y="-6"/>
      <point x="290" y="68"/>
      <point x="290" y="158" type="curve" smooth="yes"/>
      <point x="290" y="223"/>
      <point x="255" y="265"/>
      <point x="190" y="265" type="curve" smooth="yes"/>
      <point x="137" y="265"/>
      <point x="99" y="234"/>
      <point x="81" y="201" type="curve"/>
      <point x="105" y="200" type="line"/>
    </contour>
  </outline>
</glyph>
<glyph name="five.sub" format="2">
  <advance width="346"/>
  <outline>
    <contour>
      <point x="132" y="269" type="line"/>
      <point x="89" y="228" type="line"/>
      <point x="293" y="228" type="line"/>
      <point x="304" y="290" type="line"/>
      <point x="71" y="290" type="line"/>
      <point x="13" y="68" type="line"/>
      <point x="80" y="63" type="line"/>
      <point x="96" y="90"/>
      <point x="119" y="107"/>
      <point x="147" y="107" type="curve" smooth="yes"/>
      <point x="180" y="107"/>
      <point x="198" y="85"/>
      <point x="198" y="48" type="curve" smooth="yes"/>
      <point x="198" y="4"/>
      <point x="174" y="-49"/>
      <point x="121" y="-49" type="curve" smooth="yes"/>
      <point x="83.6" y="-49.0"/>
      <point x="62" y="-21"/>
      <point x="69" y="13" type="curve"/>
      <point x="-11" y="23" type="line"/>
      <point x="-12" y="17"/>
      <point x="-13" y="10"/>
      <point x="-13" y="3" type="curve" smooth="yes"/>
      <point x="-13" y="-66"/>
      <point x="38" y="-108"/>
      <point x="116" y="-108" type="curve" smooth="yes"/>
      <point x="211" y="-108"/>
      <point x="273" y="-34"/>
      <point x="273" y="56" type="curve" smooth="yes"/>
      <point x="273" y="121"/>
      <point x="238" y="163"/>
      <point x="173" y="163" type="curve" smooth="yes"/>
      <point x="120" y="163"/>
      <point x="82" y="132"/>
      <point x="64" y="99" type="curve"/>
      <point x="88" y="98" type="line"/>
    </contour>
  </outline>
</glyph>
<glyph name="five.sup" format="2">
  <advance width="347"/>
  <outline>
    <contour>
      <point x="222" y="779" type="line"/>
      <point x="179" y="738" type="line"/>
      <point x="383" y="738" type="line"/>
      <point x="394" y="800" type="line"/>
      <point x="161" y="800" type="line"/>
      <point x="103" y="578" type="line"/>
      <point x="170" y="573" type="line"/>
      <point x="186" y="600"/>
      <point x="209" y="617"/>
      <point x="237" y="617" type="curve" smooth="yes"/>
      <point x="270" y="617"/>
      <point x="288" y="595"/>
      <point x="288" y="558" type="curve" smooth="yes"/>
      <point x="288" y="514"/>
      <point x="264" y="461"/>
      <point x="211" y="461" type="curve" smooth="yes"/>
      <point x="173.6" y="461.0"/>
      <point x="152" y="489"/>
      <point x="159" y="523" type="curve"/>
      <point x="79" y="533" type="line"/>
      <point x="78" y="527"/>
      <point x="77" y="520"/>
      <point x="77" y="513" type="curve" smooth="yes"/>
      <point x="77" y="444"/>
      <point x="128" y="402"/>
      <point x="206" y="402" type="curve" smooth="yes"/>
      <point x="301" y="402"/>
      <point x="363" y="476"/>
      <point x="363" y="566" type="curve" smooth="yes"/>
      <point x="363" y="631"/>
      <point x="328" y="673"/>
      <point x="263" y="673" type="curve" smooth="yes"/>
      <point x="210" y="673"/>
      <point x="172" y="642"/>
      <point x="154" y="609" type="curve"/>
      <point x="178" y="608" type="line"/>
    </contour>
  </outline>
</glyph>
<glyph name="four.den" format="2">
  <advance width="387"/>
  <outline>
    <contour>
      <point x="229" y="370" type="line"/>
      <point x="163" y="0" type="line"/>
      <point x="236" y="0" type="line"/>
      <point x="306" y="392" type="line"/>
      <point x="225" y="392" type="line"/>
      <point x="9" y="154" type="line"/>
      <point x="-3" y="91" type="line"/>
      <point x="319" y="91" type="line"/>
      <point x="330" y="152" type="line"/>
      <point x="36" y="152" type="line"/>
      <point x="57" y="119" type="line"/>
      <point x="286" y="370" type="line"/>
    </contour>
  </outline>
</glyph>
<glyph name="four.num" format="2">
  <advance width="387"/>
  <outline>
    <contour>
      <point x="218" y="308" type="line"/>
      <point x="291" y="308" type="line"/>
      <point x="361" y="700" type="line"/>
      <point x="280" y="700" type="line"/>
      <point x="64" y="462" type="line"/>
      <point x="52" y="399" type="line"/>
      <point x="374" y="399" type="line"/>
      <point x="385" y="460" type="line"/>
      <point x="91" y="460" type="line"/>
      <point x="112" y="427" type="line"/>
      <point x="341" y="678" type="line"/>
      <point x="284" y="678" type="line"/>
    </contour>
  </outline>
</glyph>
<glyph name="four.sub" format="2">
  <advance width="387"/>
  <outline>
    <contour>
      <point x="146" y="-102" type="line"/>
      <point x="219" y="-102" type="line"/>
      <point x="289" y="290" type="line"/>
      <point x="208" y="290" type="line"/>
      <point x="-8" y="52" type="line"/>
      <point x="-20" y="-11" type="line"/>
      <point x="302" y="-11" type="line"/>
      <point x="313" y="50" type="line"/>
      <point x="19" y="50" type="line"/>
      <point x="40" y="17" type="line"/>
      <point x="269" y="268" type="line"/>
      <point x="212" y="268" type="line"/>
    </contour>
  </outline>
</glyph>
<glyph name="four.sup" format="2">
  <advance width="387"/>
  <outline>
    <contour>
      <point x="236" y="408" type="line"/>
      <point x="309" y="408" type="line"/>
      <point x="379" y="800" type="line"/>
      <point x="298" y="800" type="line"/>
      <point x="82" y="562" type="line"/>
      <point x="70" y="499" type="line"/>
      <point x="392" y="499" type="line"/>
      <point x="403" y="560" type="line"/>
      <point x="109" y="560" type="line"/>
      <point x="130" y="527" type="line"/>
      <point x="359" y="778" type="line"/>
      <point x="302" y="778" type="line"/>
    </contour>
  </outline>
</glyph>
<glyph name="greater.tab" format="2">
  <advance width="600"/>
  <outline>
    <contour>
      <point x="536" y="297" type="line"/>
      <point x="552" y="383" type="line"/>
      <point x="135" y="604" type="line"/>
      <point x="121" y="522" type="line"/>
      <point x="481" y="332" type="line"/>
      <point x="486" y="361" type="line"/>
      <point x="59" y="171" type="line"/>
      <point x="41" y="76" type="line"/>
    </contour>
  </outline>
</glyph>
<glyph name="greaterequal.tab" format="2">
  <advance width="600"/>
  <outline>
    <contour>
      <point x="28.0" y="0.0" type="line"/>
      <point x="42.0" y="76.0" type="line"/>
      <point x="498.0" y="76.0" type="line"/>
      <point x="484.0" y="0.0" type="line"/>
    </contour>
    <contour>
      <point x="545.0" y="342.0" type="line"/>
      <point x="560.0" y="428.0" type="line"/>
      <point x="137.0" y="619.0" type="line"/>
      <point x="123.0" y="538.0" type="line"/>
      <point x="488.0" y="374.0" type="line"/>
      <point x="493.0" y="403.0" type="line"/>
      <point x="70.0" y="239.0" type="line"/>
      <point x="55.0" y="151.0" type="line"/>
    </contour>
  </outline>
</glyph>
<glyph name="horncmb.uc" format="2">
  <advance width="600"/>
  <outline>
    <contour>
      <point x="396" y="791" type="line"/>
      <point x="396" y="786"/>
      <point x="396" y="781"/>
      <point x="396" y="776" type="curve" smooth="yes"/>
      <point x="396.0" y="724"/>
      <point x="386" y="700"/>
      <point x="339" y="700" type="curve" smooth="yes"/>
      <point x="245" y="700" type="line"/>
      <point x="234" y="638" type="line"/>
      <point x="340" y="638" type="line" smooth="yes"/>
      <point x="443" y="638"/>
      <point x="465.0" y="696"/>
      <point x="465" y="773" type="curve" smooth="yes"/>
      <point x="465" y="780"/>
      <point x="465" y="786"/>
      <point x="464" y="791" type="curve"/>
    </contour>
  </outline>
</glyph>
<glyph name="hyphen.uc" format="2">
  <advance width="424"/>
  <outline>
    <contour>
      <point x="63" y="296" type="line"/>
      <point x="349" y="296" type="line"/>
      <point x="363" y="376" type="line"/>
      <point x="77" y="376" type="line"/>
    </contour>
  </outline>
</glyph>
<glyph name="minus.sub" format="2">
  <advance width="390"/>
  <outline>
    <contour>
      <point x="11" y="61.0" type="line"/>
      <point x="311" y="61.0" type="line"/>
      <point x="323" y="126.0" type="line"/>
      <point x="23" y="126.0" type="line"/>
    </contour>
  </outline>
</glyph>
<glyph name="minus.sup" format="2">
  <advance width="390"/>
  <outline>
    <contour>
      <point x="101.0" y="571.0" type="line"/>
      <point x="401.0" y="571.0" type="line"/>
      <point x="413.0" y="636.0" type="line"/>
      <point x="113.0" y="636.0" type="line"/>
    </contour>
  </outline>
</glyph>
<glyph name="minus.tab" format="2">
  <advance width="600"/>
  <outline>
    <contour>
      <point x="538.0" y="302.0" type="line"/>
      <point x="552.0" y="378.0" type="line"/>
      <point x="96.0" y="378.0" type="line"/>
      <point x="82.0" y="302.0" type="line"/>
    </contour>
  </outline>
</glyph>
<glyph name="multiply.tab" format="2">
  <advance width="600"/>
  <outline>
    <contour>
      <point x="82.0" y="186.0" type="line"/>
      <point x="130.0" y="129.0" type="line"/>
      <point x="560.0" y="494.0" type="line"/>
      <point x="512.0" y="551.0" type="line"/>
    </contour>
    <contour>
      <point x="442.0" y="133.0" type="line"/>
      <point x="500.0" y="182.0" type="line"/>
      <point x="200.0" y="547.0" type="line"/>
      <point x="142.0" y="498.0" type="line"/>
    </contour>
  </outline>
</glyph>
<glyph name="nine.den" format="2">
  <advance width="365"/>
  <outline>
    <contour>
      <point x="194" y="398" type="curve" smooth="yes"/>
      <point x="94" y="398"/>
      <point x="35" y="320"/>
      <point x="35" y="241" type="curve" smooth="yes"/>
      <point x="35" y="172"/>
      <point x="82" y="132"/>
      <point x="144" y="132" type="curve" smooth="yes"/>
      <point x="196" y="132"/>
      <point x="242" y="162"/>
      <point x="261" y="219" type="curve"/>
      <point x="238" y="220" type="line"/>
      <point x="231" y="184" type="line" smooth="yes"/>
      <point x="218" y="109"/>
      <point x="191" y="52"/>
      <point x="137" y="52" type="curve" smooth="yes"/>
      <point x="105.0" y="52.0"/>
      <point x="88" y="71"/>
      <point x="89" y="104" type="curve"/>
      <point x="13" y="116" type="line"/>
      <point x="12" y="110"/>
      <point x="11" y="104"/>
      <point x="11" y="97" type="curve" smooth="yes"/>
      <point x="11" y="36"/>
      <point x="51" y="-6"/>
      <point x="129" y="-6" type="curve" smooth="yes"/>
      <point x="230" y="-6"/>
      <point x="284" y="64"/>
      <point x="308" y="199" type="curve" smooth="yes"/>
      <point x="314" y="229"/>
      <point x="317" y="253"/>
      <point x="317" y="273" type="curve" smooth="yes"/>
      <point x="317" y="351"/>
      <point x="270" y="398"/>
    </contour>
    <contour>
      <point x="186" y="338" type="curve" smooth="yes"/>
      <point x="218" y="338"/>
      <point x="242" y="317"/>
      <point x="242" y="278" type="curve" smooth="yes"/>
      <point x="242" y="234"/>
      <point x="214" y="190"/>
      <point x="166" y="190" type="curve" smooth="yes"/>
      <point x="134" y="190"/>
      <point x="110" y="211"/>
      <point x="110" y="250" type="curve" smooth="yes"/>
      <point x="110" y="294"/>
      <point x="138" y="338"/>
    </contour>
  </outline>
</glyph>
<glyph name="nine.sub" format="2">
  <advance width="365"/>
  <outline>
    <contour>
      <point x="177" y="296" type="curve" smooth="yes"/>
      <point x="77" y="296"/>
      <point x="18" y="218"/>
      <point x="18" y="139" type="curve" smooth="yes"/>
      <point x="18" y="70"/>
      <point x="65" y="30"/>
      <point x="127" y="30" type="curve" smooth="yes"/>
      <point x="179" y="30"/>
      <point x="225" y="60"/>
      <point x="244" y="117" type="curve"/>
      <point x="221" y="118" type="line"/>
      <point x="214" y="82" type="line" smooth="yes"/>
      <point x="201" y="7"/>
      <point x="174" y="-50"/>
      <point x="120" y="-50" type="curve" smooth="yes"/>
      <point x="88.0" y="-50.0"/>
      <point x="71" y="-31"/>
      <point x="72" y="2" type="curve"/>
      <point x="-4" y="14" type="line"/>
      <point x="-5" y="8"/>
      <point x="-6" y="2"/>
      <point x="-6" y="-5" type="curve" smooth="yes"/>
      <point x="-6" y="-66"/>
      <point x="34" y="-108"/>
      <point x="112" y="-108" type="curve" smooth="yes"/>
      <point x="213" y="-108"/>
      <point x="267" y="-38"/>
      <point x="291" y="97" type="curve" smooth="yes"/>
      <point x="297" y="127"/>
      <point x="300" y="151"/>
      <point x="300" y="171" type="curve" smooth="yes"/>
      <point x="300" y="249"/>
      <point x="253" y="296"/>
    </contour>
    <contour>
      <point x="169" y="236" type="curve" smooth="yes"/>
      <point x="201" y="236"/>
      <point x="225" y="215"/>
      <point x="225" y="176" type="curve" smooth="yes"/>
      <point x="225" y="132"/>
      <point x="197" y="88"/>
      <point x="149" y="88" type="curve" smooth="yes"/>
      <point x="117" y="88"/>
      <point x="93" y="109"/>
      <point x="93" y="148" type="curve" smooth="yes"/>
      <point x="93" y="192"/>
      <point x="121" y="236"/>
    </contour>
  </outline>
</glyph>
<glyph name="nine.sup" format="2">
  <advance width="365"/>
  <outline>
    <contour>
      <point x="267" y="806" type="curve" smooth="yes"/>
      <point x="167" y="806"/>
      <point x="108" y="728"/>
      <point x="108" y="649" type="curve" smooth="yes"/>
      <point x="108" y="580"/>
      <point x="155" y="540"/>
      <point x="217" y="540" type="curve" smooth="yes"/>
      <point x="269" y="540"/>
      <point x="315" y="570"/>
      <point x="334" y="627" type="curve"/>
      <point x="311" y="628" type="line"/>
      <point x="304" y="592" type="line" smooth="yes"/>
      <point x="291" y="517"/>
      <point x="264" y="460"/>
      <point x="210" y="460" type="curve" smooth="yes"/>
      <point x="178.0" y="460.0"/>
      <point x="161" y="479"/>
      <point x="162" y="512" type="curve"/>
      <point x="86" y="524" type="line"/>
      <point x="85" y="518"/>
      <point x="84" y="512"/>
      <point x="84" y="505" type="curve" smooth="yes"/>
      <point x="84" y="444"/>
      <point x="124" y="402"/>
      <point x="202" y="402" type="curve" smooth="yes"/>
      <point x="303" y="402"/>
      <point x="357" y="472"/>
      <point x="381" y="607" type="curve" smooth="yes"/>
      <point x="387" y="637"/>
      <point x="390" y="661"/>
      <point x="390" y="681" type="curve" smooth="yes"/>
      <point x="390" y="759"/>
      <point x="343" y="806"/>
    </contour>
    <contour>
      <point x="259" y="746" type="curve" smooth="yes"/>
      <point x="291" y="746"/>
      <point x="315" y="725"/>
      <point x="315" y="686" type="curve" smooth="yes"/>
      <point x="315" y="642"/>
      <point x="287" y="598"/>
      <point x="239" y="598" type="curve" smooth="yes"/>
      <point x="207" y="598"/>
      <point x="183" y="619"/>
      <point x="183" y="658" type="curve" smooth="yes"/>
      <point x="183" y="702"/>
      <point x="211" y="746"/>
    </contour>
  </outline>
</glyph>
<glyph name="nine.tab" format="2">
  <advance width="600"/>
  <outline>
    <contour>
      <point x="571" y="486" type="curve" smooth="yes"/>
      <point x="571" y="640"/>
      <point x="483" y="712"/>
      <point x="360" y="712" type="curve" smooth="yes"/>
      <point x="184" y="712"/>
      <point x="85" y="561"/>
      <point x="85" y="427" type="curve" smooth="yes"/>
      <point x="85" y="304"/>
      <point x="170" y="234"/>
      <point x="278" y="234" type="curve" smooth="yes"/>
      <point x="372" y="234"/>
      <point x="463" y="289"/>
      <point x="496" y="390" type="curve"/>
      <point x="471" y="391" type="line"/>
      <point x="460" y="327" type="line" smooth="yes"/>
      <point x="433" y="170"/>
      <point x="366" y="64"/>
      <point x="244" y="64" type="curve" smooth="yes"/>
      <point x="167.4915254237288" y="64.0"/>
      <point x="127" y="104"/>
      <point x="129" y="169" type="curve"/>
      <point x="38" y="186" type="line"/>
      <point x="37" y="180"/>
      <point x="36" y="173"/>
      <point x="36" y="164" type="curve" smooth="yes"/>
      <point x="36" y="67"/>
      <point x="101" y="-12"/>
      <point x="237" y="-12" type="curve" smooth="yes"/>
      <point x="410" y="-12"/>
      <point x="515" y="114"/>
      <point x="557" y="354" type="curve" smooth="yes"/>
      <point x="566" y="405"/>
      <point x="571" y="448"/>
    </contour>
    <contour>
      <point x="483" y="500" type="curve" smooth="yes"/>
      <point x="483" y="405"/>
      <point x="417" y="308"/>
      <point x="308" y="308" type="curve" smooth="yes"/>
      <point x="227" y="308"/>
      <point x="176" y="362"/>
      <point x="176" y="445" type="curve" smooth="yes"/>
      <point x="176" y="540"/>
      <point x="240" y="636"/>
      <point x="349" y="636" type="curve" smooth="yes"/>
      <point x="430" y="636"/>
      <point x="483" y="583"/>
    </contour>
  </outline>
</glyph>
<glyph name="notequal.tab" format="2">
  <advance width="600"/>
  <outline>
    <contour>
      <point x="82.0" y="92.0" type="line"/>
      <point x="172.0" y="92.0" type="line"/>
      <point x="550.0" y="588.0" type="line"/>
      <point x="460.0" y="588.0" type="line"/>
    </contour>
    <contour>
      <point x="555.0" y="402.0" type="line"/>
      <point x="568.0" y="478.0" type="line"/>
      <point x="112.0" y="478.0" type="line"/>
      <point x="99.0" y="402.0" type="line"/>
    </contour>
    <contour>
      <point x="520.0" y="202.0" type="line"/>
      <point x="533.0" y="278.0" type="line"/>
      <point x="77.0" y="278.0" type="line"/>
      <point x="64.0" y="202.0" type="line"/>
    </contour>
  </outline>
</glyph>
<glyph name="one.den" format="2">
  <advance width="285"/>
  <outline>
    <contour>
      <point x="155" y="392" type="line"/>
      <point x="143" y="324"/>
      <point x="124" y="303"/>
      <point x="31" y="303" type="curve"/>
      <point x="21" y="249" type="line"/>
      <point x="165" y="249" type="line"/>
      <point x="128" y="293" type="line"/>
      <point x="76" y="0" type="line"/>
      <point x="151" y="0" type="line"/>
      <point x="221" y="392" type="line"/>
    </contour>
  </outline>
</glyph>
<glyph name="one.sub" format="2">
  <advance width="280"/>
  <outline>
    <contour>
      <point x="137" y="290" type="line"/>
      <point x="125" y="222"/>
      <point x="106" y="201"/>
      <point x="13" y="201" type="curve"/>
      <point x="3" y="147" type="line"/>
      <point x="147" y="147" type="line"/>
      <point x="110" y="191" type="line"/>
      <point x="58" y="-102" type="line"/>
      <point x="133" y="-102" type="line"/>
      <point x="203" y="290" type="line"/>
    </contour>
  </outline>
</glyph>
<glyph name="one.sup" format="2">
  <advance width="281"/>
  <outline>
    <contour>
      <point x="228" y="800" type="line"/>
      <point x="216" y="732"/>
      <point x="197" y="711"/>
      <point x="104" y="711" type="curve"/>
      <point x="94" y="657" type="line"/>
      <point x="238" y="657" type="line"/>
      <point x="201" y="701" type="line"/>
      <point x="149" y="408" type="line"/>
      <point x="224" y="408" type="line"/>
      <point x="294" y="800" type="line"/>
    </contour>
  </outline>
</glyph>
<glyph name="parenleft.uc" format="2">
  <advance width="379"/>
  <outline>
    <contour>
      <point x="468" y="745" type="curve"/>
      <point x="358" y="745" type="line"/>
      <point x="179" y="620"/>
      <point x="69" y="432"/>
      <point x="69" y="263" type="curve" smooth="yes"/>
      <point x="69" y="141"/>
      <point x="123" y="11"/>
      <point x="214" y="-83" type="curve"/>
      <point x="312" y="-83" type="line"/>
      <point x="215" y="16"/>
      <point x="164" y="142"/>
      <point x="164" y="262" type="curve" smooth="yes"/>
      <point x="164" y="429"/>
      <point x="272" y="604"/>
    </contour>
  </outline>
</glyph>
<glyph name="plus.sub" format="2">
  <advance width="390"/>
  <outline>
    <contour>
      <point x="11" y="61.0" type="line"/>
      <point x="311" y="61.0" type="line"/>
      <point x="323" y="126.0" type="line"/>
      <point x="23" y="126.0" type="line"/>
    </contour>
    <contour>
      <point x="160" y="251.0" type="line"/>
      <point x="104" y="-64.0" type="line"/>
      <point x="174" y="-64.0" type="line"/>
      <point x="230" y="251.0" type="line"/>
    </contour>
  </outline>
</glyph>
<glyph name="plus.sup" format="2">
  <advance width="390"/>
  <outline>
    <contour>
      <point x="101.0" y="571.0" type="line"/>
      <point x="401.0" y="571.0" type="line"/>
      <point x="413.0" y="636.0" type="line"/>
      <point x="113.0" y="636.0" type="line"/>
    </contour>
    <contour>
      <point x="250.0" y="761.0" type="line"/>
      <point x="194.0" y="446.0" type="line"/>
      <point x="264.0" y="446.0" type="line"/>
      <point x="320.0" y="761.0" type="line"/>
    </contour>
  </outline>
</glyph>
<glyph name="seven.den" format="2">
  <advance width="354"/>
  <outline>
    <contour>
      <point x="62" y="392" type="line"/>
      <point x="37" y="250" type="line"/>
      <point x="108" y="250" type="line"/>
      <point x="128" y="365" type="line"/>
      <point x="98" y="330" type="line"/>
      <point x="311" y="330" type="line"/>
      <point x="296" y="374" type="line"/>
      <point x="194" y="259"/>
      <point x="81" y="133"/>
      <point x="51" y="0" type="curve"/>
      <point x="129" y="0" type="line"/>
      <point x="162" y="130"/>
      <point x="261" y="245"/>
      <point x="350" y="354" type="curve"/>
      <point x="357" y="392" type="line"/>
    </contour>
  </outline>
</glyph>
